%TF.GenerationSoftware,KiCad,Pcbnew,4.0.6*%
%TF.CreationDate,2017-10-08T18:55:19-04:00*%
%TF.ProjectId,USB-UART,5553422D554152542E6B696361645F70,rev?*%
%TF.FileFunction,Copper,L1,Top,Signal*%
%FSLAX46Y46*%
G04 Gerber Fmt 4.6, Leading zero omitted, Abs format (unit mm)*
G04 Created by KiCad (PCBNEW 4.0.6) date 10/08/17 18:55:19*
%MOMM*%
%LPD*%
G01*
G04 APERTURE LIST*
%ADD10C,0.127000*%
%ADD11R,1.099820X0.998220*%
%ADD12R,0.998220X1.099820*%
%ADD13R,1.000000X1.000000*%
%ADD14R,0.998220X0.998220*%
%ADD15C,1.879600*%
%ADD16R,1.447800X0.398780*%
%ADD17R,1.498600X1.798320*%
%ADD18R,1.498600X2.499360*%
%ADD19R,0.899160X0.254000*%
%ADD20R,0.254000X0.899160*%
%ADD21R,3.098800X3.098800*%
%ADD22R,1.198880X0.548640*%
%ADD23R,1.437640X1.198880*%
%ADD24R,1.437640X0.998220*%
%ADD25R,0.299720X0.497840*%
%ADD26R,1.700000X1.700000*%
%ADD27O,1.700000X1.700000*%
%ADD28C,0.685800*%
%ADD29C,0.200000*%
%ADD30C,0.500000*%
%ADD31C,0.800000*%
%ADD32C,0.600000*%
%ADD33C,0.400000*%
%ADD34C,0.254000*%
%ADD35C,0.300000*%
G04 APERTURE END LIST*
D10*
D11*
X160949640Y-103251000D03*
X162646360Y-103251000D03*
X157058360Y-100965000D03*
X155361640Y-100965000D03*
X151805640Y-107315000D03*
X153502360Y-107315000D03*
X151765000Y-109220000D03*
X153461720Y-109220000D03*
D12*
X172212000Y-100116640D03*
X172212000Y-101813360D03*
D13*
X165100000Y-100965000D03*
X167600000Y-100965000D03*
D14*
X164831032Y-114455746D03*
X164831032Y-112703146D03*
X163309300Y-105410000D03*
X163309300Y-107162600D03*
X163309300Y-108851700D03*
X163309300Y-110604300D03*
D15*
X139700000Y-101600000D03*
X139700000Y-104140000D03*
X139700000Y-106680000D03*
X139700000Y-109220000D03*
X139700000Y-111760000D03*
X139700000Y-114300000D03*
X154940000Y-99060000D03*
X157480000Y-99060000D03*
X160020000Y-99060000D03*
X162560000Y-99060000D03*
D16*
X169418000Y-107835700D03*
X169418000Y-108483400D03*
X169418000Y-106537760D03*
X169418000Y-107188000D03*
D17*
X172140880Y-111518700D03*
X172140880Y-104152700D03*
D18*
X172140880Y-107835700D03*
D16*
X169418000Y-109133640D03*
D15*
X143510000Y-100330000D03*
X146050000Y-100330000D03*
X148590000Y-100330000D03*
D11*
X160909000Y-101473000D03*
X162605720Y-101473000D03*
D12*
X169926000Y-100116640D03*
X169926000Y-101813360D03*
D11*
X153202640Y-113157000D03*
X154899360Y-113157000D03*
D12*
X163167332Y-112731086D03*
X163167332Y-114427806D03*
D11*
X158328360Y-114173000D03*
X156631640Y-114173000D03*
D12*
X164973000Y-107106720D03*
X164973000Y-105410000D03*
X164973000Y-110576360D03*
X164973000Y-108879640D03*
D19*
X156161740Y-108229400D03*
X156161740Y-108729780D03*
X156161740Y-109230160D03*
X156161740Y-109728000D03*
X156161740Y-110225840D03*
X156161740Y-110726220D03*
X156161740Y-111226600D03*
D20*
X157251400Y-112316260D03*
X157751780Y-112316260D03*
X158252160Y-112316260D03*
X158750000Y-112316260D03*
X159247840Y-112316260D03*
X159748220Y-112316260D03*
X160248600Y-112316260D03*
D19*
X161338260Y-111226600D03*
X161338260Y-110726220D03*
X161338260Y-110225840D03*
X161338260Y-109728000D03*
X161338260Y-109230160D03*
X161338260Y-108729780D03*
X161338260Y-108229400D03*
D20*
X160248600Y-107139740D03*
X159748220Y-107139740D03*
X159247840Y-107139740D03*
X158750000Y-107139740D03*
X158252160Y-107139740D03*
X157751780Y-107139740D03*
X157251400Y-107139740D03*
D21*
X158750000Y-109728000D03*
D22*
X158650940Y-104200960D03*
X158650940Y-103251000D03*
X158650940Y-102301040D03*
X156055060Y-102301040D03*
X156055060Y-104200960D03*
D23*
X168826180Y-114058700D03*
D24*
X168826180Y-115757960D03*
X171025820Y-115757960D03*
X171025820Y-113858040D03*
D15*
X143510000Y-115570000D03*
X146050000Y-115570000D03*
X148590000Y-115570000D03*
D12*
X154051000Y-103362550D03*
X154051000Y-105059270D03*
X149225000Y-103235550D03*
X149225000Y-104932270D03*
D11*
X152882240Y-101670910D03*
X151185520Y-101670910D03*
D12*
X148082000Y-107696000D03*
X148082000Y-109392720D03*
D25*
X152427580Y-103286350D03*
X151779880Y-103286350D03*
X151132180Y-103286350D03*
X151132180Y-105135470D03*
X151779880Y-105135470D03*
X152427580Y-105135470D03*
D15*
X154940000Y-116840000D03*
X157480000Y-116840000D03*
X160020000Y-116840000D03*
X162560000Y-116840000D03*
X165100000Y-116840000D03*
D26*
X146050000Y-111760000D03*
D27*
X143510000Y-111760000D03*
X146050000Y-109220000D03*
X143510000Y-109220000D03*
X146050000Y-106680000D03*
X143510000Y-106680000D03*
X146050000Y-104140000D03*
X143510000Y-104140000D03*
D28*
X155794292Y-105375292D03*
X154686000Y-107569000D03*
X163322000Y-102362000D03*
X157734000Y-103251000D03*
X158750000Y-109728000D03*
X154023236Y-108656045D03*
X156631640Y-114173000D03*
X166116000Y-112776000D03*
X168573000Y-106455799D03*
X168910000Y-113030000D03*
X168656000Y-106045000D03*
X168783000Y-100076000D03*
X170503671Y-107849587D03*
X154866407Y-110035407D03*
X168387898Y-107835701D03*
X170924707Y-112789776D03*
X154940000Y-110998000D03*
X167894000Y-108585000D03*
X153016436Y-105872984D03*
X141732000Y-106299000D03*
X158661652Y-106018202D03*
X160274000Y-105791000D03*
X158328360Y-114173000D03*
X162052000Y-112776000D03*
X152079980Y-105952334D03*
X151185520Y-101670910D03*
X146050000Y-102108000D03*
D29*
X159304554Y-105666410D02*
X159328748Y-105642216D01*
X159247840Y-106383510D02*
X159304554Y-106326796D01*
X159304554Y-106326796D02*
X159304554Y-105666410D01*
X159247840Y-107139740D02*
X159247840Y-106383510D01*
X155794292Y-105375292D02*
X154904111Y-104485111D01*
X159061824Y-105375292D02*
X155794292Y-105375292D01*
X154051000Y-103413350D02*
X154051000Y-103362550D01*
X154904111Y-104266461D02*
X154051000Y-103413350D01*
X154904111Y-104485111D02*
X154904111Y-104266461D01*
X159328748Y-105642216D02*
X159061824Y-105375292D01*
X159328748Y-105642216D02*
X159247840Y-107139740D01*
X154066450Y-103378000D02*
X154051000Y-103362550D01*
X154051000Y-103362550D02*
X152503780Y-103362550D01*
X152503780Y-103362550D02*
X152427580Y-103286350D01*
X157251400Y-107139740D02*
X155115260Y-107139740D01*
X155115260Y-107139740D02*
X154686000Y-107569000D01*
X152595551Y-106515889D02*
X151507729Y-106515889D01*
X156627549Y-106515889D02*
X152595551Y-106515889D01*
X157251400Y-107139740D02*
X156627549Y-106515889D01*
X151507729Y-106515889D02*
X149924110Y-104932270D01*
X149924110Y-104932270D02*
X149225000Y-104932270D01*
X151507729Y-106515889D02*
X151236850Y-106245010D01*
X151132180Y-105135470D02*
X151132180Y-105584390D01*
X151132180Y-105584390D02*
X151236850Y-105689060D01*
X151236850Y-105689060D02*
X151236850Y-106245010D01*
X151236850Y-106245010D02*
X149924110Y-104932270D01*
D30*
X159384742Y-104200960D02*
X158650940Y-104200960D01*
X160949640Y-103251000D02*
X160334702Y-103251000D01*
X160334702Y-103251000D02*
X159384742Y-104200960D01*
X165100000Y-100965000D02*
X164100000Y-100965000D01*
X164100000Y-100965000D02*
X163658889Y-100523889D01*
X163658889Y-100523889D02*
X161483889Y-100523889D01*
X161483889Y-100523889D02*
X160959799Y-99999799D01*
X160959799Y-99999799D02*
X160020000Y-99060000D01*
D31*
X160020000Y-99060000D02*
X160020000Y-100965000D01*
X160020000Y-100965000D02*
X160909000Y-101854000D01*
X160909000Y-101473000D02*
X160909000Y-103210360D01*
X160909000Y-103210360D02*
X160949640Y-103251000D01*
X161036000Y-101854000D02*
X159686090Y-101854000D01*
X159686090Y-101854000D02*
X159266990Y-102273100D01*
X159266990Y-102273100D02*
X158623000Y-102273100D01*
X158623000Y-102273100D02*
X158650940Y-102301040D01*
X162646360Y-103251000D02*
X162646360Y-103037640D01*
X162646360Y-103037640D02*
X163322000Y-102362000D01*
X162605720Y-101473000D02*
X162605720Y-103210360D01*
X162605720Y-103210360D02*
X162646360Y-103251000D01*
D32*
X158650940Y-103251000D02*
X157734000Y-103251000D01*
D29*
X156161740Y-109230160D02*
X154597351Y-109230160D01*
X154597351Y-109230160D02*
X154023236Y-108656045D01*
D31*
X153520214Y-108313146D02*
X153680337Y-108313146D01*
X153502360Y-108331000D02*
X153520214Y-108313146D01*
X153680337Y-108313146D02*
X154023236Y-108656045D01*
X164831032Y-112703146D02*
X166043146Y-112703146D01*
X166043146Y-112703146D02*
X166116000Y-112776000D01*
D29*
X154210410Y-108722160D02*
X153502360Y-108014110D01*
X153502360Y-108014110D02*
X153502360Y-107315000D01*
X153502360Y-107315000D02*
X153553160Y-107315000D01*
D31*
X153461720Y-109220000D02*
X153670000Y-109220000D01*
X153502360Y-108331000D02*
X153502360Y-109179360D01*
X153502360Y-107315000D02*
X153502360Y-108331000D01*
D29*
X169057933Y-106455799D02*
X168573000Y-106455799D01*
X169336039Y-106455799D02*
X169057933Y-106455799D01*
X169418000Y-106537760D02*
X169336039Y-106455799D01*
D31*
X155361640Y-100965000D02*
X155361640Y-99481640D01*
X155361640Y-99481640D02*
X154940000Y-99060000D01*
X153502360Y-109179360D02*
X153461720Y-109220000D01*
X168826180Y-114058700D02*
X168826180Y-113113820D01*
X168826180Y-113113820D02*
X168910000Y-113030000D01*
X169926000Y-100116640D02*
X172212000Y-100116640D01*
D29*
X169418000Y-106537760D02*
X169148760Y-106537760D01*
X169148760Y-106537760D02*
X168656000Y-106045000D01*
D31*
X169926000Y-100116640D02*
X168823640Y-100116640D01*
X168823640Y-100116640D02*
X168783000Y-100076000D01*
X151805640Y-107315000D02*
X148463000Y-107315000D01*
X151765000Y-109220000D02*
X151765000Y-111719360D01*
X151765000Y-111719360D02*
X153202640Y-113157000D01*
X151805640Y-107315000D02*
X151805640Y-109179360D01*
X151805640Y-109179360D02*
X151765000Y-109220000D01*
X143510000Y-100330000D02*
X145103801Y-98736199D01*
X145103801Y-98736199D02*
X151246639Y-98736199D01*
X151246639Y-98736199D02*
X152882240Y-100371800D01*
X152882240Y-100371800D02*
X152882240Y-101670910D01*
D33*
X156055060Y-104200960D02*
X156055060Y-103894802D01*
X156055060Y-103894802D02*
X157058360Y-102891502D01*
X157058360Y-102891502D02*
X157058360Y-101864110D01*
X157058360Y-101864110D02*
X157058360Y-100965000D01*
X156161740Y-111226600D02*
X156161740Y-111753600D01*
X156161740Y-111753600D02*
X156724400Y-112316260D01*
X156724400Y-112316260D02*
X157224779Y-112316260D01*
X154269440Y-112141000D02*
X154924760Y-112141000D01*
X154924760Y-112141000D02*
X155839160Y-111226600D01*
X155839160Y-111226600D02*
X156161740Y-111226600D01*
X153253440Y-113157000D02*
X154269440Y-112141000D01*
X152882240Y-101670910D02*
X154128382Y-101670910D01*
X154128382Y-101670910D02*
X154950111Y-102492639D01*
X154950111Y-102492639D02*
X154950111Y-103421131D01*
X154950111Y-103421131D02*
X155729940Y-104200960D01*
X155729940Y-104200960D02*
X156055060Y-104200960D01*
D29*
X156161740Y-110726220D02*
X156161740Y-111226600D01*
D33*
X165926111Y-107160721D02*
X165872110Y-107106720D01*
X165872110Y-107106720D02*
X164973000Y-107106720D01*
X165926111Y-110522359D02*
X165872110Y-110576360D01*
X165872110Y-110576360D02*
X164973000Y-110576360D01*
D32*
X146050000Y-104140000D02*
X146050000Y-104521000D01*
X146050000Y-104521000D02*
X146288007Y-104759007D01*
X146288007Y-104759007D02*
X146983101Y-104063913D01*
X146983101Y-104063913D02*
X147524901Y-104063913D01*
X148082000Y-106546090D02*
X148082000Y-107696000D01*
X152882240Y-101670910D02*
X152882240Y-101321408D01*
X152882240Y-101321408D02*
X152178631Y-100617799D01*
X152178631Y-100617799D02*
X150192409Y-100617799D01*
X150192409Y-100617799D02*
X150029801Y-100780407D01*
X150029801Y-100780407D02*
X150029801Y-101021105D01*
X150029801Y-101021105D02*
X148919267Y-102131639D01*
X148919267Y-102131639D02*
X148058361Y-102131639D01*
X148058361Y-102131639D02*
X146899999Y-103290001D01*
X146899999Y-103290001D02*
X146050000Y-104140000D01*
D31*
X148463000Y-107315000D02*
X148082000Y-107696000D01*
D33*
X165926111Y-104496889D02*
X165926111Y-107052719D01*
X165926111Y-107052719D02*
X165872110Y-107106720D01*
X156380180Y-104200960D02*
X157054501Y-104875281D01*
X165835311Y-104406089D02*
X165926111Y-104496889D01*
X160098867Y-104406089D02*
X165835311Y-104406089D01*
X159629675Y-104875281D02*
X160098867Y-104406089D01*
X157054501Y-104875281D02*
X159629675Y-104875281D01*
X156055060Y-104200960D02*
X156380180Y-104200960D01*
D29*
X153202640Y-113157000D02*
X153253440Y-113157000D01*
D33*
X165926111Y-107160721D02*
X165926111Y-110522359D01*
D31*
X157058360Y-100965000D02*
X157058360Y-99481640D01*
X157058360Y-99481640D02*
X157480000Y-99060000D01*
D32*
X147524901Y-104063913D02*
X148082000Y-104621012D01*
X148082000Y-104621012D02*
X148082000Y-106546090D01*
D34*
X169418000Y-107835700D02*
X170489784Y-107835700D01*
X170489784Y-107835700D02*
X170503671Y-107849587D01*
D29*
X156161740Y-109728000D02*
X155173814Y-109728000D01*
X155173814Y-109728000D02*
X154866407Y-110035407D01*
X169418000Y-107835700D02*
X168387899Y-107835700D01*
X168387899Y-107835700D02*
X168387898Y-107835701D01*
D34*
X170810513Y-117779799D02*
X166039799Y-117779799D01*
X172071641Y-116518671D02*
X170810513Y-117779799D01*
X172071641Y-114684151D02*
X172071641Y-116518671D01*
X171245530Y-113858040D02*
X172071641Y-114684151D01*
X171025820Y-113858040D02*
X171245530Y-113858040D01*
X166039799Y-117779799D02*
X165100000Y-116840000D01*
X170924707Y-112789776D02*
X170924707Y-113756927D01*
X170924707Y-113756927D02*
X171025820Y-113858040D01*
D29*
X169418000Y-108483400D02*
X170395900Y-108483400D01*
X170395900Y-108483400D02*
X170457741Y-108545241D01*
X154940000Y-110998000D02*
X155282899Y-110655101D01*
X155282899Y-110655101D02*
X155282899Y-110570409D01*
X155282899Y-110570409D02*
X155627468Y-110225840D01*
X155627468Y-110225840D02*
X156161740Y-110225840D01*
X169418000Y-108483400D02*
X167995600Y-108483400D01*
X167995600Y-108483400D02*
X167894000Y-108585000D01*
D34*
X171025820Y-115757960D02*
X170806110Y-115757960D01*
X170806110Y-115757960D02*
X169925999Y-116638071D01*
X169925999Y-116638071D02*
X166772937Y-116638071D01*
X166772937Y-116638071D02*
X165708065Y-115573199D01*
X165708065Y-115573199D02*
X163826801Y-115573199D01*
X163826801Y-115573199D02*
X163499799Y-115900201D01*
X163499799Y-115900201D02*
X162560000Y-116840000D01*
X169979999Y-112743030D02*
X169979999Y-114931849D01*
X170746421Y-108833921D02*
X170746421Y-111976608D01*
X170457741Y-108545241D02*
X170746421Y-108833921D01*
X170746421Y-111976608D02*
X169979999Y-112743030D01*
X169418000Y-108483400D02*
X169479841Y-108545241D01*
X169979999Y-114931849D02*
X170806110Y-115757960D01*
D29*
X154899360Y-113157000D02*
X157560620Y-113157000D01*
X157560620Y-113157000D02*
X157751780Y-112965840D01*
X157751780Y-112965840D02*
X157751780Y-112316260D01*
X157179949Y-115026111D02*
X159161471Y-115026111D01*
X156305859Y-115900201D02*
X157179949Y-115026111D01*
X159161471Y-115026111D02*
X159748220Y-114439362D01*
X159748220Y-114439362D02*
X159748220Y-112965840D01*
X159748220Y-112965840D02*
X159748220Y-112316260D01*
X156305859Y-115900201D02*
X155879799Y-115900201D01*
X155879799Y-115900201D02*
X154940000Y-116840000D01*
X158419799Y-115900201D02*
X157480000Y-116840000D01*
X158853081Y-115900201D02*
X158419799Y-115900201D01*
X160248600Y-114504682D02*
X158853081Y-115900201D01*
X160248600Y-112316260D02*
X160248600Y-114504682D01*
X160020000Y-116840000D02*
X160020000Y-115298982D01*
X160020000Y-115298982D02*
X161297991Y-114020991D01*
X161297991Y-114020991D02*
X161297991Y-112463679D01*
X161297991Y-112463679D02*
X161338260Y-112423410D01*
X161338260Y-112423410D02*
X161338260Y-111226600D01*
X153161645Y-106018193D02*
X153016436Y-105872984D01*
X157734331Y-106018193D02*
X153161645Y-106018193D01*
X158252160Y-107139740D02*
X158252160Y-106536022D01*
X158252160Y-106536022D02*
X157734331Y-106018193D01*
X153016444Y-105872984D02*
X153016436Y-105872984D01*
X153196362Y-106052902D02*
X153016444Y-105872984D01*
X141732000Y-106299000D02*
X143510000Y-104521000D01*
X143510000Y-104521000D02*
X143510000Y-104140000D01*
X146050000Y-111760000D02*
X146050000Y-110710000D01*
X146050000Y-110710000D02*
X145764001Y-110424001D01*
X145764001Y-110424001D02*
X140904001Y-110424001D01*
X140904001Y-110424001D02*
X140639799Y-110159799D01*
X140639799Y-110159799D02*
X139700000Y-109220000D01*
X158750000Y-106106550D02*
X158661652Y-106018202D01*
X158750000Y-107139740D02*
X158750000Y-106106550D01*
D31*
X163167332Y-114427806D02*
X164803092Y-114427806D01*
X164803092Y-114427806D02*
X164831032Y-114455746D01*
X169926000Y-101813360D02*
X172212000Y-101813360D01*
X172140880Y-107835700D02*
X172140880Y-111518700D01*
X172140880Y-104152700D02*
X172140880Y-107835700D01*
X172140880Y-104152700D02*
X172140880Y-102138480D01*
D33*
X168656000Y-109371130D02*
X168511907Y-109371130D01*
X168511907Y-109371130D02*
X167453359Y-110429678D01*
D31*
X167600000Y-100965000D02*
X167600000Y-105953385D01*
X167600000Y-105953385D02*
X166897099Y-106656286D01*
X166897099Y-106656286D02*
X166897099Y-109549892D01*
X166897099Y-109549892D02*
X167615122Y-110267915D01*
X167600000Y-100965000D02*
X165695000Y-99060000D01*
X165695000Y-99060000D02*
X162560000Y-99060000D01*
X167615122Y-100980122D02*
X167600000Y-100965000D01*
X167615122Y-110267915D02*
X167759215Y-110267915D01*
X168029978Y-115757960D02*
X168826180Y-115757960D01*
X167453359Y-115181341D02*
X168029978Y-115757960D01*
X167615122Y-110267915D02*
X167453359Y-110429678D01*
X167453359Y-110429678D02*
X167453359Y-115181341D01*
D29*
X169418000Y-109133640D02*
X168893490Y-109133640D01*
X168893490Y-109133640D02*
X168656000Y-109371130D01*
D35*
X168869360Y-109133640D02*
X169317511Y-109133640D01*
D31*
X163309300Y-105410000D02*
X164973000Y-105410000D01*
D29*
X162141841Y-108458000D02*
X162141841Y-108568159D01*
X162141841Y-107630949D02*
X162141841Y-108458000D01*
X162141841Y-108458000D02*
X162141841Y-109076159D01*
X162141841Y-109076159D02*
X161987840Y-109230160D01*
X161987840Y-109230160D02*
X161338260Y-109230160D01*
X163309300Y-107162600D02*
X162610190Y-107162600D01*
X162610190Y-107162600D02*
X162141841Y-107630949D01*
X162912400Y-107162600D02*
X163309300Y-107162600D01*
D31*
X164973000Y-108879640D02*
X163337240Y-108879640D01*
X163337240Y-108879640D02*
X163309300Y-108851700D01*
D29*
X163309300Y-110604300D02*
X163309300Y-109905190D01*
X163309300Y-109905190D02*
X163132110Y-109728000D01*
X161987840Y-109728000D02*
X161338260Y-109728000D01*
X163132110Y-109728000D02*
X161987840Y-109728000D01*
X163309300Y-110604300D02*
X163309300Y-110541460D01*
X162737140Y-110604300D02*
X163309300Y-110604300D01*
X159748220Y-107139740D02*
X159748220Y-106490160D01*
X159748220Y-106490160D02*
X159758565Y-106479815D01*
X159758565Y-106479815D02*
X159758565Y-106306435D01*
X159758565Y-106306435D02*
X160274000Y-105791000D01*
D31*
X146050000Y-100330000D02*
X144456199Y-101923801D01*
X144456199Y-101923801D02*
X143500277Y-101923801D01*
X143500277Y-101923801D02*
X141293801Y-104130277D01*
X141293801Y-104130277D02*
X141293801Y-105086199D01*
X141293801Y-105086199D02*
X140639799Y-105740201D01*
X140639799Y-105740201D02*
X139700000Y-106680000D01*
D29*
X158328360Y-114173000D02*
X158328360Y-113473890D01*
X158328360Y-113473890D02*
X158750000Y-113052250D01*
X158750000Y-113052250D02*
X158750000Y-112965840D01*
X158750000Y-112965840D02*
X158750000Y-112316260D01*
D31*
X163167332Y-112731086D02*
X162096914Y-112731086D01*
X162096914Y-112731086D02*
X162052000Y-112776000D01*
X146050000Y-115570000D02*
X144456199Y-117163801D01*
X144456199Y-117163801D02*
X142563801Y-117163801D01*
X142563801Y-117163801D02*
X140639799Y-115239799D01*
X140639799Y-115239799D02*
X139700000Y-114300000D01*
X148082000Y-109392720D02*
X146222720Y-109392720D01*
X146222720Y-109392720D02*
X146050000Y-109220000D01*
D29*
X152319535Y-105538471D02*
X152319535Y-105712779D01*
X152427580Y-105430426D02*
X152319535Y-105538471D01*
X152427580Y-105135470D02*
X152427580Y-105430426D01*
X152319535Y-105712779D02*
X152079980Y-105952334D01*
X143510000Y-106680000D02*
X144714001Y-105475999D01*
X144714001Y-105475999D02*
X144714001Y-103443999D01*
X144714001Y-103443999D02*
X146050000Y-102108000D01*
X151132180Y-103286350D02*
X151132180Y-103187290D01*
X151185520Y-101670910D02*
X151185520Y-103233010D01*
X151185520Y-103233010D02*
X151132180Y-103286350D01*
X154051000Y-105059270D02*
X153351890Y-105059270D01*
X153351890Y-105059270D02*
X152825169Y-104532549D01*
X152825169Y-104532549D02*
X151933881Y-104532549D01*
X151933881Y-104532549D02*
X151779880Y-104686550D01*
X151779880Y-104686550D02*
X151779880Y-105135470D01*
X149225000Y-103235550D02*
X149924110Y-103235550D01*
X149924110Y-103235550D02*
X150577831Y-103889271D01*
X150577831Y-103889271D02*
X151625879Y-103889271D01*
X151625879Y-103889271D02*
X151779880Y-103735270D01*
X151779880Y-103735270D02*
X151779880Y-103286350D01*
D34*
G36*
X153866686Y-98341479D02*
X153673420Y-98806912D01*
X153672981Y-99310877D01*
X153865433Y-99776647D01*
X154221479Y-100133314D01*
X154549995Y-100269727D01*
X154504592Y-100336176D01*
X154478324Y-100465890D01*
X154478324Y-101464110D01*
X154501125Y-101585289D01*
X154572742Y-101696584D01*
X154682016Y-101771248D01*
X154811730Y-101797516D01*
X155216461Y-101797516D01*
X155148482Y-101897006D01*
X155122214Y-102026720D01*
X155122214Y-102575360D01*
X155145015Y-102696539D01*
X155216632Y-102807834D01*
X155325906Y-102882498D01*
X155455620Y-102908766D01*
X156654500Y-102908766D01*
X156775679Y-102885965D01*
X156886974Y-102814348D01*
X156961638Y-102705074D01*
X156987906Y-102575360D01*
X156987906Y-102026720D01*
X156965105Y-101905541D01*
X156931360Y-101853100D01*
X156931360Y-101092000D01*
X156911360Y-101092000D01*
X156911360Y-100838000D01*
X156931360Y-100838000D01*
X156931360Y-100818000D01*
X157185360Y-100818000D01*
X157185360Y-100838000D01*
X158084520Y-100838000D01*
X158243270Y-100679250D01*
X158243270Y-100460566D01*
X158318077Y-100429580D01*
X158409363Y-100168968D01*
X157480000Y-99239605D01*
X157465858Y-99253748D01*
X157286253Y-99074143D01*
X157300395Y-99060000D01*
X157286253Y-99045858D01*
X157465858Y-98866253D01*
X157480000Y-98880395D01*
X157494143Y-98866253D01*
X157673748Y-99045858D01*
X157659605Y-99060000D01*
X158588968Y-99989363D01*
X158849580Y-99898077D01*
X158918389Y-99711195D01*
X158945433Y-99776647D01*
X159293000Y-100124820D01*
X159293000Y-100964995D01*
X159292999Y-100965000D01*
X159318262Y-101092000D01*
X159344637Y-101224596D01*
X159185704Y-101330792D01*
X159172023Y-101339933D01*
X158965856Y-101546100D01*
X158623005Y-101546100D01*
X158623000Y-101546099D01*
X158400190Y-101590420D01*
X158344789Y-101601440D01*
X158207289Y-101693314D01*
X158200650Y-101693314D01*
X158243270Y-101590420D01*
X158243270Y-101250750D01*
X158084520Y-101092000D01*
X157185360Y-101092000D01*
X157185360Y-101940360D01*
X157344110Y-102099110D01*
X157718094Y-102099110D01*
X157718094Y-102575360D01*
X157719172Y-102581087D01*
X157601333Y-102580984D01*
X157355028Y-102682755D01*
X157166418Y-102871037D01*
X157064217Y-103117164D01*
X157063984Y-103383667D01*
X157102311Y-103476425D01*
X157014199Y-103388313D01*
X156780810Y-103291640D01*
X156340810Y-103291640D01*
X156182060Y-103450390D01*
X156182060Y-104073960D01*
X157130750Y-104073960D01*
X157289500Y-103915210D01*
X157289500Y-103800331D01*
X157256651Y-103721026D01*
X157354037Y-103818582D01*
X157600164Y-103920783D01*
X157719259Y-103920887D01*
X157718094Y-103926640D01*
X157718094Y-104475280D01*
X157740895Y-104596459D01*
X157812512Y-104707754D01*
X157921786Y-104782418D01*
X158051500Y-104808686D01*
X159250380Y-104808686D01*
X159371559Y-104785885D01*
X159383875Y-104777960D01*
X159384737Y-104777960D01*
X159384742Y-104777961D01*
X159605550Y-104734038D01*
X159792743Y-104608961D01*
X160331920Y-104069784D01*
X160399730Y-104083516D01*
X161499550Y-104083516D01*
X161620729Y-104060715D01*
X161732024Y-103989098D01*
X161798782Y-103891394D01*
X161857462Y-103982584D01*
X161966736Y-104057248D01*
X162096450Y-104083516D01*
X163196270Y-104083516D01*
X163317449Y-104060715D01*
X163428744Y-103989098D01*
X163503408Y-103879824D01*
X163529676Y-103750110D01*
X163529676Y-103182457D01*
X163836066Y-102876067D01*
X163993660Y-102640211D01*
X164049000Y-102362000D01*
X163993660Y-102083790D01*
X163836066Y-101847934D01*
X163600210Y-101690340D01*
X163489036Y-101668226D01*
X163489036Y-101170038D01*
X163691999Y-101373001D01*
X163879192Y-101498078D01*
X164100000Y-101542000D01*
X164281082Y-101542000D01*
X164289395Y-101586179D01*
X164361012Y-101697474D01*
X164470286Y-101772138D01*
X164600000Y-101798406D01*
X165600000Y-101798406D01*
X165721179Y-101775605D01*
X165832474Y-101703988D01*
X165907138Y-101594714D01*
X165933406Y-101465000D01*
X165933406Y-100465000D01*
X165919015Y-100388515D01*
X166711536Y-101181037D01*
X166711536Y-101465000D01*
X166738103Y-101606190D01*
X166751000Y-101626233D01*
X166751000Y-105697885D01*
X166344849Y-106104036D01*
X166175549Y-106357410D01*
X166116099Y-106656286D01*
X166116099Y-109549892D01*
X166171167Y-109826736D01*
X166175549Y-109848768D01*
X166344849Y-110102142D01*
X166672363Y-110429656D01*
X166672359Y-110429678D01*
X166672359Y-112325228D01*
X166630067Y-112261933D01*
X166557213Y-112189079D01*
X166502998Y-112152854D01*
X166321357Y-112031486D01*
X166275198Y-112022304D01*
X166043146Y-111976145D01*
X166043141Y-111976146D01*
X165572080Y-111976146D01*
X165569130Y-111971562D01*
X165459856Y-111896898D01*
X165330142Y-111870630D01*
X164331922Y-111870630D01*
X164210743Y-111893431D01*
X164099448Y-111965048D01*
X164032637Y-112062829D01*
X164028339Y-112039986D01*
X163944896Y-111910311D01*
X163817576Y-111823317D01*
X163666442Y-111792712D01*
X162668222Y-111792712D01*
X162527032Y-111819279D01*
X162397357Y-111902722D01*
X162364995Y-111950086D01*
X162096914Y-111950086D01*
X161798038Y-112009536D01*
X161765260Y-112031438D01*
X161765260Y-111687006D01*
X161787840Y-111687006D01*
X161909019Y-111664205D01*
X162020314Y-111592588D01*
X162094978Y-111483314D01*
X162121246Y-111353600D01*
X162121246Y-111099600D01*
X162112474Y-111052980D01*
X162145699Y-111004354D01*
X162176304Y-110853220D01*
X162176304Y-110599220D01*
X162152273Y-110471509D01*
X162176304Y-110352840D01*
X162176304Y-110209000D01*
X162421726Y-110209000D01*
X162421726Y-110247675D01*
X162397022Y-110264182D01*
X162292754Y-110420229D01*
X162256140Y-110604300D01*
X162292754Y-110788371D01*
X162397022Y-110944418D01*
X162421726Y-110960925D01*
X162421726Y-111103410D01*
X162448293Y-111244600D01*
X162531736Y-111374275D01*
X162659056Y-111461269D01*
X162810190Y-111491874D01*
X163808410Y-111491874D01*
X163928639Y-111469251D01*
X163935563Y-111485968D01*
X164114191Y-111664597D01*
X164347580Y-111761270D01*
X164687250Y-111761270D01*
X164846000Y-111602520D01*
X164846000Y-110703360D01*
X165100000Y-110703360D01*
X165100000Y-111602520D01*
X165258750Y-111761270D01*
X165598420Y-111761270D01*
X165831809Y-111664597D01*
X166010437Y-111485968D01*
X166107110Y-111252579D01*
X166107110Y-110862110D01*
X165948360Y-110703360D01*
X165100000Y-110703360D01*
X164846000Y-110703360D01*
X164826000Y-110703360D01*
X164826000Y-110449360D01*
X164846000Y-110449360D01*
X164846000Y-110429360D01*
X165100000Y-110429360D01*
X165100000Y-110449360D01*
X165948360Y-110449360D01*
X166107110Y-110290610D01*
X166107110Y-109900141D01*
X166010437Y-109666752D01*
X165845866Y-109502180D01*
X165860574Y-109429550D01*
X165860574Y-108329730D01*
X165834675Y-108192091D01*
X166010437Y-108016328D01*
X166107110Y-107782939D01*
X166107110Y-107392470D01*
X165948360Y-107233720D01*
X165100000Y-107233720D01*
X165100000Y-107253720D01*
X164846000Y-107253720D01*
X164846000Y-107233720D01*
X164826000Y-107233720D01*
X164826000Y-106979720D01*
X164846000Y-106979720D01*
X164846000Y-106959720D01*
X165100000Y-106959720D01*
X165100000Y-106979720D01*
X165948360Y-106979720D01*
X166107110Y-106820970D01*
X166107110Y-106430501D01*
X166010437Y-106197112D01*
X165845866Y-106032540D01*
X165860574Y-105959910D01*
X165860574Y-104860090D01*
X165834007Y-104718900D01*
X165750564Y-104589225D01*
X165623244Y-104502231D01*
X165472110Y-104471626D01*
X164473890Y-104471626D01*
X164332700Y-104498193D01*
X164203025Y-104581636D01*
X164170663Y-104629000D01*
X164070728Y-104629000D01*
X163959544Y-104553031D01*
X163808410Y-104522426D01*
X162810190Y-104522426D01*
X162669000Y-104548993D01*
X162539325Y-104632436D01*
X162452331Y-104759756D01*
X162421726Y-104910890D01*
X162421726Y-105909110D01*
X162448293Y-106050300D01*
X162531736Y-106179975D01*
X162659056Y-106266969D01*
X162752473Y-106285886D01*
X162669000Y-106301593D01*
X162539325Y-106385036D01*
X162452331Y-106512356D01*
X162421726Y-106663490D01*
X162421726Y-106721149D01*
X162270072Y-106822481D01*
X161801723Y-107290831D01*
X161697455Y-107446878D01*
X161660841Y-107630949D01*
X161660841Y-107713936D01*
X160888680Y-107713936D01*
X160747490Y-107740503D01*
X160722390Y-107756655D01*
X160733459Y-107740454D01*
X160764064Y-107589320D01*
X160764064Y-106690160D01*
X160737497Y-106548970D01*
X160654054Y-106419295D01*
X160652167Y-106418005D01*
X160683521Y-106405050D01*
X160887335Y-106201592D01*
X160997774Y-105935624D01*
X160998025Y-105647639D01*
X160888050Y-105381479D01*
X160684592Y-105177665D01*
X160418624Y-105067226D01*
X160130639Y-105066975D01*
X159864479Y-105176950D01*
X159660665Y-105380408D01*
X159660556Y-105380670D01*
X159646532Y-105357010D01*
X159637177Y-105350000D01*
X159630683Y-105340282D01*
X159363759Y-105073357D01*
X159225230Y-104980795D01*
X159061824Y-104948291D01*
X159061819Y-104948292D01*
X157079514Y-104948292D01*
X157192827Y-104834978D01*
X157289500Y-104601589D01*
X157289500Y-104486710D01*
X157130750Y-104327960D01*
X156182060Y-104327960D01*
X156182060Y-104347960D01*
X155928060Y-104347960D01*
X155928060Y-104327960D01*
X155908060Y-104327960D01*
X155908060Y-104073960D01*
X155928060Y-104073960D01*
X155928060Y-103450390D01*
X155769310Y-103291640D01*
X155329310Y-103291640D01*
X155095921Y-103388313D01*
X154917293Y-103566942D01*
X154885417Y-103643898D01*
X154883516Y-103641997D01*
X154883516Y-102812640D01*
X154860715Y-102691461D01*
X154789098Y-102580166D01*
X154679824Y-102505502D01*
X154550110Y-102479234D01*
X153991389Y-102479234D01*
X154067150Y-102296330D01*
X154067150Y-101956660D01*
X153908400Y-101797910D01*
X153009240Y-101797910D01*
X153009240Y-102646270D01*
X153167990Y-102805020D01*
X153220027Y-102805020D01*
X153218484Y-102812640D01*
X153218484Y-102935550D01*
X152891676Y-102935550D01*
X152888045Y-102916251D01*
X152816428Y-102804956D01*
X152707154Y-102730292D01*
X152677270Y-102724240D01*
X152755240Y-102646270D01*
X152755240Y-101797910D01*
X152735240Y-101797910D01*
X152735240Y-101543910D01*
X152755240Y-101543910D01*
X152755240Y-100695550D01*
X153009240Y-100695550D01*
X153009240Y-101543910D01*
X153908400Y-101543910D01*
X154067150Y-101385160D01*
X154067150Y-101045490D01*
X153970477Y-100812101D01*
X153791848Y-100633473D01*
X153558459Y-100536800D01*
X153167990Y-100536800D01*
X153009240Y-100695550D01*
X152755240Y-100695550D01*
X152596490Y-100536800D01*
X152206021Y-100536800D01*
X151972632Y-100633473D01*
X151808060Y-100798044D01*
X151735430Y-100783336D01*
X150635610Y-100783336D01*
X150494420Y-100809903D01*
X150364745Y-100893346D01*
X150277751Y-101020666D01*
X150247146Y-101171800D01*
X150247146Y-102170020D01*
X150273713Y-102311210D01*
X150357156Y-102440885D01*
X150484476Y-102527879D01*
X150635610Y-102558484D01*
X150704520Y-102558484D01*
X150704520Y-102769126D01*
X150624461Y-102886296D01*
X150593856Y-103037430D01*
X150593856Y-103225060D01*
X150264228Y-102895432D01*
X150112574Y-102794099D01*
X150112574Y-102685640D01*
X150086007Y-102544450D01*
X150002564Y-102414775D01*
X149875244Y-102327781D01*
X149724110Y-102297176D01*
X148725890Y-102297176D01*
X148584700Y-102323743D01*
X148455025Y-102407186D01*
X148368031Y-102534506D01*
X148337426Y-102685640D01*
X148337426Y-103785460D01*
X148363993Y-103926650D01*
X148447436Y-104056325D01*
X148535345Y-104116391D01*
X148493416Y-104143372D01*
X148418752Y-104252646D01*
X148392484Y-104382360D01*
X148392484Y-105482180D01*
X148415285Y-105603359D01*
X148486902Y-105714654D01*
X148596176Y-105789318D01*
X148725890Y-105815586D01*
X149724110Y-105815586D01*
X149845289Y-105792785D01*
X149956584Y-105721168D01*
X150018509Y-105630538D01*
X150780783Y-106392812D01*
X150717403Y-106456191D01*
X150620730Y-106689580D01*
X150620730Y-107029250D01*
X150779480Y-107188000D01*
X151678640Y-107188000D01*
X151678640Y-107168000D01*
X151932640Y-107168000D01*
X151932640Y-107188000D01*
X151952640Y-107188000D01*
X151952640Y-107442000D01*
X151932640Y-107442000D01*
X151932640Y-108204000D01*
X151892000Y-108244640D01*
X151892000Y-109093000D01*
X151912000Y-109093000D01*
X151912000Y-109347000D01*
X151892000Y-109347000D01*
X151892000Y-110195360D01*
X152050750Y-110354110D01*
X152441219Y-110354110D01*
X152674608Y-110257437D01*
X152853237Y-110078809D01*
X152867818Y-110043607D01*
X152911810Y-110052516D01*
X154011630Y-110052516D01*
X154132809Y-110029715D01*
X154196548Y-109988700D01*
X154196391Y-110168074D01*
X154298162Y-110414379D01*
X154437054Y-110553513D01*
X154372418Y-110618037D01*
X154270217Y-110864164D01*
X154269984Y-111130667D01*
X154371755Y-111376972D01*
X154560037Y-111565582D01*
X154806164Y-111667783D01*
X155072667Y-111668016D01*
X155143033Y-111638941D01*
X155173833Y-111713299D01*
X155352462Y-111891927D01*
X155585851Y-111988600D01*
X155875990Y-111988600D01*
X156034740Y-111829850D01*
X156034740Y-111099600D01*
X156288740Y-111099600D01*
X156288740Y-111829850D01*
X156447490Y-111988600D01*
X156489400Y-111988600D01*
X156489400Y-112030510D01*
X156648150Y-112189260D01*
X157187900Y-112189260D01*
X157187900Y-112169260D01*
X157291374Y-112169260D01*
X157291374Y-112463260D01*
X157187900Y-112463260D01*
X157187900Y-112443260D01*
X156648150Y-112443260D01*
X156489400Y-112602010D01*
X156489400Y-112730000D01*
X155782676Y-112730000D01*
X155782676Y-112657890D01*
X155759875Y-112536711D01*
X155688258Y-112425416D01*
X155578984Y-112350752D01*
X155449270Y-112324484D01*
X154349450Y-112324484D01*
X154305215Y-112332807D01*
X154290877Y-112298191D01*
X154112248Y-112119563D01*
X153878859Y-112022890D01*
X153488390Y-112022890D01*
X153329640Y-112181640D01*
X153329640Y-113030000D01*
X153349640Y-113030000D01*
X153349640Y-113284000D01*
X153329640Y-113284000D01*
X153329640Y-114132360D01*
X153488390Y-114291110D01*
X153878859Y-114291110D01*
X154112248Y-114194437D01*
X154290877Y-114015809D01*
X154305458Y-113980607D01*
X154349450Y-113989516D01*
X155449270Y-113989516D01*
X155570449Y-113966715D01*
X155681744Y-113895098D01*
X155748324Y-113797655D01*
X155748324Y-114672110D01*
X155771125Y-114793289D01*
X155842742Y-114904584D01*
X155952016Y-114979248D01*
X156081730Y-115005516D01*
X156596674Y-115005516D01*
X156128989Y-115473201D01*
X155879799Y-115473201D01*
X155716393Y-115505704D01*
X155577864Y-115598266D01*
X155577862Y-115598269D01*
X155482525Y-115693606D01*
X155193088Y-115573420D01*
X154689123Y-115572981D01*
X154223353Y-115765433D01*
X153866686Y-116121479D01*
X153673420Y-116586912D01*
X153672981Y-117090877D01*
X153865433Y-117556647D01*
X154037486Y-117729000D01*
X144989070Y-117729000D01*
X145008449Y-117716051D01*
X145833888Y-116890612D01*
X146311571Y-116891029D01*
X146797196Y-116690373D01*
X147169067Y-116319150D01*
X147349409Y-115884838D01*
X147515433Y-116286647D01*
X147871479Y-116643314D01*
X148336912Y-116836580D01*
X148840877Y-116837019D01*
X149306647Y-116644567D01*
X149663314Y-116288521D01*
X149856580Y-115823088D01*
X149857019Y-115319123D01*
X149664567Y-114853353D01*
X149308521Y-114496686D01*
X148843088Y-114303420D01*
X148339123Y-114302981D01*
X147873353Y-114495433D01*
X147516686Y-114851479D01*
X147349040Y-115255212D01*
X147170373Y-114822804D01*
X146799150Y-114450933D01*
X146313876Y-114249430D01*
X145788429Y-114248971D01*
X145302804Y-114449627D01*
X144930933Y-114820850D01*
X144750591Y-115255162D01*
X144584567Y-114853353D01*
X144228521Y-114496686D01*
X143763088Y-114303420D01*
X143259123Y-114302981D01*
X142793353Y-114495433D01*
X142436686Y-114851479D01*
X142243420Y-115316912D01*
X142243053Y-115738552D01*
X141192051Y-114687551D01*
X141192049Y-114687548D01*
X141020612Y-114516111D01*
X141021029Y-114038429D01*
X140820373Y-113552804D01*
X140710511Y-113442750D01*
X152017730Y-113442750D01*
X152017730Y-113782420D01*
X152114403Y-114015809D01*
X152293032Y-114194437D01*
X152526421Y-114291110D01*
X152916890Y-114291110D01*
X153075640Y-114132360D01*
X153075640Y-113284000D01*
X152176480Y-113284000D01*
X152017730Y-113442750D01*
X140710511Y-113442750D01*
X140449150Y-113180933D01*
X140014838Y-113000591D01*
X140416647Y-112834567D01*
X140773314Y-112478521D01*
X140966580Y-112013088D01*
X140967019Y-111509123D01*
X140774567Y-111043353D01*
X140418521Y-110686686D01*
X139953088Y-110493420D01*
X139449123Y-110492981D01*
X138983353Y-110685433D01*
X138811000Y-110857486D01*
X138811000Y-110122537D01*
X138981479Y-110293314D01*
X139446912Y-110486580D01*
X139950877Y-110487019D01*
X140242609Y-110366478D01*
X140337862Y-110461731D01*
X140337864Y-110461734D01*
X140602066Y-110725936D01*
X140740595Y-110818498D01*
X140904001Y-110851002D01*
X140904006Y-110851001D01*
X142769517Y-110851001D01*
X142654676Y-110927735D01*
X142399535Y-111309582D01*
X142309941Y-111760000D01*
X142399535Y-112210418D01*
X142654676Y-112592265D01*
X143036523Y-112847406D01*
X143486941Y-112937000D01*
X143533059Y-112937000D01*
X143983477Y-112847406D01*
X144365324Y-112592265D01*
X144620465Y-112210418D01*
X144710059Y-111760000D01*
X144620465Y-111309582D01*
X144365324Y-110927735D01*
X144250483Y-110851001D01*
X144878542Y-110851001D01*
X144866594Y-110910000D01*
X144866594Y-112610000D01*
X144889395Y-112731179D01*
X144961012Y-112842474D01*
X145070286Y-112917138D01*
X145200000Y-112943406D01*
X146900000Y-112943406D01*
X147021179Y-112920605D01*
X147132474Y-112848988D01*
X147207138Y-112739714D01*
X147233406Y-112610000D01*
X147233406Y-112531580D01*
X152017730Y-112531580D01*
X152017730Y-112871250D01*
X152176480Y-113030000D01*
X153075640Y-113030000D01*
X153075640Y-112181640D01*
X152916890Y-112022890D01*
X152526421Y-112022890D01*
X152293032Y-112119563D01*
X152114403Y-112298191D01*
X152017730Y-112531580D01*
X147233406Y-112531580D01*
X147233406Y-110910000D01*
X147210605Y-110788821D01*
X147138988Y-110677526D01*
X147029714Y-110602862D01*
X146900000Y-110576594D01*
X146450464Y-110576594D01*
X146444497Y-110546594D01*
X146441067Y-110541460D01*
X146351935Y-110408065D01*
X146351932Y-110408063D01*
X146341653Y-110397784D01*
X146545200Y-110357296D01*
X146819940Y-110173720D01*
X147278842Y-110173720D01*
X147304436Y-110213495D01*
X147431756Y-110300489D01*
X147582890Y-110331094D01*
X148581110Y-110331094D01*
X148722300Y-110304527D01*
X148851975Y-110221084D01*
X148938969Y-110093764D01*
X148969574Y-109942630D01*
X148969574Y-109505750D01*
X150580090Y-109505750D01*
X150580090Y-109845420D01*
X150676763Y-110078809D01*
X150855392Y-110257437D01*
X151088781Y-110354110D01*
X151479250Y-110354110D01*
X151638000Y-110195360D01*
X151638000Y-109347000D01*
X150738840Y-109347000D01*
X150580090Y-109505750D01*
X148969574Y-109505750D01*
X148969574Y-108842810D01*
X148955743Y-108769303D01*
X149119437Y-108605608D01*
X149124004Y-108594580D01*
X150580090Y-108594580D01*
X150580090Y-108934250D01*
X150738840Y-109093000D01*
X151638000Y-109093000D01*
X151638000Y-108331000D01*
X151678640Y-108290360D01*
X151678640Y-107442000D01*
X150779480Y-107442000D01*
X150620730Y-107600750D01*
X150620730Y-107940420D01*
X150717403Y-108173809D01*
X150790775Y-108247180D01*
X150676763Y-108361191D01*
X150580090Y-108594580D01*
X149124004Y-108594580D01*
X149216110Y-108372219D01*
X149216110Y-107981750D01*
X149057360Y-107823000D01*
X148209000Y-107823000D01*
X148209000Y-107843000D01*
X147955000Y-107843000D01*
X147955000Y-107823000D01*
X147106640Y-107823000D01*
X146947890Y-107981750D01*
X146947890Y-108354528D01*
X146944565Y-108349552D01*
X146545200Y-108082704D01*
X146074117Y-107989000D01*
X146025883Y-107989000D01*
X145554800Y-108082704D01*
X145155435Y-108349552D01*
X144888587Y-108748917D01*
X144794883Y-109220000D01*
X144888587Y-109691083D01*
X145092996Y-109997001D01*
X144467004Y-109997001D01*
X144671413Y-109691083D01*
X144765117Y-109220000D01*
X144671413Y-108748917D01*
X144404565Y-108349552D01*
X144005200Y-108082704D01*
X143534117Y-107989000D01*
X143485883Y-107989000D01*
X143014800Y-108082704D01*
X142615435Y-108349552D01*
X142348587Y-108748917D01*
X142254883Y-109220000D01*
X142348587Y-109691083D01*
X142552996Y-109997001D01*
X141080871Y-109997001D01*
X140941734Y-109857864D01*
X140941731Y-109857862D01*
X140846394Y-109762525D01*
X140966580Y-109473088D01*
X140967019Y-108969123D01*
X140774567Y-108503353D01*
X140418521Y-108146686D01*
X140014788Y-107979040D01*
X140447196Y-107800373D01*
X140819067Y-107429150D01*
X141020570Y-106943876D01*
X141020990Y-106463511D01*
X141061992Y-106422509D01*
X141061984Y-106431667D01*
X141163755Y-106677972D01*
X141352037Y-106866582D01*
X141598164Y-106968783D01*
X141864667Y-106969016D01*
X142110972Y-106867245D01*
X142262116Y-106716364D01*
X142348587Y-107151083D01*
X142615435Y-107550448D01*
X143014800Y-107817296D01*
X143485883Y-107911000D01*
X143534117Y-107911000D01*
X144005200Y-107817296D01*
X144404565Y-107550448D01*
X144671413Y-107151083D01*
X144765117Y-106680000D01*
X144671413Y-106208917D01*
X144667370Y-106202867D01*
X145054120Y-105816117D01*
X145158388Y-105660069D01*
X145195001Y-105475999D01*
X145195001Y-105347562D01*
X145593947Y-105534917D01*
X145554800Y-105542704D01*
X145155435Y-105809552D01*
X144888587Y-106208917D01*
X144794883Y-106680000D01*
X144888587Y-107151083D01*
X145155435Y-107550448D01*
X145554800Y-107817296D01*
X146025883Y-107911000D01*
X146074117Y-107911000D01*
X146545200Y-107817296D01*
X146944565Y-107550448D01*
X147002052Y-107464412D01*
X147106640Y-107569000D01*
X147955000Y-107569000D01*
X147955000Y-106669840D01*
X148209000Y-106669840D01*
X148209000Y-107569000D01*
X149057360Y-107569000D01*
X149216110Y-107410250D01*
X149216110Y-107019781D01*
X149119437Y-106786392D01*
X148940809Y-106607763D01*
X148707420Y-106511090D01*
X148367750Y-106511090D01*
X148209000Y-106669840D01*
X147955000Y-106669840D01*
X147796250Y-106511090D01*
X147456580Y-106511090D01*
X147285606Y-106581910D01*
X147211413Y-106208917D01*
X146944565Y-105809552D01*
X146545200Y-105542704D01*
X146506053Y-105534917D01*
X146931358Y-105335183D01*
X147321645Y-104906924D01*
X147491476Y-104496890D01*
X147370155Y-104267000D01*
X146177000Y-104267000D01*
X146177000Y-104287000D01*
X145923000Y-104287000D01*
X145923000Y-104267000D01*
X145903000Y-104267000D01*
X145903000Y-104013000D01*
X145923000Y-104013000D01*
X145923000Y-103993000D01*
X146177000Y-103993000D01*
X146177000Y-104013000D01*
X147370155Y-104013000D01*
X147491476Y-103783110D01*
X147321645Y-103373076D01*
X146931358Y-102944817D01*
X146458184Y-102722602D01*
X146459521Y-102722050D01*
X146663335Y-102518592D01*
X146773774Y-102252624D01*
X146774025Y-101964639D01*
X146664050Y-101698479D01*
X146527584Y-101561774D01*
X146797196Y-101450373D01*
X147169067Y-101079150D01*
X147349409Y-100644838D01*
X147515433Y-101046647D01*
X147871479Y-101403314D01*
X148336912Y-101596580D01*
X148840877Y-101597019D01*
X149306647Y-101404567D01*
X149663314Y-101048521D01*
X149856580Y-100583088D01*
X149857019Y-100079123D01*
X149664567Y-99613353D01*
X149308521Y-99256686D01*
X148843088Y-99063420D01*
X148339123Y-99062981D01*
X147873353Y-99255433D01*
X147516686Y-99611479D01*
X147349040Y-100015212D01*
X147170373Y-99582804D01*
X146799150Y-99210933D01*
X146313876Y-99009430D01*
X145788429Y-99008971D01*
X145302804Y-99209627D01*
X144930933Y-99580850D01*
X144923665Y-99598354D01*
X144879580Y-99491923D01*
X144618968Y-99400637D01*
X143689605Y-100330000D01*
X143703748Y-100344143D01*
X143524143Y-100523748D01*
X143510000Y-100509605D01*
X142580637Y-101438968D01*
X142658453Y-101661124D01*
X140851483Y-103468095D01*
X140820373Y-103392804D01*
X140449150Y-103020933D01*
X140014838Y-102840591D01*
X140416647Y-102674567D01*
X140773314Y-102318521D01*
X140966580Y-101853088D01*
X140967019Y-101349123D01*
X140774567Y-100883353D01*
X140418521Y-100526686D01*
X139953088Y-100333420D01*
X139449123Y-100332981D01*
X138983353Y-100525433D01*
X138811000Y-100697486D01*
X138811000Y-100079833D01*
X141923955Y-100079833D01*
X141948951Y-100705828D01*
X142140420Y-101168077D01*
X142401032Y-101259363D01*
X143330395Y-100330000D01*
X142401032Y-99400637D01*
X142140420Y-99491923D01*
X141923955Y-100079833D01*
X138811000Y-100079833D01*
X138811000Y-99221032D01*
X142580637Y-99221032D01*
X143510000Y-100150395D01*
X144439363Y-99221032D01*
X144348077Y-98960420D01*
X143760167Y-98743955D01*
X143134172Y-98768951D01*
X142671923Y-98960420D01*
X142580637Y-99221032D01*
X138811000Y-99221032D01*
X138811000Y-98171000D01*
X154037463Y-98171000D01*
X153866686Y-98341479D01*
X153866686Y-98341479D01*
G37*
X153866686Y-98341479D02*
X153673420Y-98806912D01*
X153672981Y-99310877D01*
X153865433Y-99776647D01*
X154221479Y-100133314D01*
X154549995Y-100269727D01*
X154504592Y-100336176D01*
X154478324Y-100465890D01*
X154478324Y-101464110D01*
X154501125Y-101585289D01*
X154572742Y-101696584D01*
X154682016Y-101771248D01*
X154811730Y-101797516D01*
X155216461Y-101797516D01*
X155148482Y-101897006D01*
X155122214Y-102026720D01*
X155122214Y-102575360D01*
X155145015Y-102696539D01*
X155216632Y-102807834D01*
X155325906Y-102882498D01*
X155455620Y-102908766D01*
X156654500Y-102908766D01*
X156775679Y-102885965D01*
X156886974Y-102814348D01*
X156961638Y-102705074D01*
X156987906Y-102575360D01*
X156987906Y-102026720D01*
X156965105Y-101905541D01*
X156931360Y-101853100D01*
X156931360Y-101092000D01*
X156911360Y-101092000D01*
X156911360Y-100838000D01*
X156931360Y-100838000D01*
X156931360Y-100818000D01*
X157185360Y-100818000D01*
X157185360Y-100838000D01*
X158084520Y-100838000D01*
X158243270Y-100679250D01*
X158243270Y-100460566D01*
X158318077Y-100429580D01*
X158409363Y-100168968D01*
X157480000Y-99239605D01*
X157465858Y-99253748D01*
X157286253Y-99074143D01*
X157300395Y-99060000D01*
X157286253Y-99045858D01*
X157465858Y-98866253D01*
X157480000Y-98880395D01*
X157494143Y-98866253D01*
X157673748Y-99045858D01*
X157659605Y-99060000D01*
X158588968Y-99989363D01*
X158849580Y-99898077D01*
X158918389Y-99711195D01*
X158945433Y-99776647D01*
X159293000Y-100124820D01*
X159293000Y-100964995D01*
X159292999Y-100965000D01*
X159318262Y-101092000D01*
X159344637Y-101224596D01*
X159185704Y-101330792D01*
X159172023Y-101339933D01*
X158965856Y-101546100D01*
X158623005Y-101546100D01*
X158623000Y-101546099D01*
X158400190Y-101590420D01*
X158344789Y-101601440D01*
X158207289Y-101693314D01*
X158200650Y-101693314D01*
X158243270Y-101590420D01*
X158243270Y-101250750D01*
X158084520Y-101092000D01*
X157185360Y-101092000D01*
X157185360Y-101940360D01*
X157344110Y-102099110D01*
X157718094Y-102099110D01*
X157718094Y-102575360D01*
X157719172Y-102581087D01*
X157601333Y-102580984D01*
X157355028Y-102682755D01*
X157166418Y-102871037D01*
X157064217Y-103117164D01*
X157063984Y-103383667D01*
X157102311Y-103476425D01*
X157014199Y-103388313D01*
X156780810Y-103291640D01*
X156340810Y-103291640D01*
X156182060Y-103450390D01*
X156182060Y-104073960D01*
X157130750Y-104073960D01*
X157289500Y-103915210D01*
X157289500Y-103800331D01*
X157256651Y-103721026D01*
X157354037Y-103818582D01*
X157600164Y-103920783D01*
X157719259Y-103920887D01*
X157718094Y-103926640D01*
X157718094Y-104475280D01*
X157740895Y-104596459D01*
X157812512Y-104707754D01*
X157921786Y-104782418D01*
X158051500Y-104808686D01*
X159250380Y-104808686D01*
X159371559Y-104785885D01*
X159383875Y-104777960D01*
X159384737Y-104777960D01*
X159384742Y-104777961D01*
X159605550Y-104734038D01*
X159792743Y-104608961D01*
X160331920Y-104069784D01*
X160399730Y-104083516D01*
X161499550Y-104083516D01*
X161620729Y-104060715D01*
X161732024Y-103989098D01*
X161798782Y-103891394D01*
X161857462Y-103982584D01*
X161966736Y-104057248D01*
X162096450Y-104083516D01*
X163196270Y-104083516D01*
X163317449Y-104060715D01*
X163428744Y-103989098D01*
X163503408Y-103879824D01*
X163529676Y-103750110D01*
X163529676Y-103182457D01*
X163836066Y-102876067D01*
X163993660Y-102640211D01*
X164049000Y-102362000D01*
X163993660Y-102083790D01*
X163836066Y-101847934D01*
X163600210Y-101690340D01*
X163489036Y-101668226D01*
X163489036Y-101170038D01*
X163691999Y-101373001D01*
X163879192Y-101498078D01*
X164100000Y-101542000D01*
X164281082Y-101542000D01*
X164289395Y-101586179D01*
X164361012Y-101697474D01*
X164470286Y-101772138D01*
X164600000Y-101798406D01*
X165600000Y-101798406D01*
X165721179Y-101775605D01*
X165832474Y-101703988D01*
X165907138Y-101594714D01*
X165933406Y-101465000D01*
X165933406Y-100465000D01*
X165919015Y-100388515D01*
X166711536Y-101181037D01*
X166711536Y-101465000D01*
X166738103Y-101606190D01*
X166751000Y-101626233D01*
X166751000Y-105697885D01*
X166344849Y-106104036D01*
X166175549Y-106357410D01*
X166116099Y-106656286D01*
X166116099Y-109549892D01*
X166171167Y-109826736D01*
X166175549Y-109848768D01*
X166344849Y-110102142D01*
X166672363Y-110429656D01*
X166672359Y-110429678D01*
X166672359Y-112325228D01*
X166630067Y-112261933D01*
X166557213Y-112189079D01*
X166502998Y-112152854D01*
X166321357Y-112031486D01*
X166275198Y-112022304D01*
X166043146Y-111976145D01*
X166043141Y-111976146D01*
X165572080Y-111976146D01*
X165569130Y-111971562D01*
X165459856Y-111896898D01*
X165330142Y-111870630D01*
X164331922Y-111870630D01*
X164210743Y-111893431D01*
X164099448Y-111965048D01*
X164032637Y-112062829D01*
X164028339Y-112039986D01*
X163944896Y-111910311D01*
X163817576Y-111823317D01*
X163666442Y-111792712D01*
X162668222Y-111792712D01*
X162527032Y-111819279D01*
X162397357Y-111902722D01*
X162364995Y-111950086D01*
X162096914Y-111950086D01*
X161798038Y-112009536D01*
X161765260Y-112031438D01*
X161765260Y-111687006D01*
X161787840Y-111687006D01*
X161909019Y-111664205D01*
X162020314Y-111592588D01*
X162094978Y-111483314D01*
X162121246Y-111353600D01*
X162121246Y-111099600D01*
X162112474Y-111052980D01*
X162145699Y-111004354D01*
X162176304Y-110853220D01*
X162176304Y-110599220D01*
X162152273Y-110471509D01*
X162176304Y-110352840D01*
X162176304Y-110209000D01*
X162421726Y-110209000D01*
X162421726Y-110247675D01*
X162397022Y-110264182D01*
X162292754Y-110420229D01*
X162256140Y-110604300D01*
X162292754Y-110788371D01*
X162397022Y-110944418D01*
X162421726Y-110960925D01*
X162421726Y-111103410D01*
X162448293Y-111244600D01*
X162531736Y-111374275D01*
X162659056Y-111461269D01*
X162810190Y-111491874D01*
X163808410Y-111491874D01*
X163928639Y-111469251D01*
X163935563Y-111485968D01*
X164114191Y-111664597D01*
X164347580Y-111761270D01*
X164687250Y-111761270D01*
X164846000Y-111602520D01*
X164846000Y-110703360D01*
X165100000Y-110703360D01*
X165100000Y-111602520D01*
X165258750Y-111761270D01*
X165598420Y-111761270D01*
X165831809Y-111664597D01*
X166010437Y-111485968D01*
X166107110Y-111252579D01*
X166107110Y-110862110D01*
X165948360Y-110703360D01*
X165100000Y-110703360D01*
X164846000Y-110703360D01*
X164826000Y-110703360D01*
X164826000Y-110449360D01*
X164846000Y-110449360D01*
X164846000Y-110429360D01*
X165100000Y-110429360D01*
X165100000Y-110449360D01*
X165948360Y-110449360D01*
X166107110Y-110290610D01*
X166107110Y-109900141D01*
X166010437Y-109666752D01*
X165845866Y-109502180D01*
X165860574Y-109429550D01*
X165860574Y-108329730D01*
X165834675Y-108192091D01*
X166010437Y-108016328D01*
X166107110Y-107782939D01*
X166107110Y-107392470D01*
X165948360Y-107233720D01*
X165100000Y-107233720D01*
X165100000Y-107253720D01*
X164846000Y-107253720D01*
X164846000Y-107233720D01*
X164826000Y-107233720D01*
X164826000Y-106979720D01*
X164846000Y-106979720D01*
X164846000Y-106959720D01*
X165100000Y-106959720D01*
X165100000Y-106979720D01*
X165948360Y-106979720D01*
X166107110Y-106820970D01*
X166107110Y-106430501D01*
X166010437Y-106197112D01*
X165845866Y-106032540D01*
X165860574Y-105959910D01*
X165860574Y-104860090D01*
X165834007Y-104718900D01*
X165750564Y-104589225D01*
X165623244Y-104502231D01*
X165472110Y-104471626D01*
X164473890Y-104471626D01*
X164332700Y-104498193D01*
X164203025Y-104581636D01*
X164170663Y-104629000D01*
X164070728Y-104629000D01*
X163959544Y-104553031D01*
X163808410Y-104522426D01*
X162810190Y-104522426D01*
X162669000Y-104548993D01*
X162539325Y-104632436D01*
X162452331Y-104759756D01*
X162421726Y-104910890D01*
X162421726Y-105909110D01*
X162448293Y-106050300D01*
X162531736Y-106179975D01*
X162659056Y-106266969D01*
X162752473Y-106285886D01*
X162669000Y-106301593D01*
X162539325Y-106385036D01*
X162452331Y-106512356D01*
X162421726Y-106663490D01*
X162421726Y-106721149D01*
X162270072Y-106822481D01*
X161801723Y-107290831D01*
X161697455Y-107446878D01*
X161660841Y-107630949D01*
X161660841Y-107713936D01*
X160888680Y-107713936D01*
X160747490Y-107740503D01*
X160722390Y-107756655D01*
X160733459Y-107740454D01*
X160764064Y-107589320D01*
X160764064Y-106690160D01*
X160737497Y-106548970D01*
X160654054Y-106419295D01*
X160652167Y-106418005D01*
X160683521Y-106405050D01*
X160887335Y-106201592D01*
X160997774Y-105935624D01*
X160998025Y-105647639D01*
X160888050Y-105381479D01*
X160684592Y-105177665D01*
X160418624Y-105067226D01*
X160130639Y-105066975D01*
X159864479Y-105176950D01*
X159660665Y-105380408D01*
X159660556Y-105380670D01*
X159646532Y-105357010D01*
X159637177Y-105350000D01*
X159630683Y-105340282D01*
X159363759Y-105073357D01*
X159225230Y-104980795D01*
X159061824Y-104948291D01*
X159061819Y-104948292D01*
X157079514Y-104948292D01*
X157192827Y-104834978D01*
X157289500Y-104601589D01*
X157289500Y-104486710D01*
X157130750Y-104327960D01*
X156182060Y-104327960D01*
X156182060Y-104347960D01*
X155928060Y-104347960D01*
X155928060Y-104327960D01*
X155908060Y-104327960D01*
X155908060Y-104073960D01*
X155928060Y-104073960D01*
X155928060Y-103450390D01*
X155769310Y-103291640D01*
X155329310Y-103291640D01*
X155095921Y-103388313D01*
X154917293Y-103566942D01*
X154885417Y-103643898D01*
X154883516Y-103641997D01*
X154883516Y-102812640D01*
X154860715Y-102691461D01*
X154789098Y-102580166D01*
X154679824Y-102505502D01*
X154550110Y-102479234D01*
X153991389Y-102479234D01*
X154067150Y-102296330D01*
X154067150Y-101956660D01*
X153908400Y-101797910D01*
X153009240Y-101797910D01*
X153009240Y-102646270D01*
X153167990Y-102805020D01*
X153220027Y-102805020D01*
X153218484Y-102812640D01*
X153218484Y-102935550D01*
X152891676Y-102935550D01*
X152888045Y-102916251D01*
X152816428Y-102804956D01*
X152707154Y-102730292D01*
X152677270Y-102724240D01*
X152755240Y-102646270D01*
X152755240Y-101797910D01*
X152735240Y-101797910D01*
X152735240Y-101543910D01*
X152755240Y-101543910D01*
X152755240Y-100695550D01*
X153009240Y-100695550D01*
X153009240Y-101543910D01*
X153908400Y-101543910D01*
X154067150Y-101385160D01*
X154067150Y-101045490D01*
X153970477Y-100812101D01*
X153791848Y-100633473D01*
X153558459Y-100536800D01*
X153167990Y-100536800D01*
X153009240Y-100695550D01*
X152755240Y-100695550D01*
X152596490Y-100536800D01*
X152206021Y-100536800D01*
X151972632Y-100633473D01*
X151808060Y-100798044D01*
X151735430Y-100783336D01*
X150635610Y-100783336D01*
X150494420Y-100809903D01*
X150364745Y-100893346D01*
X150277751Y-101020666D01*
X150247146Y-101171800D01*
X150247146Y-102170020D01*
X150273713Y-102311210D01*
X150357156Y-102440885D01*
X150484476Y-102527879D01*
X150635610Y-102558484D01*
X150704520Y-102558484D01*
X150704520Y-102769126D01*
X150624461Y-102886296D01*
X150593856Y-103037430D01*
X150593856Y-103225060D01*
X150264228Y-102895432D01*
X150112574Y-102794099D01*
X150112574Y-102685640D01*
X150086007Y-102544450D01*
X150002564Y-102414775D01*
X149875244Y-102327781D01*
X149724110Y-102297176D01*
X148725890Y-102297176D01*
X148584700Y-102323743D01*
X148455025Y-102407186D01*
X148368031Y-102534506D01*
X148337426Y-102685640D01*
X148337426Y-103785460D01*
X148363993Y-103926650D01*
X148447436Y-104056325D01*
X148535345Y-104116391D01*
X148493416Y-104143372D01*
X148418752Y-104252646D01*
X148392484Y-104382360D01*
X148392484Y-105482180D01*
X148415285Y-105603359D01*
X148486902Y-105714654D01*
X148596176Y-105789318D01*
X148725890Y-105815586D01*
X149724110Y-105815586D01*
X149845289Y-105792785D01*
X149956584Y-105721168D01*
X150018509Y-105630538D01*
X150780783Y-106392812D01*
X150717403Y-106456191D01*
X150620730Y-106689580D01*
X150620730Y-107029250D01*
X150779480Y-107188000D01*
X151678640Y-107188000D01*
X151678640Y-107168000D01*
X151932640Y-107168000D01*
X151932640Y-107188000D01*
X151952640Y-107188000D01*
X151952640Y-107442000D01*
X151932640Y-107442000D01*
X151932640Y-108204000D01*
X151892000Y-108244640D01*
X151892000Y-109093000D01*
X151912000Y-109093000D01*
X151912000Y-109347000D01*
X151892000Y-109347000D01*
X151892000Y-110195360D01*
X152050750Y-110354110D01*
X152441219Y-110354110D01*
X152674608Y-110257437D01*
X152853237Y-110078809D01*
X152867818Y-110043607D01*
X152911810Y-110052516D01*
X154011630Y-110052516D01*
X154132809Y-110029715D01*
X154196548Y-109988700D01*
X154196391Y-110168074D01*
X154298162Y-110414379D01*
X154437054Y-110553513D01*
X154372418Y-110618037D01*
X154270217Y-110864164D01*
X154269984Y-111130667D01*
X154371755Y-111376972D01*
X154560037Y-111565582D01*
X154806164Y-111667783D01*
X155072667Y-111668016D01*
X155143033Y-111638941D01*
X155173833Y-111713299D01*
X155352462Y-111891927D01*
X155585851Y-111988600D01*
X155875990Y-111988600D01*
X156034740Y-111829850D01*
X156034740Y-111099600D01*
X156288740Y-111099600D01*
X156288740Y-111829850D01*
X156447490Y-111988600D01*
X156489400Y-111988600D01*
X156489400Y-112030510D01*
X156648150Y-112189260D01*
X157187900Y-112189260D01*
X157187900Y-112169260D01*
X157291374Y-112169260D01*
X157291374Y-112463260D01*
X157187900Y-112463260D01*
X157187900Y-112443260D01*
X156648150Y-112443260D01*
X156489400Y-112602010D01*
X156489400Y-112730000D01*
X155782676Y-112730000D01*
X155782676Y-112657890D01*
X155759875Y-112536711D01*
X155688258Y-112425416D01*
X155578984Y-112350752D01*
X155449270Y-112324484D01*
X154349450Y-112324484D01*
X154305215Y-112332807D01*
X154290877Y-112298191D01*
X154112248Y-112119563D01*
X153878859Y-112022890D01*
X153488390Y-112022890D01*
X153329640Y-112181640D01*
X153329640Y-113030000D01*
X153349640Y-113030000D01*
X153349640Y-113284000D01*
X153329640Y-113284000D01*
X153329640Y-114132360D01*
X153488390Y-114291110D01*
X153878859Y-114291110D01*
X154112248Y-114194437D01*
X154290877Y-114015809D01*
X154305458Y-113980607D01*
X154349450Y-113989516D01*
X155449270Y-113989516D01*
X155570449Y-113966715D01*
X155681744Y-113895098D01*
X155748324Y-113797655D01*
X155748324Y-114672110D01*
X155771125Y-114793289D01*
X155842742Y-114904584D01*
X155952016Y-114979248D01*
X156081730Y-115005516D01*
X156596674Y-115005516D01*
X156128989Y-115473201D01*
X155879799Y-115473201D01*
X155716393Y-115505704D01*
X155577864Y-115598266D01*
X155577862Y-115598269D01*
X155482525Y-115693606D01*
X155193088Y-115573420D01*
X154689123Y-115572981D01*
X154223353Y-115765433D01*
X153866686Y-116121479D01*
X153673420Y-116586912D01*
X153672981Y-117090877D01*
X153865433Y-117556647D01*
X154037486Y-117729000D01*
X144989070Y-117729000D01*
X145008449Y-117716051D01*
X145833888Y-116890612D01*
X146311571Y-116891029D01*
X146797196Y-116690373D01*
X147169067Y-116319150D01*
X147349409Y-115884838D01*
X147515433Y-116286647D01*
X147871479Y-116643314D01*
X148336912Y-116836580D01*
X148840877Y-116837019D01*
X149306647Y-116644567D01*
X149663314Y-116288521D01*
X149856580Y-115823088D01*
X149857019Y-115319123D01*
X149664567Y-114853353D01*
X149308521Y-114496686D01*
X148843088Y-114303420D01*
X148339123Y-114302981D01*
X147873353Y-114495433D01*
X147516686Y-114851479D01*
X147349040Y-115255212D01*
X147170373Y-114822804D01*
X146799150Y-114450933D01*
X146313876Y-114249430D01*
X145788429Y-114248971D01*
X145302804Y-114449627D01*
X144930933Y-114820850D01*
X144750591Y-115255162D01*
X144584567Y-114853353D01*
X144228521Y-114496686D01*
X143763088Y-114303420D01*
X143259123Y-114302981D01*
X142793353Y-114495433D01*
X142436686Y-114851479D01*
X142243420Y-115316912D01*
X142243053Y-115738552D01*
X141192051Y-114687551D01*
X141192049Y-114687548D01*
X141020612Y-114516111D01*
X141021029Y-114038429D01*
X140820373Y-113552804D01*
X140710511Y-113442750D01*
X152017730Y-113442750D01*
X152017730Y-113782420D01*
X152114403Y-114015809D01*
X152293032Y-114194437D01*
X152526421Y-114291110D01*
X152916890Y-114291110D01*
X153075640Y-114132360D01*
X153075640Y-113284000D01*
X152176480Y-113284000D01*
X152017730Y-113442750D01*
X140710511Y-113442750D01*
X140449150Y-113180933D01*
X140014838Y-113000591D01*
X140416647Y-112834567D01*
X140773314Y-112478521D01*
X140966580Y-112013088D01*
X140967019Y-111509123D01*
X140774567Y-111043353D01*
X140418521Y-110686686D01*
X139953088Y-110493420D01*
X139449123Y-110492981D01*
X138983353Y-110685433D01*
X138811000Y-110857486D01*
X138811000Y-110122537D01*
X138981479Y-110293314D01*
X139446912Y-110486580D01*
X139950877Y-110487019D01*
X140242609Y-110366478D01*
X140337862Y-110461731D01*
X140337864Y-110461734D01*
X140602066Y-110725936D01*
X140740595Y-110818498D01*
X140904001Y-110851002D01*
X140904006Y-110851001D01*
X142769517Y-110851001D01*
X142654676Y-110927735D01*
X142399535Y-111309582D01*
X142309941Y-111760000D01*
X142399535Y-112210418D01*
X142654676Y-112592265D01*
X143036523Y-112847406D01*
X143486941Y-112937000D01*
X143533059Y-112937000D01*
X143983477Y-112847406D01*
X144365324Y-112592265D01*
X144620465Y-112210418D01*
X144710059Y-111760000D01*
X144620465Y-111309582D01*
X144365324Y-110927735D01*
X144250483Y-110851001D01*
X144878542Y-110851001D01*
X144866594Y-110910000D01*
X144866594Y-112610000D01*
X144889395Y-112731179D01*
X144961012Y-112842474D01*
X145070286Y-112917138D01*
X145200000Y-112943406D01*
X146900000Y-112943406D01*
X147021179Y-112920605D01*
X147132474Y-112848988D01*
X147207138Y-112739714D01*
X147233406Y-112610000D01*
X147233406Y-112531580D01*
X152017730Y-112531580D01*
X152017730Y-112871250D01*
X152176480Y-113030000D01*
X153075640Y-113030000D01*
X153075640Y-112181640D01*
X152916890Y-112022890D01*
X152526421Y-112022890D01*
X152293032Y-112119563D01*
X152114403Y-112298191D01*
X152017730Y-112531580D01*
X147233406Y-112531580D01*
X147233406Y-110910000D01*
X147210605Y-110788821D01*
X147138988Y-110677526D01*
X147029714Y-110602862D01*
X146900000Y-110576594D01*
X146450464Y-110576594D01*
X146444497Y-110546594D01*
X146441067Y-110541460D01*
X146351935Y-110408065D01*
X146351932Y-110408063D01*
X146341653Y-110397784D01*
X146545200Y-110357296D01*
X146819940Y-110173720D01*
X147278842Y-110173720D01*
X147304436Y-110213495D01*
X147431756Y-110300489D01*
X147582890Y-110331094D01*
X148581110Y-110331094D01*
X148722300Y-110304527D01*
X148851975Y-110221084D01*
X148938969Y-110093764D01*
X148969574Y-109942630D01*
X148969574Y-109505750D01*
X150580090Y-109505750D01*
X150580090Y-109845420D01*
X150676763Y-110078809D01*
X150855392Y-110257437D01*
X151088781Y-110354110D01*
X151479250Y-110354110D01*
X151638000Y-110195360D01*
X151638000Y-109347000D01*
X150738840Y-109347000D01*
X150580090Y-109505750D01*
X148969574Y-109505750D01*
X148969574Y-108842810D01*
X148955743Y-108769303D01*
X149119437Y-108605608D01*
X149124004Y-108594580D01*
X150580090Y-108594580D01*
X150580090Y-108934250D01*
X150738840Y-109093000D01*
X151638000Y-109093000D01*
X151638000Y-108331000D01*
X151678640Y-108290360D01*
X151678640Y-107442000D01*
X150779480Y-107442000D01*
X150620730Y-107600750D01*
X150620730Y-107940420D01*
X150717403Y-108173809D01*
X150790775Y-108247180D01*
X150676763Y-108361191D01*
X150580090Y-108594580D01*
X149124004Y-108594580D01*
X149216110Y-108372219D01*
X149216110Y-107981750D01*
X149057360Y-107823000D01*
X148209000Y-107823000D01*
X148209000Y-107843000D01*
X147955000Y-107843000D01*
X147955000Y-107823000D01*
X147106640Y-107823000D01*
X146947890Y-107981750D01*
X146947890Y-108354528D01*
X146944565Y-108349552D01*
X146545200Y-108082704D01*
X146074117Y-107989000D01*
X146025883Y-107989000D01*
X145554800Y-108082704D01*
X145155435Y-108349552D01*
X144888587Y-108748917D01*
X144794883Y-109220000D01*
X144888587Y-109691083D01*
X145092996Y-109997001D01*
X144467004Y-109997001D01*
X144671413Y-109691083D01*
X144765117Y-109220000D01*
X144671413Y-108748917D01*
X144404565Y-108349552D01*
X144005200Y-108082704D01*
X143534117Y-107989000D01*
X143485883Y-107989000D01*
X143014800Y-108082704D01*
X142615435Y-108349552D01*
X142348587Y-108748917D01*
X142254883Y-109220000D01*
X142348587Y-109691083D01*
X142552996Y-109997001D01*
X141080871Y-109997001D01*
X140941734Y-109857864D01*
X140941731Y-109857862D01*
X140846394Y-109762525D01*
X140966580Y-109473088D01*
X140967019Y-108969123D01*
X140774567Y-108503353D01*
X140418521Y-108146686D01*
X140014788Y-107979040D01*
X140447196Y-107800373D01*
X140819067Y-107429150D01*
X141020570Y-106943876D01*
X141020990Y-106463511D01*
X141061992Y-106422509D01*
X141061984Y-106431667D01*
X141163755Y-106677972D01*
X141352037Y-106866582D01*
X141598164Y-106968783D01*
X141864667Y-106969016D01*
X142110972Y-106867245D01*
X142262116Y-106716364D01*
X142348587Y-107151083D01*
X142615435Y-107550448D01*
X143014800Y-107817296D01*
X143485883Y-107911000D01*
X143534117Y-107911000D01*
X144005200Y-107817296D01*
X144404565Y-107550448D01*
X144671413Y-107151083D01*
X144765117Y-106680000D01*
X144671413Y-106208917D01*
X144667370Y-106202867D01*
X145054120Y-105816117D01*
X145158388Y-105660069D01*
X145195001Y-105475999D01*
X145195001Y-105347562D01*
X145593947Y-105534917D01*
X145554800Y-105542704D01*
X145155435Y-105809552D01*
X144888587Y-106208917D01*
X144794883Y-106680000D01*
X144888587Y-107151083D01*
X145155435Y-107550448D01*
X145554800Y-107817296D01*
X146025883Y-107911000D01*
X146074117Y-107911000D01*
X146545200Y-107817296D01*
X146944565Y-107550448D01*
X147002052Y-107464412D01*
X147106640Y-107569000D01*
X147955000Y-107569000D01*
X147955000Y-106669840D01*
X148209000Y-106669840D01*
X148209000Y-107569000D01*
X149057360Y-107569000D01*
X149216110Y-107410250D01*
X149216110Y-107019781D01*
X149119437Y-106786392D01*
X148940809Y-106607763D01*
X148707420Y-106511090D01*
X148367750Y-106511090D01*
X148209000Y-106669840D01*
X147955000Y-106669840D01*
X147796250Y-106511090D01*
X147456580Y-106511090D01*
X147285606Y-106581910D01*
X147211413Y-106208917D01*
X146944565Y-105809552D01*
X146545200Y-105542704D01*
X146506053Y-105534917D01*
X146931358Y-105335183D01*
X147321645Y-104906924D01*
X147491476Y-104496890D01*
X147370155Y-104267000D01*
X146177000Y-104267000D01*
X146177000Y-104287000D01*
X145923000Y-104287000D01*
X145923000Y-104267000D01*
X145903000Y-104267000D01*
X145903000Y-104013000D01*
X145923000Y-104013000D01*
X145923000Y-103993000D01*
X146177000Y-103993000D01*
X146177000Y-104013000D01*
X147370155Y-104013000D01*
X147491476Y-103783110D01*
X147321645Y-103373076D01*
X146931358Y-102944817D01*
X146458184Y-102722602D01*
X146459521Y-102722050D01*
X146663335Y-102518592D01*
X146773774Y-102252624D01*
X146774025Y-101964639D01*
X146664050Y-101698479D01*
X146527584Y-101561774D01*
X146797196Y-101450373D01*
X147169067Y-101079150D01*
X147349409Y-100644838D01*
X147515433Y-101046647D01*
X147871479Y-101403314D01*
X148336912Y-101596580D01*
X148840877Y-101597019D01*
X149306647Y-101404567D01*
X149663314Y-101048521D01*
X149856580Y-100583088D01*
X149857019Y-100079123D01*
X149664567Y-99613353D01*
X149308521Y-99256686D01*
X148843088Y-99063420D01*
X148339123Y-99062981D01*
X147873353Y-99255433D01*
X147516686Y-99611479D01*
X147349040Y-100015212D01*
X147170373Y-99582804D01*
X146799150Y-99210933D01*
X146313876Y-99009430D01*
X145788429Y-99008971D01*
X145302804Y-99209627D01*
X144930933Y-99580850D01*
X144923665Y-99598354D01*
X144879580Y-99491923D01*
X144618968Y-99400637D01*
X143689605Y-100330000D01*
X143703748Y-100344143D01*
X143524143Y-100523748D01*
X143510000Y-100509605D01*
X142580637Y-101438968D01*
X142658453Y-101661124D01*
X140851483Y-103468095D01*
X140820373Y-103392804D01*
X140449150Y-103020933D01*
X140014838Y-102840591D01*
X140416647Y-102674567D01*
X140773314Y-102318521D01*
X140966580Y-101853088D01*
X140967019Y-101349123D01*
X140774567Y-100883353D01*
X140418521Y-100526686D01*
X139953088Y-100333420D01*
X139449123Y-100332981D01*
X138983353Y-100525433D01*
X138811000Y-100697486D01*
X138811000Y-100079833D01*
X141923955Y-100079833D01*
X141948951Y-100705828D01*
X142140420Y-101168077D01*
X142401032Y-101259363D01*
X143330395Y-100330000D01*
X142401032Y-99400637D01*
X142140420Y-99491923D01*
X141923955Y-100079833D01*
X138811000Y-100079833D01*
X138811000Y-99221032D01*
X142580637Y-99221032D01*
X143510000Y-100150395D01*
X144439363Y-99221032D01*
X144348077Y-98960420D01*
X143760167Y-98743955D01*
X143134172Y-98768951D01*
X142671923Y-98960420D01*
X142580637Y-99221032D01*
X138811000Y-99221032D01*
X138811000Y-98171000D01*
X154037463Y-98171000D01*
X153866686Y-98341479D01*
M02*
