%TF.GenerationSoftware,KiCad,Pcbnew,4.0.6*%
%TF.CreationDate,2017-10-08T18:55:19-04:00*%
%TF.ProjectId,USB-UART,5553422D554152542E6B696361645F70,rev?*%
%TF.FileFunction,Copper,L2,Bot,Signal*%
%FSLAX46Y46*%
G04 Gerber Fmt 4.6, Leading zero omitted, Abs format (unit mm)*
G04 Created by KiCad (PCBNEW 4.0.6) date 10/08/17 18:55:19*
%MOMM*%
%LPD*%
G01*
G04 APERTURE LIST*
%ADD10C,0.127000*%
%ADD11C,1.879600*%
%ADD12R,1.700000X1.700000*%
%ADD13O,1.700000X1.700000*%
%ADD14C,0.685800*%
%ADD15C,0.200000*%
%ADD16C,0.800000*%
%ADD17C,0.254000*%
G04 APERTURE END LIST*
D10*
D11*
X139700000Y-101600000D03*
X139700000Y-104140000D03*
X139700000Y-106680000D03*
X139700000Y-109220000D03*
X139700000Y-111760000D03*
X139700000Y-114300000D03*
X154940000Y-99060000D03*
X157480000Y-99060000D03*
X160020000Y-99060000D03*
X162560000Y-99060000D03*
X143510000Y-100330000D03*
X146050000Y-100330000D03*
X148590000Y-100330000D03*
X143510000Y-115570000D03*
X146050000Y-115570000D03*
X148590000Y-115570000D03*
X154940000Y-116840000D03*
X157480000Y-116840000D03*
X160020000Y-116840000D03*
X162560000Y-116840000D03*
X165100000Y-116840000D03*
D12*
X146050000Y-111760000D03*
D13*
X143510000Y-111760000D03*
X146050000Y-109220000D03*
X143510000Y-109220000D03*
X146050000Y-106680000D03*
X143510000Y-106680000D03*
X146050000Y-104140000D03*
X143510000Y-104140000D03*
D14*
X155794292Y-105375292D03*
X154686000Y-107569000D03*
X163322000Y-102362000D03*
X157734000Y-103251000D03*
X158750000Y-109728000D03*
X154023236Y-108656045D03*
X156631640Y-114173000D03*
X166116000Y-112776000D03*
X168573000Y-106455799D03*
X168910000Y-113030000D03*
X168656000Y-106045000D03*
X168783000Y-100076000D03*
X170503671Y-107849587D03*
X154866407Y-110035407D03*
X168387898Y-107835701D03*
X170924707Y-112789776D03*
X154940000Y-110998000D03*
X167894000Y-108585000D03*
X153016436Y-105872984D03*
X141732000Y-106299000D03*
X158661652Y-106018202D03*
X160274000Y-105791000D03*
X158328360Y-114173000D03*
X162052000Y-112776000D03*
X152079980Y-105952334D03*
X151185520Y-101670910D03*
X146050000Y-102108000D03*
D15*
X144803801Y-114276199D02*
X146893385Y-114276199D01*
X143510000Y-115570000D02*
X144803801Y-114276199D01*
X146893385Y-114276199D02*
X155794292Y-105375292D01*
X148590000Y-113180067D02*
X148590000Y-114240923D01*
X154686000Y-107569000D02*
X154201067Y-107569000D01*
X154201067Y-107569000D02*
X148590000Y-113180067D01*
X148590000Y-114240923D02*
X148590000Y-115570000D01*
D16*
X149919077Y-100330000D02*
X148590000Y-100330000D01*
X151320026Y-100330000D02*
X149919077Y-100330000D01*
X160020000Y-99060000D02*
X157887604Y-101192396D01*
X152182422Y-101192396D02*
X151320026Y-100330000D01*
X157887604Y-101192396D02*
X152182422Y-101192396D01*
D17*
X170846570Y-108192486D02*
X170503671Y-107849587D01*
X170924707Y-108270623D02*
X170846570Y-108192486D01*
X170924707Y-112789776D02*
X170924707Y-108270623D01*
D15*
X168387898Y-107835701D02*
X157066113Y-107835701D01*
X157066113Y-107835701D02*
X155209306Y-109692508D01*
X155209306Y-109692508D02*
X154866407Y-110035407D01*
X167894000Y-108585000D02*
X157353000Y-108585000D01*
X157353000Y-108585000D02*
X154940000Y-110998000D01*
X142932079Y-107884001D02*
X151490352Y-107884001D01*
X151490352Y-107884001D02*
X153016436Y-106357917D01*
X153016436Y-106357917D02*
X153016436Y-105872984D01*
X142932079Y-107884001D02*
X140639799Y-110176281D01*
X140639799Y-110176281D02*
X140639799Y-110820201D01*
X140639799Y-110820201D02*
X139700000Y-111760000D01*
X142932079Y-107884001D02*
X141732000Y-106683922D01*
X141732000Y-106683922D02*
X141732000Y-106299000D01*
X158318753Y-105675303D02*
X158661652Y-106018202D01*
X155485698Y-104732390D02*
X157375840Y-104732390D01*
X157375840Y-104732390D02*
X158318753Y-105675303D01*
X148458088Y-111760000D02*
X155485698Y-104732390D01*
X146050000Y-111760000D02*
X148458088Y-111760000D01*
X140639799Y-105079799D02*
X139700000Y-104140000D01*
X141008101Y-105448101D02*
X140639799Y-105079799D01*
X152715341Y-104278379D02*
X151545619Y-105448101D01*
X158761379Y-104278379D02*
X152715341Y-104278379D01*
X160274000Y-105791000D02*
X158761379Y-104278379D01*
X151545619Y-105448101D02*
X141008101Y-105448101D01*
D16*
X162052000Y-112776000D02*
X159725360Y-112776000D01*
X159725360Y-112776000D02*
X158328360Y-114173000D01*
D15*
X152079980Y-105952334D02*
X146777666Y-105952334D01*
X146777666Y-105952334D02*
X146050000Y-106680000D01*
X146050000Y-102108000D02*
X146487090Y-101670910D01*
X146487090Y-101670910D02*
X151185520Y-101670910D01*
D17*
G36*
X153570420Y-98221923D02*
X153353955Y-98809833D01*
X153378951Y-99435828D01*
X153570420Y-99898077D01*
X153831032Y-99989363D01*
X154760395Y-99060000D01*
X154746253Y-99045858D01*
X154925858Y-98866253D01*
X154940000Y-98880395D01*
X154954143Y-98866253D01*
X155133748Y-99045858D01*
X155119605Y-99060000D01*
X156048968Y-99989363D01*
X156309580Y-99898077D01*
X156378389Y-99711195D01*
X156405433Y-99776647D01*
X156761479Y-100133314D01*
X157226912Y-100326580D01*
X157724852Y-100327014D01*
X157586470Y-100465396D01*
X155691609Y-100465396D01*
X155778077Y-100429580D01*
X155869363Y-100168968D01*
X154940000Y-99239605D01*
X154010637Y-100168968D01*
X154101923Y-100429580D01*
X154199198Y-100465396D01*
X152483556Y-100465396D01*
X151834093Y-99815933D01*
X151821017Y-99807196D01*
X151598237Y-99658340D01*
X151552078Y-99649158D01*
X151320026Y-99602999D01*
X151320021Y-99603000D01*
X149654232Y-99603000D01*
X149308521Y-99256686D01*
X148843088Y-99063420D01*
X148339123Y-99062981D01*
X147873353Y-99255433D01*
X147516686Y-99611479D01*
X147349040Y-100015212D01*
X147170373Y-99582804D01*
X146799150Y-99210933D01*
X146313876Y-99009430D01*
X145788429Y-99008971D01*
X145302804Y-99209627D01*
X144930933Y-99580850D01*
X144750591Y-100015162D01*
X144584567Y-99613353D01*
X144228521Y-99256686D01*
X143763088Y-99063420D01*
X143259123Y-99062981D01*
X142793353Y-99255433D01*
X142436686Y-99611479D01*
X142243420Y-100076912D01*
X142242981Y-100580877D01*
X142435433Y-101046647D01*
X142791479Y-101403314D01*
X143256912Y-101596580D01*
X143760877Y-101597019D01*
X144226647Y-101404567D01*
X144583314Y-101048521D01*
X144750960Y-100644788D01*
X144929627Y-101077196D01*
X145300850Y-101449067D01*
X145572461Y-101561849D01*
X145436665Y-101697408D01*
X145326226Y-101963376D01*
X145325975Y-102251361D01*
X145435950Y-102517521D01*
X145639408Y-102721335D01*
X145905376Y-102831774D01*
X146193361Y-102832025D01*
X146459521Y-102722050D01*
X146663335Y-102518592D01*
X146773774Y-102252624D01*
X146773862Y-102151910D01*
X150642824Y-102151910D01*
X150774928Y-102284245D01*
X151040896Y-102394684D01*
X151328881Y-102394935D01*
X151595041Y-102284960D01*
X151798855Y-102081502D01*
X151892418Y-101856176D01*
X151904211Y-101864056D01*
X152182422Y-101919396D01*
X157887599Y-101919396D01*
X157887604Y-101919397D01*
X158119656Y-101873238D01*
X158165815Y-101864056D01*
X158401671Y-101706463D01*
X159781541Y-100326593D01*
X160270877Y-100327019D01*
X160736647Y-100134567D01*
X161093314Y-99778521D01*
X161260960Y-99374788D01*
X161439627Y-99807196D01*
X161810850Y-100179067D01*
X162296124Y-100380570D01*
X162821571Y-100381029D01*
X163307196Y-100180373D01*
X163679067Y-99809150D01*
X163880570Y-99323876D01*
X163881029Y-98798429D01*
X163680373Y-98312804D01*
X163538816Y-98171000D01*
X173609000Y-98171000D01*
X173609000Y-117729000D01*
X166002537Y-117729000D01*
X166173314Y-117558521D01*
X166366580Y-117093088D01*
X166367019Y-116589123D01*
X166174567Y-116123353D01*
X165818521Y-115766686D01*
X165353088Y-115573420D01*
X164849123Y-115572981D01*
X164383353Y-115765433D01*
X164026686Y-116121479D01*
X163833420Y-116586912D01*
X163832981Y-117090877D01*
X164025433Y-117556647D01*
X164197486Y-117729000D01*
X163462537Y-117729000D01*
X163633314Y-117558521D01*
X163826580Y-117093088D01*
X163827019Y-116589123D01*
X163634567Y-116123353D01*
X163278521Y-115766686D01*
X162813088Y-115573420D01*
X162309123Y-115572981D01*
X161843353Y-115765433D01*
X161486686Y-116121479D01*
X161293420Y-116586912D01*
X161292981Y-117090877D01*
X161485433Y-117556647D01*
X161657486Y-117729000D01*
X160922537Y-117729000D01*
X161093314Y-117558521D01*
X161286580Y-117093088D01*
X161287019Y-116589123D01*
X161094567Y-116123353D01*
X160738521Y-115766686D01*
X160273088Y-115573420D01*
X159769123Y-115572981D01*
X159303353Y-115765433D01*
X158946686Y-116121479D01*
X158753420Y-116586912D01*
X158752981Y-117090877D01*
X158945433Y-117556647D01*
X159117486Y-117729000D01*
X158382537Y-117729000D01*
X158553314Y-117558521D01*
X158746580Y-117093088D01*
X158747019Y-116589123D01*
X158554567Y-116123353D01*
X158198521Y-115766686D01*
X157733088Y-115573420D01*
X157229123Y-115572981D01*
X156763353Y-115765433D01*
X156406686Y-116121479D01*
X156213420Y-116586912D01*
X156212981Y-117090877D01*
X156405433Y-117556647D01*
X156577486Y-117729000D01*
X155842537Y-117729000D01*
X156013314Y-117558521D01*
X156206580Y-117093088D01*
X156207019Y-116589123D01*
X156014567Y-116123353D01*
X155658521Y-115766686D01*
X155193088Y-115573420D01*
X154689123Y-115572981D01*
X154223353Y-115765433D01*
X153866686Y-116121479D01*
X153673420Y-116586912D01*
X153672981Y-117090877D01*
X153865433Y-117556647D01*
X154037486Y-117729000D01*
X138811000Y-117729000D01*
X138811000Y-115278973D01*
X138950850Y-115419067D01*
X139436124Y-115620570D01*
X139961571Y-115621029D01*
X140447196Y-115420373D01*
X140819067Y-115049150D01*
X141020570Y-114563876D01*
X141021029Y-114038429D01*
X140820373Y-113552804D01*
X140449150Y-113180933D01*
X140014838Y-113000591D01*
X140416647Y-112834567D01*
X140773314Y-112478521D01*
X140923477Y-112116890D01*
X142068524Y-112116890D01*
X142238355Y-112526924D01*
X142628642Y-112955183D01*
X143153108Y-113201486D01*
X143383000Y-113080819D01*
X143383000Y-111887000D01*
X142189845Y-111887000D01*
X142068524Y-112116890D01*
X140923477Y-112116890D01*
X140966580Y-112013088D01*
X140967019Y-111509123D01*
X140846478Y-111217391D01*
X140941731Y-111122138D01*
X140941734Y-111122136D01*
X141034296Y-110983607D01*
X141066799Y-110820201D01*
X141066799Y-110353151D01*
X142268523Y-109151426D01*
X142254883Y-109220000D01*
X142348587Y-109691083D01*
X142615435Y-110090448D01*
X143014800Y-110357296D01*
X143053947Y-110365083D01*
X142628642Y-110564817D01*
X142238355Y-110993076D01*
X142068524Y-111403110D01*
X142189845Y-111633000D01*
X143383000Y-111633000D01*
X143383000Y-111613000D01*
X143637000Y-111613000D01*
X143637000Y-111633000D01*
X143657000Y-111633000D01*
X143657000Y-111887000D01*
X143637000Y-111887000D01*
X143637000Y-113080819D01*
X143866892Y-113201486D01*
X144391358Y-112955183D01*
X144781645Y-112526924D01*
X144866594Y-112321826D01*
X144866594Y-112610000D01*
X144889395Y-112731179D01*
X144961012Y-112842474D01*
X145070286Y-112917138D01*
X145200000Y-112943406D01*
X146900000Y-112943406D01*
X147021179Y-112920605D01*
X147132474Y-112848988D01*
X147207138Y-112739714D01*
X147233406Y-112610000D01*
X147233406Y-112187000D01*
X148378714Y-112187000D01*
X146716515Y-113849199D01*
X144803806Y-113849199D01*
X144803801Y-113849198D01*
X144640395Y-113881702D01*
X144501866Y-113974264D01*
X144052525Y-114423605D01*
X143763088Y-114303420D01*
X143259123Y-114302981D01*
X142793353Y-114495433D01*
X142436686Y-114851479D01*
X142243420Y-115316912D01*
X142242981Y-115820877D01*
X142435433Y-116286647D01*
X142791479Y-116643314D01*
X143256912Y-116836580D01*
X143760877Y-116837019D01*
X144226647Y-116644567D01*
X144583314Y-116288521D01*
X144750960Y-115884788D01*
X144929627Y-116317196D01*
X145300850Y-116689067D01*
X145786124Y-116890570D01*
X146311571Y-116891029D01*
X146797196Y-116690373D01*
X147169067Y-116319150D01*
X147349409Y-115884838D01*
X147515433Y-116286647D01*
X147871479Y-116643314D01*
X148336912Y-116836580D01*
X148840877Y-116837019D01*
X149306647Y-116644567D01*
X149663314Y-116288521D01*
X149856580Y-115823088D01*
X149857019Y-115319123D01*
X149664567Y-114853353D01*
X149308521Y-114496686D01*
X149017000Y-114375635D01*
X149017000Y-114173000D01*
X157547361Y-114173000D01*
X157606810Y-114471876D01*
X157776110Y-114725250D01*
X158029484Y-114894550D01*
X158328360Y-114953999D01*
X158627236Y-114894550D01*
X158880610Y-114725250D01*
X160048861Y-113557000D01*
X162052000Y-113557000D01*
X162350876Y-113497550D01*
X162604250Y-113328250D01*
X162773550Y-113074876D01*
X162833000Y-112776000D01*
X162773550Y-112477124D01*
X162604250Y-112223750D01*
X162350876Y-112054450D01*
X162052000Y-111995000D01*
X159725360Y-111995000D01*
X159438927Y-112051975D01*
X159426484Y-112054450D01*
X159173109Y-112223750D01*
X157776110Y-113620750D01*
X157606810Y-113874124D01*
X157547361Y-114173000D01*
X149017000Y-114173000D01*
X149017000Y-113356937D01*
X152205863Y-110168074D01*
X154196391Y-110168074D01*
X154298162Y-110414379D01*
X154437054Y-110553513D01*
X154372418Y-110618037D01*
X154270217Y-110864164D01*
X154269984Y-111130667D01*
X154371755Y-111376972D01*
X154560037Y-111565582D01*
X154806164Y-111667783D01*
X155072667Y-111668016D01*
X155318972Y-111566245D01*
X155507582Y-111377963D01*
X155609783Y-111131836D01*
X155609958Y-110931912D01*
X156646792Y-109895077D01*
X169135921Y-109895077D01*
X169258244Y-110191122D01*
X169484547Y-110417820D01*
X169780377Y-110540660D01*
X170100697Y-110540939D01*
X170396742Y-110418616D01*
X170470707Y-110344780D01*
X170470707Y-112296429D01*
X170357125Y-112409813D01*
X170254924Y-112655940D01*
X170254691Y-112922443D01*
X170356462Y-113168748D01*
X170544744Y-113357358D01*
X170790871Y-113459559D01*
X171057374Y-113459792D01*
X171303679Y-113358021D01*
X171492289Y-113169739D01*
X171594490Y-112923612D01*
X171594723Y-112657109D01*
X171492952Y-112410804D01*
X171378707Y-112296360D01*
X171378707Y-108270623D01*
X171344148Y-108096885D01*
X171344148Y-108096884D01*
X171245733Y-107949596D01*
X171173547Y-107877411D01*
X171173687Y-107716920D01*
X171071916Y-107470615D01*
X170883634Y-107282005D01*
X170637507Y-107179804D01*
X170371004Y-107179571D01*
X170124699Y-107281342D01*
X169936089Y-107469624D01*
X169833888Y-107715751D01*
X169833655Y-107982254D01*
X169935426Y-108228559D01*
X170123708Y-108417169D01*
X170369835Y-108519370D01*
X170470707Y-108519458D01*
X170470707Y-109126321D01*
X170397933Y-109053420D01*
X170102103Y-108930580D01*
X169781783Y-108930301D01*
X169485738Y-109052624D01*
X169259040Y-109278927D01*
X169136200Y-109574757D01*
X169135921Y-109895077D01*
X156646792Y-109895077D01*
X157529869Y-109012000D01*
X167373699Y-109012000D01*
X167514037Y-109152582D01*
X167760164Y-109254783D01*
X168026667Y-109255016D01*
X168272972Y-109153245D01*
X168461582Y-108964963D01*
X168563783Y-108718836D01*
X168563985Y-108487776D01*
X168766870Y-108403946D01*
X168955480Y-108215664D01*
X169057681Y-107969537D01*
X169057914Y-107703034D01*
X168956143Y-107456729D01*
X168767861Y-107268119D01*
X168521734Y-107165918D01*
X168255231Y-107165685D01*
X168008926Y-107267456D01*
X167867435Y-107408701D01*
X157066118Y-107408701D01*
X157066113Y-107408700D01*
X156902707Y-107441204D01*
X156764178Y-107533766D01*
X156764176Y-107533769D01*
X154932379Y-109365565D01*
X154733740Y-109365391D01*
X154487435Y-109467162D01*
X154298825Y-109655444D01*
X154196624Y-109901571D01*
X154196391Y-110168074D01*
X152205863Y-110168074D01*
X154271726Y-108102211D01*
X154306037Y-108136582D01*
X154552164Y-108238783D01*
X154818667Y-108239016D01*
X155064972Y-108137245D01*
X155253582Y-107948963D01*
X155355783Y-107702836D01*
X155356016Y-107436333D01*
X155254245Y-107190028D01*
X155065963Y-107001418D01*
X154858275Y-106915178D01*
X155728319Y-106045134D01*
X155926959Y-106045308D01*
X156173264Y-105943537D01*
X156361874Y-105755255D01*
X156464075Y-105509128D01*
X156464308Y-105242625D01*
X156429916Y-105159390D01*
X157198970Y-105159390D01*
X157991810Y-105952229D01*
X157991636Y-106150869D01*
X158093407Y-106397174D01*
X158281689Y-106585784D01*
X158527816Y-106687985D01*
X158794319Y-106688218D01*
X159040624Y-106586447D01*
X159229234Y-106398165D01*
X159331435Y-106152038D01*
X159331668Y-105885535D01*
X159229897Y-105639230D01*
X159041615Y-105450620D01*
X158795488Y-105348419D01*
X158595563Y-105348244D01*
X158006699Y-104759379D01*
X158562143Y-104759379D01*
X159550138Y-105747374D01*
X159549975Y-105934361D01*
X159659950Y-106200521D01*
X159863408Y-106404335D01*
X160129376Y-106514774D01*
X160417361Y-106515025D01*
X160683521Y-106405050D01*
X160887335Y-106201592D01*
X160931497Y-106095237D01*
X169135921Y-106095237D01*
X169258244Y-106391282D01*
X169484547Y-106617980D01*
X169780377Y-106740820D01*
X170100697Y-106741099D01*
X170396742Y-106618776D01*
X170623440Y-106392473D01*
X170746280Y-106096643D01*
X170746559Y-105776323D01*
X170624236Y-105480278D01*
X170397933Y-105253580D01*
X170102103Y-105130740D01*
X169781783Y-105130461D01*
X169485738Y-105252784D01*
X169259040Y-105479087D01*
X169136200Y-105774917D01*
X169135921Y-106095237D01*
X160931497Y-106095237D01*
X160997774Y-105935624D01*
X160998025Y-105647639D01*
X160888050Y-105381479D01*
X160684592Y-105177665D01*
X160418624Y-105067226D01*
X160230298Y-105067062D01*
X159101497Y-103938261D01*
X158945450Y-103833993D01*
X158761379Y-103797379D01*
X152715341Y-103797379D01*
X152531270Y-103833993D01*
X152468767Y-103875757D01*
X152375223Y-103938260D01*
X151346383Y-104967101D01*
X146908774Y-104967101D01*
X147160465Y-104590418D01*
X147250059Y-104140000D01*
X147160465Y-103689582D01*
X146905324Y-103307735D01*
X146523477Y-103052594D01*
X146073059Y-102963000D01*
X146026941Y-102963000D01*
X145576523Y-103052594D01*
X145194676Y-103307735D01*
X144939535Y-103689582D01*
X144849941Y-104140000D01*
X144939535Y-104590418D01*
X145191226Y-104967101D01*
X144368774Y-104967101D01*
X144620465Y-104590418D01*
X144710059Y-104140000D01*
X144620465Y-103689582D01*
X144365324Y-103307735D01*
X143983477Y-103052594D01*
X143533059Y-102963000D01*
X143486941Y-102963000D01*
X143036523Y-103052594D01*
X142654676Y-103307735D01*
X142399535Y-103689582D01*
X142309941Y-104140000D01*
X142399535Y-104590418D01*
X142651226Y-104967101D01*
X141207338Y-104967101D01*
X140979919Y-104739683D01*
X140979917Y-104739680D01*
X140910116Y-104669879D01*
X141020570Y-104403876D01*
X141021029Y-103878429D01*
X140820373Y-103392804D01*
X140449150Y-103020933D01*
X140431646Y-103013665D01*
X140538077Y-102969580D01*
X140629363Y-102708968D01*
X139700000Y-101779605D01*
X139685858Y-101793748D01*
X139506253Y-101614143D01*
X139520395Y-101600000D01*
X139879605Y-101600000D01*
X140808968Y-102529363D01*
X141069580Y-102438077D01*
X141286045Y-101850167D01*
X141261049Y-101224172D01*
X141069580Y-100761923D01*
X140808968Y-100670637D01*
X139879605Y-101600000D01*
X139520395Y-101600000D01*
X139506253Y-101585858D01*
X139685858Y-101406253D01*
X139700000Y-101420395D01*
X140629363Y-100491032D01*
X140538077Y-100230420D01*
X139950167Y-100013955D01*
X139324172Y-100038951D01*
X138861923Y-100230420D01*
X138811000Y-100375800D01*
X138811000Y-98171000D01*
X153715800Y-98171000D01*
X153570420Y-98221923D01*
X153570420Y-98221923D01*
G37*
X153570420Y-98221923D02*
X153353955Y-98809833D01*
X153378951Y-99435828D01*
X153570420Y-99898077D01*
X153831032Y-99989363D01*
X154760395Y-99060000D01*
X154746253Y-99045858D01*
X154925858Y-98866253D01*
X154940000Y-98880395D01*
X154954143Y-98866253D01*
X155133748Y-99045858D01*
X155119605Y-99060000D01*
X156048968Y-99989363D01*
X156309580Y-99898077D01*
X156378389Y-99711195D01*
X156405433Y-99776647D01*
X156761479Y-100133314D01*
X157226912Y-100326580D01*
X157724852Y-100327014D01*
X157586470Y-100465396D01*
X155691609Y-100465396D01*
X155778077Y-100429580D01*
X155869363Y-100168968D01*
X154940000Y-99239605D01*
X154010637Y-100168968D01*
X154101923Y-100429580D01*
X154199198Y-100465396D01*
X152483556Y-100465396D01*
X151834093Y-99815933D01*
X151821017Y-99807196D01*
X151598237Y-99658340D01*
X151552078Y-99649158D01*
X151320026Y-99602999D01*
X151320021Y-99603000D01*
X149654232Y-99603000D01*
X149308521Y-99256686D01*
X148843088Y-99063420D01*
X148339123Y-99062981D01*
X147873353Y-99255433D01*
X147516686Y-99611479D01*
X147349040Y-100015212D01*
X147170373Y-99582804D01*
X146799150Y-99210933D01*
X146313876Y-99009430D01*
X145788429Y-99008971D01*
X145302804Y-99209627D01*
X144930933Y-99580850D01*
X144750591Y-100015162D01*
X144584567Y-99613353D01*
X144228521Y-99256686D01*
X143763088Y-99063420D01*
X143259123Y-99062981D01*
X142793353Y-99255433D01*
X142436686Y-99611479D01*
X142243420Y-100076912D01*
X142242981Y-100580877D01*
X142435433Y-101046647D01*
X142791479Y-101403314D01*
X143256912Y-101596580D01*
X143760877Y-101597019D01*
X144226647Y-101404567D01*
X144583314Y-101048521D01*
X144750960Y-100644788D01*
X144929627Y-101077196D01*
X145300850Y-101449067D01*
X145572461Y-101561849D01*
X145436665Y-101697408D01*
X145326226Y-101963376D01*
X145325975Y-102251361D01*
X145435950Y-102517521D01*
X145639408Y-102721335D01*
X145905376Y-102831774D01*
X146193361Y-102832025D01*
X146459521Y-102722050D01*
X146663335Y-102518592D01*
X146773774Y-102252624D01*
X146773862Y-102151910D01*
X150642824Y-102151910D01*
X150774928Y-102284245D01*
X151040896Y-102394684D01*
X151328881Y-102394935D01*
X151595041Y-102284960D01*
X151798855Y-102081502D01*
X151892418Y-101856176D01*
X151904211Y-101864056D01*
X152182422Y-101919396D01*
X157887599Y-101919396D01*
X157887604Y-101919397D01*
X158119656Y-101873238D01*
X158165815Y-101864056D01*
X158401671Y-101706463D01*
X159781541Y-100326593D01*
X160270877Y-100327019D01*
X160736647Y-100134567D01*
X161093314Y-99778521D01*
X161260960Y-99374788D01*
X161439627Y-99807196D01*
X161810850Y-100179067D01*
X162296124Y-100380570D01*
X162821571Y-100381029D01*
X163307196Y-100180373D01*
X163679067Y-99809150D01*
X163880570Y-99323876D01*
X163881029Y-98798429D01*
X163680373Y-98312804D01*
X163538816Y-98171000D01*
X173609000Y-98171000D01*
X173609000Y-117729000D01*
X166002537Y-117729000D01*
X166173314Y-117558521D01*
X166366580Y-117093088D01*
X166367019Y-116589123D01*
X166174567Y-116123353D01*
X165818521Y-115766686D01*
X165353088Y-115573420D01*
X164849123Y-115572981D01*
X164383353Y-115765433D01*
X164026686Y-116121479D01*
X163833420Y-116586912D01*
X163832981Y-117090877D01*
X164025433Y-117556647D01*
X164197486Y-117729000D01*
X163462537Y-117729000D01*
X163633314Y-117558521D01*
X163826580Y-117093088D01*
X163827019Y-116589123D01*
X163634567Y-116123353D01*
X163278521Y-115766686D01*
X162813088Y-115573420D01*
X162309123Y-115572981D01*
X161843353Y-115765433D01*
X161486686Y-116121479D01*
X161293420Y-116586912D01*
X161292981Y-117090877D01*
X161485433Y-117556647D01*
X161657486Y-117729000D01*
X160922537Y-117729000D01*
X161093314Y-117558521D01*
X161286580Y-117093088D01*
X161287019Y-116589123D01*
X161094567Y-116123353D01*
X160738521Y-115766686D01*
X160273088Y-115573420D01*
X159769123Y-115572981D01*
X159303353Y-115765433D01*
X158946686Y-116121479D01*
X158753420Y-116586912D01*
X158752981Y-117090877D01*
X158945433Y-117556647D01*
X159117486Y-117729000D01*
X158382537Y-117729000D01*
X158553314Y-117558521D01*
X158746580Y-117093088D01*
X158747019Y-116589123D01*
X158554567Y-116123353D01*
X158198521Y-115766686D01*
X157733088Y-115573420D01*
X157229123Y-115572981D01*
X156763353Y-115765433D01*
X156406686Y-116121479D01*
X156213420Y-116586912D01*
X156212981Y-117090877D01*
X156405433Y-117556647D01*
X156577486Y-117729000D01*
X155842537Y-117729000D01*
X156013314Y-117558521D01*
X156206580Y-117093088D01*
X156207019Y-116589123D01*
X156014567Y-116123353D01*
X155658521Y-115766686D01*
X155193088Y-115573420D01*
X154689123Y-115572981D01*
X154223353Y-115765433D01*
X153866686Y-116121479D01*
X153673420Y-116586912D01*
X153672981Y-117090877D01*
X153865433Y-117556647D01*
X154037486Y-117729000D01*
X138811000Y-117729000D01*
X138811000Y-115278973D01*
X138950850Y-115419067D01*
X139436124Y-115620570D01*
X139961571Y-115621029D01*
X140447196Y-115420373D01*
X140819067Y-115049150D01*
X141020570Y-114563876D01*
X141021029Y-114038429D01*
X140820373Y-113552804D01*
X140449150Y-113180933D01*
X140014838Y-113000591D01*
X140416647Y-112834567D01*
X140773314Y-112478521D01*
X140923477Y-112116890D01*
X142068524Y-112116890D01*
X142238355Y-112526924D01*
X142628642Y-112955183D01*
X143153108Y-113201486D01*
X143383000Y-113080819D01*
X143383000Y-111887000D01*
X142189845Y-111887000D01*
X142068524Y-112116890D01*
X140923477Y-112116890D01*
X140966580Y-112013088D01*
X140967019Y-111509123D01*
X140846478Y-111217391D01*
X140941731Y-111122138D01*
X140941734Y-111122136D01*
X141034296Y-110983607D01*
X141066799Y-110820201D01*
X141066799Y-110353151D01*
X142268523Y-109151426D01*
X142254883Y-109220000D01*
X142348587Y-109691083D01*
X142615435Y-110090448D01*
X143014800Y-110357296D01*
X143053947Y-110365083D01*
X142628642Y-110564817D01*
X142238355Y-110993076D01*
X142068524Y-111403110D01*
X142189845Y-111633000D01*
X143383000Y-111633000D01*
X143383000Y-111613000D01*
X143637000Y-111613000D01*
X143637000Y-111633000D01*
X143657000Y-111633000D01*
X143657000Y-111887000D01*
X143637000Y-111887000D01*
X143637000Y-113080819D01*
X143866892Y-113201486D01*
X144391358Y-112955183D01*
X144781645Y-112526924D01*
X144866594Y-112321826D01*
X144866594Y-112610000D01*
X144889395Y-112731179D01*
X144961012Y-112842474D01*
X145070286Y-112917138D01*
X145200000Y-112943406D01*
X146900000Y-112943406D01*
X147021179Y-112920605D01*
X147132474Y-112848988D01*
X147207138Y-112739714D01*
X147233406Y-112610000D01*
X147233406Y-112187000D01*
X148378714Y-112187000D01*
X146716515Y-113849199D01*
X144803806Y-113849199D01*
X144803801Y-113849198D01*
X144640395Y-113881702D01*
X144501866Y-113974264D01*
X144052525Y-114423605D01*
X143763088Y-114303420D01*
X143259123Y-114302981D01*
X142793353Y-114495433D01*
X142436686Y-114851479D01*
X142243420Y-115316912D01*
X142242981Y-115820877D01*
X142435433Y-116286647D01*
X142791479Y-116643314D01*
X143256912Y-116836580D01*
X143760877Y-116837019D01*
X144226647Y-116644567D01*
X144583314Y-116288521D01*
X144750960Y-115884788D01*
X144929627Y-116317196D01*
X145300850Y-116689067D01*
X145786124Y-116890570D01*
X146311571Y-116891029D01*
X146797196Y-116690373D01*
X147169067Y-116319150D01*
X147349409Y-115884838D01*
X147515433Y-116286647D01*
X147871479Y-116643314D01*
X148336912Y-116836580D01*
X148840877Y-116837019D01*
X149306647Y-116644567D01*
X149663314Y-116288521D01*
X149856580Y-115823088D01*
X149857019Y-115319123D01*
X149664567Y-114853353D01*
X149308521Y-114496686D01*
X149017000Y-114375635D01*
X149017000Y-114173000D01*
X157547361Y-114173000D01*
X157606810Y-114471876D01*
X157776110Y-114725250D01*
X158029484Y-114894550D01*
X158328360Y-114953999D01*
X158627236Y-114894550D01*
X158880610Y-114725250D01*
X160048861Y-113557000D01*
X162052000Y-113557000D01*
X162350876Y-113497550D01*
X162604250Y-113328250D01*
X162773550Y-113074876D01*
X162833000Y-112776000D01*
X162773550Y-112477124D01*
X162604250Y-112223750D01*
X162350876Y-112054450D01*
X162052000Y-111995000D01*
X159725360Y-111995000D01*
X159438927Y-112051975D01*
X159426484Y-112054450D01*
X159173109Y-112223750D01*
X157776110Y-113620750D01*
X157606810Y-113874124D01*
X157547361Y-114173000D01*
X149017000Y-114173000D01*
X149017000Y-113356937D01*
X152205863Y-110168074D01*
X154196391Y-110168074D01*
X154298162Y-110414379D01*
X154437054Y-110553513D01*
X154372418Y-110618037D01*
X154270217Y-110864164D01*
X154269984Y-111130667D01*
X154371755Y-111376972D01*
X154560037Y-111565582D01*
X154806164Y-111667783D01*
X155072667Y-111668016D01*
X155318972Y-111566245D01*
X155507582Y-111377963D01*
X155609783Y-111131836D01*
X155609958Y-110931912D01*
X156646792Y-109895077D01*
X169135921Y-109895077D01*
X169258244Y-110191122D01*
X169484547Y-110417820D01*
X169780377Y-110540660D01*
X170100697Y-110540939D01*
X170396742Y-110418616D01*
X170470707Y-110344780D01*
X170470707Y-112296429D01*
X170357125Y-112409813D01*
X170254924Y-112655940D01*
X170254691Y-112922443D01*
X170356462Y-113168748D01*
X170544744Y-113357358D01*
X170790871Y-113459559D01*
X171057374Y-113459792D01*
X171303679Y-113358021D01*
X171492289Y-113169739D01*
X171594490Y-112923612D01*
X171594723Y-112657109D01*
X171492952Y-112410804D01*
X171378707Y-112296360D01*
X171378707Y-108270623D01*
X171344148Y-108096885D01*
X171344148Y-108096884D01*
X171245733Y-107949596D01*
X171173547Y-107877411D01*
X171173687Y-107716920D01*
X171071916Y-107470615D01*
X170883634Y-107282005D01*
X170637507Y-107179804D01*
X170371004Y-107179571D01*
X170124699Y-107281342D01*
X169936089Y-107469624D01*
X169833888Y-107715751D01*
X169833655Y-107982254D01*
X169935426Y-108228559D01*
X170123708Y-108417169D01*
X170369835Y-108519370D01*
X170470707Y-108519458D01*
X170470707Y-109126321D01*
X170397933Y-109053420D01*
X170102103Y-108930580D01*
X169781783Y-108930301D01*
X169485738Y-109052624D01*
X169259040Y-109278927D01*
X169136200Y-109574757D01*
X169135921Y-109895077D01*
X156646792Y-109895077D01*
X157529869Y-109012000D01*
X167373699Y-109012000D01*
X167514037Y-109152582D01*
X167760164Y-109254783D01*
X168026667Y-109255016D01*
X168272972Y-109153245D01*
X168461582Y-108964963D01*
X168563783Y-108718836D01*
X168563985Y-108487776D01*
X168766870Y-108403946D01*
X168955480Y-108215664D01*
X169057681Y-107969537D01*
X169057914Y-107703034D01*
X168956143Y-107456729D01*
X168767861Y-107268119D01*
X168521734Y-107165918D01*
X168255231Y-107165685D01*
X168008926Y-107267456D01*
X167867435Y-107408701D01*
X157066118Y-107408701D01*
X157066113Y-107408700D01*
X156902707Y-107441204D01*
X156764178Y-107533766D01*
X156764176Y-107533769D01*
X154932379Y-109365565D01*
X154733740Y-109365391D01*
X154487435Y-109467162D01*
X154298825Y-109655444D01*
X154196624Y-109901571D01*
X154196391Y-110168074D01*
X152205863Y-110168074D01*
X154271726Y-108102211D01*
X154306037Y-108136582D01*
X154552164Y-108238783D01*
X154818667Y-108239016D01*
X155064972Y-108137245D01*
X155253582Y-107948963D01*
X155355783Y-107702836D01*
X155356016Y-107436333D01*
X155254245Y-107190028D01*
X155065963Y-107001418D01*
X154858275Y-106915178D01*
X155728319Y-106045134D01*
X155926959Y-106045308D01*
X156173264Y-105943537D01*
X156361874Y-105755255D01*
X156464075Y-105509128D01*
X156464308Y-105242625D01*
X156429916Y-105159390D01*
X157198970Y-105159390D01*
X157991810Y-105952229D01*
X157991636Y-106150869D01*
X158093407Y-106397174D01*
X158281689Y-106585784D01*
X158527816Y-106687985D01*
X158794319Y-106688218D01*
X159040624Y-106586447D01*
X159229234Y-106398165D01*
X159331435Y-106152038D01*
X159331668Y-105885535D01*
X159229897Y-105639230D01*
X159041615Y-105450620D01*
X158795488Y-105348419D01*
X158595563Y-105348244D01*
X158006699Y-104759379D01*
X158562143Y-104759379D01*
X159550138Y-105747374D01*
X159549975Y-105934361D01*
X159659950Y-106200521D01*
X159863408Y-106404335D01*
X160129376Y-106514774D01*
X160417361Y-106515025D01*
X160683521Y-106405050D01*
X160887335Y-106201592D01*
X160931497Y-106095237D01*
X169135921Y-106095237D01*
X169258244Y-106391282D01*
X169484547Y-106617980D01*
X169780377Y-106740820D01*
X170100697Y-106741099D01*
X170396742Y-106618776D01*
X170623440Y-106392473D01*
X170746280Y-106096643D01*
X170746559Y-105776323D01*
X170624236Y-105480278D01*
X170397933Y-105253580D01*
X170102103Y-105130740D01*
X169781783Y-105130461D01*
X169485738Y-105252784D01*
X169259040Y-105479087D01*
X169136200Y-105774917D01*
X169135921Y-106095237D01*
X160931497Y-106095237D01*
X160997774Y-105935624D01*
X160998025Y-105647639D01*
X160888050Y-105381479D01*
X160684592Y-105177665D01*
X160418624Y-105067226D01*
X160230298Y-105067062D01*
X159101497Y-103938261D01*
X158945450Y-103833993D01*
X158761379Y-103797379D01*
X152715341Y-103797379D01*
X152531270Y-103833993D01*
X152468767Y-103875757D01*
X152375223Y-103938260D01*
X151346383Y-104967101D01*
X146908774Y-104967101D01*
X147160465Y-104590418D01*
X147250059Y-104140000D01*
X147160465Y-103689582D01*
X146905324Y-103307735D01*
X146523477Y-103052594D01*
X146073059Y-102963000D01*
X146026941Y-102963000D01*
X145576523Y-103052594D01*
X145194676Y-103307735D01*
X144939535Y-103689582D01*
X144849941Y-104140000D01*
X144939535Y-104590418D01*
X145191226Y-104967101D01*
X144368774Y-104967101D01*
X144620465Y-104590418D01*
X144710059Y-104140000D01*
X144620465Y-103689582D01*
X144365324Y-103307735D01*
X143983477Y-103052594D01*
X143533059Y-102963000D01*
X143486941Y-102963000D01*
X143036523Y-103052594D01*
X142654676Y-103307735D01*
X142399535Y-103689582D01*
X142309941Y-104140000D01*
X142399535Y-104590418D01*
X142651226Y-104967101D01*
X141207338Y-104967101D01*
X140979919Y-104739683D01*
X140979917Y-104739680D01*
X140910116Y-104669879D01*
X141020570Y-104403876D01*
X141021029Y-103878429D01*
X140820373Y-103392804D01*
X140449150Y-103020933D01*
X140431646Y-103013665D01*
X140538077Y-102969580D01*
X140629363Y-102708968D01*
X139700000Y-101779605D01*
X139685858Y-101793748D01*
X139506253Y-101614143D01*
X139520395Y-101600000D01*
X139879605Y-101600000D01*
X140808968Y-102529363D01*
X141069580Y-102438077D01*
X141286045Y-101850167D01*
X141261049Y-101224172D01*
X141069580Y-100761923D01*
X140808968Y-100670637D01*
X139879605Y-101600000D01*
X139520395Y-101600000D01*
X139506253Y-101585858D01*
X139685858Y-101406253D01*
X139700000Y-101420395D01*
X140629363Y-100491032D01*
X140538077Y-100230420D01*
X139950167Y-100013955D01*
X139324172Y-100038951D01*
X138861923Y-100230420D01*
X138811000Y-100375800D01*
X138811000Y-98171000D01*
X153715800Y-98171000D01*
X153570420Y-98221923D01*
M02*
