%TF.GenerationSoftware,KiCad,Pcbnew,4.0.6*%
%TF.CreationDate,2017-10-08T18:55:20-04:00*%
%TF.ProjectId,USB-UART,5553422D554152542E6B696361645F70,rev?*%
%TF.FileFunction,Soldermask,Bot*%
%FSLAX46Y46*%
G04 Gerber Fmt 4.6, Leading zero omitted, Abs format (unit mm)*
G04 Created by KiCad (PCBNEW 4.0.6) date 10/08/17 18:55:20*
%MOMM*%
%LPD*%
G01*
G04 APERTURE LIST*
%ADD10C,0.127000*%
%ADD11C,0.010000*%
%ADD12C,1.979600*%
%ADD13C,0.948360*%
%ADD14R,1.800000X1.800000*%
%ADD15O,1.800000X1.800000*%
G04 APERTURE END LIST*
D10*
X169275143Y-101592929D02*
X169275143Y-101992929D01*
X169275143Y-101650071D02*
X169246571Y-101621500D01*
X169189429Y-101592929D01*
X169103714Y-101592929D01*
X169046571Y-101621500D01*
X169018000Y-101678643D01*
X169018000Y-101992929D01*
X168732286Y-101992929D02*
X168732286Y-101592929D01*
X168732286Y-101392929D02*
X168760857Y-101421500D01*
X168732286Y-101450071D01*
X168703714Y-101421500D01*
X168732286Y-101392929D01*
X168732286Y-101450071D01*
X168503715Y-101992929D02*
X168189429Y-101592929D01*
X168503715Y-101592929D02*
X168189429Y-101992929D01*
X167960858Y-101992929D02*
X167960858Y-101592929D01*
X167960858Y-101392929D02*
X167989429Y-101421500D01*
X167960858Y-101450071D01*
X167932286Y-101421500D01*
X167960858Y-101392929D01*
X167960858Y-101450071D01*
X167446572Y-101964357D02*
X167503715Y-101992929D01*
X167618001Y-101992929D01*
X167675144Y-101964357D01*
X167703715Y-101907214D01*
X167703715Y-101678643D01*
X167675144Y-101621500D01*
X167618001Y-101592929D01*
X167503715Y-101592929D01*
X167446572Y-101621500D01*
X167418001Y-101678643D01*
X167418001Y-101735786D01*
X167703715Y-101792929D01*
X167189429Y-101964357D02*
X167132286Y-101992929D01*
X167018001Y-101992929D01*
X166960858Y-101964357D01*
X166932286Y-101907214D01*
X166932286Y-101878643D01*
X166960858Y-101821500D01*
X167018001Y-101792929D01*
X167103715Y-101792929D01*
X167160858Y-101764357D01*
X167189429Y-101707214D01*
X167189429Y-101678643D01*
X167160858Y-101621500D01*
X167103715Y-101592929D01*
X167018001Y-101592929D01*
X166960858Y-101621500D01*
X166675144Y-101935786D02*
X166646572Y-101964357D01*
X166675144Y-101992929D01*
X166703715Y-101964357D01*
X166675144Y-101935786D01*
X166675144Y-101992929D01*
X166132287Y-101592929D02*
X166132287Y-101992929D01*
X166389430Y-101592929D02*
X166389430Y-101907214D01*
X166360858Y-101964357D01*
X166303716Y-101992929D01*
X166218001Y-101992929D01*
X166160858Y-101964357D01*
X166132287Y-101935786D01*
X165875144Y-101964357D02*
X165818001Y-101992929D01*
X165703716Y-101992929D01*
X165646573Y-101964357D01*
X165618001Y-101907214D01*
X165618001Y-101878643D01*
X165646573Y-101821500D01*
X165703716Y-101792929D01*
X165789430Y-101792929D01*
X165846573Y-101764357D01*
X165875144Y-101707214D01*
X165875144Y-101678643D01*
X165846573Y-101621500D01*
X165789430Y-101592929D01*
X165703716Y-101592929D01*
X165646573Y-101621500D01*
X169275143Y-102419929D02*
X169275143Y-102905643D01*
X169246571Y-102962786D01*
X169218000Y-102991357D01*
X169160857Y-103019929D01*
X169046571Y-103019929D01*
X168989429Y-102991357D01*
X168960857Y-102962786D01*
X168932286Y-102905643D01*
X168932286Y-102419929D01*
X168675143Y-102848500D02*
X168389429Y-102848500D01*
X168732286Y-103019929D02*
X168532286Y-102419929D01*
X168332286Y-103019929D01*
X167789429Y-103019929D02*
X167989429Y-102734214D01*
X168132286Y-103019929D02*
X168132286Y-102419929D01*
X167903714Y-102419929D01*
X167846572Y-102448500D01*
X167818000Y-102477071D01*
X167789429Y-102534214D01*
X167789429Y-102619929D01*
X167818000Y-102677071D01*
X167846572Y-102705643D01*
X167903714Y-102734214D01*
X168132286Y-102734214D01*
X167618000Y-102419929D02*
X167275143Y-102419929D01*
X167446572Y-103019929D02*
X167446572Y-102419929D01*
X166675143Y-102619929D02*
X166532286Y-103019929D01*
X166389428Y-102619929D01*
X166046571Y-102419929D02*
X165989428Y-102419929D01*
X165932285Y-102448500D01*
X165903714Y-102477071D01*
X165875143Y-102534214D01*
X165846571Y-102648500D01*
X165846571Y-102791357D01*
X165875143Y-102905643D01*
X165903714Y-102962786D01*
X165932285Y-102991357D01*
X165989428Y-103019929D01*
X166046571Y-103019929D01*
X166103714Y-102991357D01*
X166132285Y-102962786D01*
X166160857Y-102905643D01*
X166189428Y-102791357D01*
X166189428Y-102648500D01*
X166160857Y-102534214D01*
X166132285Y-102477071D01*
X166103714Y-102448500D01*
X166046571Y-102419929D01*
X165589428Y-102962786D02*
X165560856Y-102991357D01*
X165589428Y-103019929D01*
X165617999Y-102991357D01*
X165589428Y-102962786D01*
X165589428Y-103019929D01*
X164989428Y-103019929D02*
X165332285Y-103019929D01*
X165160857Y-103019929D02*
X165160857Y-102419929D01*
X165218000Y-102505643D01*
X165275142Y-102562786D01*
X165332285Y-102591357D01*
D11*
G36*
X170925189Y-98588464D02*
X170906508Y-98590415D01*
X170902313Y-98591259D01*
X170862583Y-98604756D01*
X170830676Y-98624225D01*
X170817168Y-98636487D01*
X170799323Y-98657401D01*
X170788839Y-98677388D01*
X170784070Y-98700553D01*
X170783250Y-98721030D01*
X170783942Y-98742070D01*
X170786876Y-98757251D01*
X170793346Y-98771252D01*
X170800062Y-98781941D01*
X170819859Y-98804234D01*
X170843002Y-98817744D01*
X170867859Y-98822038D01*
X170892801Y-98816687D01*
X170905499Y-98809790D01*
X170916432Y-98801237D01*
X170922094Y-98791974D01*
X170924551Y-98777847D01*
X170925068Y-98770430D01*
X170925352Y-98753523D01*
X170923096Y-98743867D01*
X170917413Y-98738257D01*
X170915916Y-98737408D01*
X170902535Y-98734216D01*
X170891559Y-98735078D01*
X170882033Y-98739119D01*
X170880081Y-98746877D01*
X170881177Y-98753223D01*
X170881711Y-98765847D01*
X170877094Y-98771099D01*
X170868922Y-98769765D01*
X170858789Y-98762631D01*
X170848287Y-98750480D01*
X170839011Y-98734100D01*
X170838104Y-98732003D01*
X170833582Y-98718635D01*
X170833713Y-98707300D01*
X170838533Y-98692315D01*
X170854357Y-98663141D01*
X170877748Y-98640074D01*
X170891836Y-98630784D01*
X170905084Y-98624198D01*
X170919252Y-98620377D01*
X170937866Y-98618635D01*
X170956288Y-98618284D01*
X170982147Y-98619089D01*
X170999394Y-98621606D01*
X171006294Y-98624760D01*
X171015648Y-98630561D01*
X171019728Y-98631374D01*
X171030165Y-98635395D01*
X171044163Y-98645935D01*
X171059406Y-98660709D01*
X171073579Y-98677436D01*
X171084367Y-98693831D01*
X171085717Y-98696458D01*
X171093883Y-98713288D01*
X171101332Y-98728749D01*
X171105088Y-98741889D01*
X171107384Y-98763133D01*
X171108310Y-98793486D01*
X171108318Y-98808124D01*
X171108026Y-98835500D01*
X171107145Y-98855285D01*
X171105111Y-98870471D01*
X171101359Y-98884051D01*
X171095324Y-98899017D01*
X171088250Y-98914479D01*
X171063753Y-98956765D01*
X171032300Y-98992730D01*
X170993325Y-99022760D01*
X170946264Y-99047241D01*
X170890553Y-99066559D01*
X170852042Y-99075980D01*
X170822634Y-99079773D01*
X170785805Y-99080737D01*
X170744281Y-99079054D01*
X170700788Y-99074910D01*
X170658049Y-99068487D01*
X170620313Y-99060362D01*
X170599845Y-99054139D01*
X170581151Y-99046737D01*
X170565722Y-99039055D01*
X170555047Y-99031994D01*
X170550615Y-99026453D01*
X170553918Y-99023333D01*
X170558403Y-99022958D01*
X170568351Y-99019781D01*
X170584167Y-99011266D01*
X170603665Y-98998940D01*
X170624656Y-98984327D01*
X170644953Y-98968954D01*
X170662368Y-98954345D01*
X170674714Y-98942027D01*
X170675080Y-98941593D01*
X170695173Y-98915836D01*
X170709775Y-98892162D01*
X170720111Y-98867537D01*
X170727403Y-98838929D01*
X170732873Y-98803306D01*
X170733731Y-98796151D01*
X170733775Y-98762481D01*
X170727304Y-98726561D01*
X170715392Y-98691731D01*
X170699115Y-98661334D01*
X170684645Y-98643413D01*
X170657288Y-98622754D01*
X170625549Y-98609678D01*
X170591674Y-98604291D01*
X170557911Y-98606696D01*
X170526505Y-98616997D01*
X170500146Y-98634884D01*
X170485257Y-98653011D01*
X170477842Y-98674267D01*
X170476334Y-98694426D01*
X170477530Y-98712322D01*
X170482582Y-98725321D01*
X170493690Y-98738981D01*
X170494157Y-98739477D01*
X170509338Y-98752720D01*
X170523474Y-98758050D01*
X170528552Y-98758375D01*
X170547092Y-98753731D01*
X170560435Y-98741353D01*
X170566218Y-98723569D01*
X170566292Y-98721167D01*
X170563195Y-98706928D01*
X170555311Y-98701185D01*
X170544753Y-98704762D01*
X170538980Y-98710490D01*
X170530881Y-98718424D01*
X170524297Y-98718170D01*
X170521283Y-98716016D01*
X170515309Y-98705091D01*
X170513691Y-98688475D01*
X170516458Y-98670137D01*
X170520862Y-98658706D01*
X170531291Y-98645327D01*
X170542844Y-98636479D01*
X170560958Y-98630964D01*
X170583943Y-98629402D01*
X170606868Y-98631756D01*
X170623095Y-98637051D01*
X170643631Y-98650591D01*
X170663039Y-98668328D01*
X170677516Y-98686644D01*
X170680130Y-98691307D01*
X170683893Y-98703698D01*
X170686492Y-98721535D01*
X170687845Y-98741782D01*
X170687872Y-98761400D01*
X170686490Y-98777352D01*
X170683619Y-98786600D01*
X170682709Y-98787479D01*
X170678613Y-98794773D01*
X170677417Y-98803666D01*
X170675566Y-98813460D01*
X170672125Y-98816583D01*
X170667044Y-98820656D01*
X170666834Y-98822228D01*
X170663631Y-98829995D01*
X170655349Y-98842875D01*
X170643978Y-98858106D01*
X170631508Y-98872926D01*
X170626309Y-98878479D01*
X170609192Y-98892819D01*
X170585034Y-98908914D01*
X170556808Y-98925102D01*
X170527490Y-98939722D01*
X170500055Y-98951114D01*
X170490437Y-98954344D01*
X170428492Y-98969470D01*
X170369992Y-98975341D01*
X170313500Y-98971784D01*
X170257577Y-98958624D01*
X170200784Y-98935690D01*
X170161480Y-98914741D01*
X170124648Y-98893960D01*
X170093875Y-98878442D01*
X170066499Y-98867448D01*
X170039861Y-98860241D01*
X170011300Y-98856083D01*
X169978157Y-98854236D01*
X169942238Y-98853940D01*
X169912171Y-98854404D01*
X169883525Y-98855457D01*
X169859110Y-98856953D01*
X169841732Y-98858750D01*
X169838688Y-98859254D01*
X169817749Y-98863057D01*
X169793434Y-98867261D01*
X169780480Y-98869412D01*
X169758563Y-98873282D01*
X169736891Y-98877593D01*
X169726240Y-98879974D01*
X169699466Y-98886426D01*
X169680732Y-98891019D01*
X169667780Y-98894335D01*
X169658351Y-98896956D01*
X169650190Y-98899466D01*
X169648188Y-98900110D01*
X169611946Y-98914827D01*
X169579387Y-98933783D01*
X169551876Y-98955716D01*
X169530778Y-98979364D01*
X169517460Y-99003464D01*
X169513251Y-99024913D01*
X169511035Y-99044040D01*
X169505068Y-99068707D01*
X169496366Y-99095004D01*
X169492400Y-99104979D01*
X169481972Y-99138079D01*
X169476656Y-99173111D01*
X169476299Y-99188817D01*
X169476794Y-99209551D01*
X169476378Y-99221682D01*
X169474495Y-99227185D01*
X169470589Y-99228034D01*
X169465625Y-99226687D01*
X169456754Y-99225437D01*
X169456454Y-99229683D01*
X169464621Y-99238859D01*
X169468503Y-99242314D01*
X169477432Y-99251708D01*
X169478871Y-99260493D01*
X169476594Y-99268006D01*
X169469002Y-99279562D01*
X169456154Y-99292150D01*
X169450105Y-99296743D01*
X169434408Y-99310558D01*
X169428947Y-99323959D01*
X169433688Y-99338104D01*
X169448428Y-99354003D01*
X169460046Y-99365121D01*
X169464129Y-99372375D01*
X169461852Y-99377908D01*
X169461657Y-99378111D01*
X169457110Y-99388627D01*
X169455288Y-99405415D01*
X169456229Y-99424510D01*
X169459973Y-99441949D01*
X169460993Y-99444719D01*
X169473958Y-99478822D01*
X169482223Y-99505240D01*
X169486236Y-99525532D01*
X169486792Y-99534694D01*
X169490365Y-99549911D01*
X169501344Y-99560776D01*
X169508256Y-99564686D01*
X169516722Y-99567339D01*
X169528670Y-99568915D01*
X169546029Y-99569590D01*
X169570727Y-99569543D01*
X169592625Y-99569191D01*
X169623270Y-99568745D01*
X169645341Y-99568888D01*
X169660843Y-99569814D01*
X169671779Y-99571721D01*
X169680151Y-99574804D01*
X169686553Y-99578374D01*
X169697732Y-99587225D01*
X169703526Y-99595595D01*
X169703750Y-99597026D01*
X169706137Y-99604124D01*
X169708195Y-99605041D01*
X169712799Y-99609902D01*
X169718084Y-99622908D01*
X169723497Y-99641692D01*
X169728485Y-99663888D01*
X169732494Y-99687129D01*
X169734972Y-99709049D01*
X169735500Y-99721868D01*
X169734126Y-99747797D01*
X169730411Y-99779477D01*
X169724968Y-99812496D01*
X169719224Y-99839197D01*
X169706339Y-99888957D01*
X169694668Y-99928685D01*
X169684071Y-99958844D01*
X169682707Y-99962229D01*
X169677987Y-99974487D01*
X169672364Y-99990045D01*
X169671914Y-99991333D01*
X169663279Y-100014191D01*
X169652093Y-100039979D01*
X169637112Y-100071537D01*
X169633622Y-100078645D01*
X169624037Y-100102957D01*
X169618298Y-100127776D01*
X169616652Y-100150452D01*
X169619348Y-100168340D01*
X169624439Y-100177091D01*
X169634814Y-100185984D01*
X169649147Y-100196926D01*
X169664745Y-100208032D01*
X169678913Y-100217419D01*
X169688956Y-100223203D01*
X169691768Y-100224166D01*
X169699614Y-100227990D01*
X169710792Y-100237534D01*
X169722481Y-100249910D01*
X169731860Y-100262227D01*
X169735387Y-100268846D01*
X169737782Y-100288707D01*
X169731541Y-100313658D01*
X169730315Y-100316770D01*
X169721207Y-100338209D01*
X169709870Y-100363457D01*
X169697235Y-100390597D01*
X169684234Y-100417716D01*
X169671798Y-100442900D01*
X169660858Y-100464233D01*
X169652347Y-100479802D01*
X169647196Y-100487692D01*
X169647089Y-100487805D01*
X169641263Y-100495574D01*
X169640250Y-100498589D01*
X169636298Y-100506046D01*
X169625578Y-100518274D01*
X169609794Y-100533704D01*
X169590649Y-100550765D01*
X169569849Y-100567887D01*
X169549097Y-100583499D01*
X169545000Y-100586372D01*
X169529519Y-100597526D01*
X169509178Y-100612821D01*
X169485749Y-100630853D01*
X169461006Y-100650217D01*
X169436723Y-100669511D01*
X169414673Y-100687331D01*
X169396630Y-100702272D01*
X169384367Y-100712932D01*
X169380959Y-100716215D01*
X169375469Y-100720739D01*
X169364441Y-100729154D01*
X169357146Y-100734570D01*
X169342926Y-100745521D01*
X169331358Y-100755268D01*
X169328042Y-100758437D01*
X169320834Y-100764681D01*
X169306970Y-100775674D01*
X169288375Y-100789970D01*
X169266971Y-100806119D01*
X169244683Y-100822674D01*
X169223434Y-100838186D01*
X169205146Y-100851207D01*
X169201042Y-100854056D01*
X169186580Y-100864578D01*
X169174266Y-100874441D01*
X169172328Y-100876160D01*
X169160665Y-100884649D01*
X169152484Y-100888566D01*
X169144451Y-100892883D01*
X169142834Y-100895577D01*
X169138412Y-100899865D01*
X169127465Y-100905497D01*
X169124313Y-100906791D01*
X169112338Y-100912407D01*
X169106063Y-100917138D01*
X169105792Y-100917900D01*
X169101221Y-100921499D01*
X169089148Y-100927475D01*
X169072033Y-100934630D01*
X169069176Y-100935733D01*
X169053060Y-100941576D01*
X169039196Y-100945438D01*
X169024802Y-100947643D01*
X169007093Y-100948517D01*
X168983286Y-100948385D01*
X168964666Y-100947952D01*
X168930523Y-100946334D01*
X168891409Y-100943348D01*
X168852779Y-100939461D01*
X168827274Y-100936215D01*
X168797120Y-100932110D01*
X168774490Y-100929744D01*
X168756480Y-100929036D01*
X168740188Y-100929905D01*
X168722712Y-100932269D01*
X168717472Y-100933144D01*
X168696596Y-100937139D01*
X168684253Y-100940848D01*
X168678448Y-100945098D01*
X168677167Y-100949873D01*
X168678492Y-100955283D01*
X168684014Y-100958268D01*
X168696056Y-100959509D01*
X168710591Y-100959708D01*
X168734236Y-100960697D01*
X168759762Y-100963337D01*
X168783967Y-100967134D01*
X168803645Y-100971596D01*
X168814750Y-100975724D01*
X168818696Y-100978566D01*
X168818171Y-100980943D01*
X168811836Y-100983248D01*
X168798348Y-100985875D01*
X168776366Y-100989220D01*
X168761834Y-100991275D01*
X168733253Y-100995714D01*
X168711017Y-101000508D01*
X168690913Y-101006774D01*
X168668730Y-101015630D01*
X168666584Y-101016551D01*
X168650121Y-101024942D01*
X168634127Y-101035191D01*
X168621280Y-101045332D01*
X168614255Y-101053398D01*
X168613667Y-101055409D01*
X168618257Y-101057665D01*
X168629719Y-101057989D01*
X168644598Y-101056748D01*
X168659434Y-101054306D01*
X168670771Y-101051030D01*
X168674257Y-101049009D01*
X168683325Y-101045170D01*
X168690396Y-101044374D01*
X168702183Y-101041828D01*
X168707214Y-101038669D01*
X168716239Y-101035154D01*
X168728116Y-101035016D01*
X168737864Y-101036781D01*
X168737971Y-101038871D01*
X168732730Y-101041201D01*
X168705940Y-101051871D01*
X168686890Y-101060106D01*
X168673357Y-101067036D01*
X168663115Y-101073791D01*
X168654678Y-101080831D01*
X168645147Y-101090500D01*
X168640285Y-101097501D01*
X168640125Y-101098281D01*
X168644546Y-101102413D01*
X168656902Y-101101775D01*
X168675838Y-101096662D01*
X168699995Y-101087369D01*
X168709222Y-101083280D01*
X168731138Y-101074062D01*
X168746774Y-101069093D01*
X168755327Y-101068407D01*
X168755989Y-101072041D01*
X168747956Y-101080030D01*
X168745880Y-101081660D01*
X168734763Y-101088859D01*
X168726681Y-101091882D01*
X168720199Y-101096286D01*
X168715124Y-101105676D01*
X168714209Y-101110953D01*
X168718484Y-101113698D01*
X168729495Y-101112608D01*
X168744518Y-101108592D01*
X168760829Y-101102564D01*
X168775704Y-101095434D01*
X168786420Y-101088113D01*
X168788292Y-101086167D01*
X168795298Y-101081712D01*
X168809313Y-101075211D01*
X168827305Y-101067963D01*
X168846244Y-101061268D01*
X168846876Y-101061063D01*
X168863310Y-101057539D01*
X168884226Y-101055333D01*
X168895688Y-101054958D01*
X168913097Y-101055442D01*
X168923193Y-101057747D01*
X168929232Y-101063147D01*
X168932817Y-101069510D01*
X168936713Y-101083215D01*
X168933421Y-101096126D01*
X168922098Y-101109557D01*
X168901899Y-101124821D01*
X168893986Y-101129952D01*
X168872648Y-101143827D01*
X168858672Y-101154278D01*
X168850242Y-101163152D01*
X168845541Y-101172294D01*
X168843122Y-101181651D01*
X168842225Y-101193878D01*
X168846479Y-101198373D01*
X168847162Y-101198460D01*
X168864877Y-101196995D01*
X168877337Y-101188919D01*
X168887709Y-101181543D01*
X168905321Y-101171954D01*
X168927427Y-101161450D01*
X168951283Y-101151329D01*
X168974143Y-101142886D01*
X168976146Y-101142224D01*
X169013899Y-101128391D01*
X169043693Y-101113619D01*
X169068130Y-101096270D01*
X169089811Y-101074706D01*
X169097092Y-101066030D01*
X169112780Y-101047684D01*
X169128395Y-101031207D01*
X169141180Y-101019458D01*
X169144008Y-101017314D01*
X169155691Y-101008787D01*
X169163164Y-101002654D01*
X169164000Y-101001764D01*
X169170776Y-100996394D01*
X169185070Y-100987206D01*
X169205015Y-100975271D01*
X169228741Y-100961657D01*
X169254381Y-100947435D01*
X169280064Y-100933674D01*
X169303924Y-100921443D01*
X169306875Y-100919981D01*
X169354447Y-100896160D01*
X169395717Y-100874604D01*
X169434143Y-100853480D01*
X169460334Y-100838470D01*
X169477138Y-100829064D01*
X169491352Y-100821752D01*
X169498698Y-100818571D01*
X169506518Y-100813882D01*
X169507959Y-100810924D01*
X169512054Y-100806438D01*
X169513650Y-100806250D01*
X169520545Y-100803632D01*
X169534537Y-100796481D01*
X169553735Y-100785849D01*
X169576247Y-100772788D01*
X169600181Y-100758350D01*
X169603919Y-100756043D01*
X169613162Y-100750374D01*
X169627644Y-100741548D01*
X169638314Y-100735066D01*
X169652817Y-100726051D01*
X169663287Y-100719140D01*
X169666709Y-100716515D01*
X169672184Y-100711883D01*
X169683182Y-100703350D01*
X169690521Y-100697830D01*
X169707944Y-100684726D01*
X169721314Y-100674119D01*
X169733351Y-100663609D01*
X169746778Y-100650794D01*
X169764316Y-100633275D01*
X169768573Y-100628979D01*
X169787309Y-100608797D01*
X169805527Y-100587042D01*
X169820174Y-100567426D01*
X169824043Y-100561510D01*
X169834542Y-100546121D01*
X169843904Y-100535179D01*
X169850023Y-100531083D01*
X169856582Y-100533431D01*
X169857215Y-100535052D01*
X169860373Y-100541283D01*
X169868182Y-100551706D01*
X169870444Y-100554395D01*
X169878976Y-100565141D01*
X169883465Y-100572402D01*
X169883667Y-100573241D01*
X169886884Y-100579320D01*
X169893153Y-100586970D01*
X169903642Y-100601656D01*
X169915879Y-100624009D01*
X169928784Y-100651494D01*
X169941280Y-100681579D01*
X169952286Y-100711732D01*
X169960725Y-100739419D01*
X169964014Y-100753333D01*
X169973028Y-100799638D01*
X169979672Y-100838635D01*
X169984210Y-100873265D01*
X169986907Y-100906470D01*
X169988028Y-100941191D01*
X169987838Y-100980370D01*
X169987126Y-101009979D01*
X169986044Y-101043664D01*
X169984846Y-101074856D01*
X169983623Y-101101578D01*
X169982466Y-101121856D01*
X169981466Y-101133716D01*
X169981383Y-101134333D01*
X169980571Y-101144446D01*
X169979642Y-101163553D01*
X169978650Y-101190061D01*
X169977647Y-101222383D01*
X169976690Y-101258929D01*
X169975830Y-101298109D01*
X169975824Y-101298375D01*
X169975012Y-101345421D01*
X169974686Y-101384221D01*
X169974925Y-101417100D01*
X169975810Y-101446388D01*
X169977421Y-101474413D01*
X169979836Y-101503502D01*
X169983137Y-101535983D01*
X169984350Y-101547083D01*
X169990916Y-101605180D01*
X169996824Y-101654321D01*
X170002318Y-101696097D01*
X170007644Y-101732098D01*
X170013044Y-101763912D01*
X170018765Y-101793130D01*
X170025051Y-101821340D01*
X170029115Y-101838125D01*
X170035206Y-101863338D01*
X170040587Y-101886871D01*
X170044538Y-101905511D01*
X170046027Y-101913660D01*
X170049144Y-101927292D01*
X170052915Y-101935719D01*
X170053715Y-101936462D01*
X170057408Y-101943445D01*
X170058331Y-101950885D01*
X170059972Y-101960617D01*
X170064365Y-101977640D01*
X170070774Y-101999254D01*
X170075972Y-102015395D01*
X170084233Y-102040466D01*
X170092040Y-102064565D01*
X170098261Y-102084181D01*
X170100698Y-102092125D01*
X170105622Y-102107470D01*
X170109809Y-102118658D01*
X170111058Y-102121229D01*
X170114664Y-102129304D01*
X170119705Y-102142980D01*
X170121298Y-102147687D01*
X170128050Y-102166724D01*
X170135331Y-102185375D01*
X170136170Y-102187375D01*
X170143028Y-102203679D01*
X170149056Y-102218260D01*
X170149407Y-102219125D01*
X170155351Y-102232893D01*
X170159451Y-102241542D01*
X170163426Y-102251937D01*
X170164125Y-102256158D01*
X170166361Y-102262816D01*
X170172572Y-102277404D01*
X170182018Y-102298378D01*
X170193958Y-102324194D01*
X170207651Y-102353309D01*
X170222356Y-102384178D01*
X170237332Y-102415257D01*
X170251838Y-102445002D01*
X170265133Y-102471870D01*
X170276477Y-102494316D01*
X170285127Y-102510797D01*
X170290344Y-102519769D01*
X170291112Y-102520750D01*
X170294960Y-102526585D01*
X170301861Y-102538579D01*
X170306585Y-102547208D01*
X170319333Y-102569639D01*
X170336191Y-102597506D01*
X170355705Y-102628573D01*
X170376419Y-102660607D01*
X170396879Y-102691373D01*
X170415630Y-102718639D01*
X170431216Y-102740168D01*
X170437536Y-102748291D01*
X170443180Y-102755433D01*
X170453780Y-102768992D01*
X170467812Y-102787014D01*
X170483577Y-102807321D01*
X170555732Y-102893586D01*
X170636677Y-102977902D01*
X170724618Y-103058433D01*
X170748862Y-103078902D01*
X170764236Y-103091736D01*
X170776272Y-103101925D01*
X170782788Y-103107619D01*
X170783250Y-103108070D01*
X170788360Y-103112212D01*
X170800095Y-103121190D01*
X170816559Y-103133566D01*
X170830875Y-103144215D01*
X170850497Y-103158811D01*
X170867654Y-103171688D01*
X170880097Y-103181151D01*
X170884766Y-103184811D01*
X170895652Y-103192914D01*
X170908578Y-103201659D01*
X170922571Y-103211492D01*
X170933738Y-103220530D01*
X170943150Y-103227562D01*
X170948772Y-103229833D01*
X170955177Y-103233028D01*
X170966494Y-103241231D01*
X170975185Y-103248354D01*
X170988046Y-103258711D01*
X170997853Y-103265433D01*
X171001243Y-103266875D01*
X171007136Y-103269527D01*
X171018973Y-103276300D01*
X171033910Y-103285419D01*
X171049104Y-103295106D01*
X171061711Y-103303585D01*
X171068887Y-103309081D01*
X171069000Y-103309193D01*
X171075129Y-103313521D01*
X171084875Y-103319378D01*
X171094011Y-103324765D01*
X171110175Y-103334485D01*
X171131376Y-103347333D01*
X171155623Y-103362104D01*
X171165801Y-103368326D01*
X171189553Y-103382777D01*
X171209952Y-103395032D01*
X171225378Y-103404130D01*
X171234207Y-103409106D01*
X171235632Y-103409750D01*
X171240902Y-103412229D01*
X171252818Y-103418768D01*
X171268931Y-103428017D01*
X171270991Y-103429222D01*
X171298603Y-103445148D01*
X171328048Y-103461703D01*
X171356493Y-103477327D01*
X171381106Y-103490464D01*
X171397084Y-103498599D01*
X171409632Y-103505090D01*
X171417484Y-103509821D01*
X171418250Y-103510468D01*
X171423786Y-103513903D01*
X171436692Y-103520989D01*
X171454891Y-103530607D01*
X171471167Y-103539013D01*
X171520322Y-103564179D01*
X171564845Y-103587001D01*
X171603951Y-103607075D01*
X171636854Y-103623998D01*
X171662769Y-103637365D01*
X171680910Y-103646772D01*
X171690492Y-103651816D01*
X171690968Y-103652075D01*
X171700048Y-103656813D01*
X171715987Y-103664904D01*
X171736153Y-103675017D01*
X171748980Y-103681400D01*
X171823231Y-103718750D01*
X171888520Y-103752707D01*
X171945734Y-103783745D01*
X171995760Y-103812342D01*
X172018855Y-103826177D01*
X172032458Y-103833801D01*
X172040021Y-103837597D01*
X172047412Y-103841911D01*
X172061579Y-103850876D01*
X172080874Y-103863392D01*
X172103647Y-103878359D01*
X172128250Y-103894677D01*
X172153035Y-103911246D01*
X172176352Y-103926966D01*
X172196552Y-103940737D01*
X172211988Y-103951460D01*
X172221009Y-103958033D01*
X172222584Y-103959400D01*
X172227830Y-103964217D01*
X172238881Y-103973472D01*
X172251688Y-103983833D01*
X172311914Y-104037393D01*
X172363218Y-104094685D01*
X172405288Y-104155180D01*
X172437811Y-104218346D01*
X172460476Y-104283651D01*
X172472971Y-104350566D01*
X172474115Y-104362720D01*
X172475533Y-104383291D01*
X172475389Y-104396010D01*
X172473178Y-104403555D01*
X172468396Y-104408606D01*
X172465028Y-104410937D01*
X172450982Y-104417507D01*
X172434365Y-104422056D01*
X172434229Y-104422079D01*
X172394691Y-104429475D01*
X172360964Y-104437738D01*
X172336355Y-104445271D01*
X172314487Y-104452356D01*
X172288337Y-104460616D01*
X172264917Y-104467850D01*
X172244468Y-104474199D01*
X172226909Y-104479877D01*
X172215608Y-104483790D01*
X172214646Y-104484164D01*
X172204724Y-104487949D01*
X172188121Y-104494103D01*
X172168116Y-104501411D01*
X172164375Y-104502766D01*
X172145039Y-104510094D01*
X172129481Y-104516598D01*
X172120496Y-104521093D01*
X172119661Y-104521711D01*
X172110071Y-104525984D01*
X172106987Y-104526291D01*
X172098849Y-104528561D01*
X172083251Y-104534762D01*
X172062145Y-104543983D01*
X172037482Y-104555313D01*
X172011213Y-104567840D01*
X171985289Y-104580653D01*
X171961661Y-104592841D01*
X171944771Y-104602067D01*
X171921183Y-104615619D01*
X171896406Y-104630128D01*
X171872964Y-104644090D01*
X171853386Y-104655997D01*
X171840196Y-104664344D01*
X171839227Y-104664991D01*
X171787370Y-104702492D01*
X171734658Y-104745257D01*
X171683528Y-104791070D01*
X171636416Y-104837712D01*
X171595759Y-104882968D01*
X171584579Y-104896708D01*
X171570634Y-104914018D01*
X171558971Y-104927902D01*
X171551232Y-104936434D01*
X171549219Y-104938159D01*
X171545295Y-104944213D01*
X171545250Y-104944995D01*
X171541953Y-104952170D01*
X171534419Y-104961694D01*
X171526795Y-104971595D01*
X171515492Y-104988331D01*
X171501985Y-105009494D01*
X171487751Y-105032677D01*
X171474266Y-105055472D01*
X171463004Y-105075471D01*
X171455442Y-105090265D01*
X171454956Y-105091342D01*
X171448925Y-105102667D01*
X171443953Y-105108251D01*
X171443417Y-105108375D01*
X171439764Y-105112622D01*
X171439417Y-105115524D01*
X171437063Y-105124010D01*
X171431037Y-105137934D01*
X171426188Y-105147554D01*
X171418676Y-105162966D01*
X171413883Y-105175270D01*
X171412959Y-105179651D01*
X171410504Y-105187410D01*
X171408990Y-105188631D01*
X171405351Y-105194354D01*
X171399475Y-105208051D01*
X171392118Y-105227545D01*
X171384034Y-105250659D01*
X171375976Y-105275215D01*
X171368700Y-105299036D01*
X171362958Y-105319944D01*
X171361645Y-105325333D01*
X171356816Y-105344772D01*
X171352227Y-105361259D01*
X171349210Y-105370312D01*
X171345349Y-105382934D01*
X171342065Y-105398847D01*
X171341977Y-105399416D01*
X171339973Y-105411953D01*
X171336675Y-105432065D01*
X171332554Y-105456892D01*
X171328442Y-105481437D01*
X171324507Y-105507522D01*
X171321552Y-105534135D01*
X171319442Y-105563460D01*
X171318041Y-105597680D01*
X171317217Y-105638977D01*
X171316941Y-105668237D01*
X171316907Y-105703428D01*
X171317253Y-105735114D01*
X171317932Y-105761753D01*
X171318895Y-105781800D01*
X171320095Y-105793711D01*
X171320888Y-105796290D01*
X171327103Y-105795466D01*
X171340593Y-105789213D01*
X171360010Y-105778235D01*
X171383209Y-105763752D01*
X171425878Y-105736892D01*
X171468415Y-105711850D01*
X171513041Y-105687433D01*
X171561976Y-105662450D01*
X171617440Y-105635710D01*
X171651084Y-105620031D01*
X171686498Y-105603758D01*
X171715275Y-105590687D01*
X171736644Y-105581160D01*
X171749839Y-105575522D01*
X171754017Y-105574041D01*
X171759473Y-105572007D01*
X171772202Y-105566577D01*
X171789855Y-105558764D01*
X171797541Y-105555302D01*
X171817860Y-105546131D01*
X171835504Y-105538218D01*
X171847456Y-105532914D01*
X171849521Y-105532016D01*
X171860356Y-105527316D01*
X171876412Y-105520299D01*
X171886563Y-105515846D01*
X171918212Y-105502021D01*
X171941364Y-105492101D01*
X171957151Y-105485604D01*
X171960646Y-105484240D01*
X171976695Y-105477354D01*
X171999193Y-105466752D01*
X172025338Y-105453857D01*
X172052325Y-105440089D01*
X172077352Y-105426868D01*
X172097614Y-105415616D01*
X172106167Y-105410495D01*
X172122640Y-105398718D01*
X172141817Y-105382816D01*
X172162061Y-105364427D01*
X172181737Y-105345188D01*
X172199209Y-105326736D01*
X172212840Y-105310708D01*
X172220994Y-105298743D01*
X172222584Y-105293984D01*
X172226494Y-105287639D01*
X172226991Y-105287409D01*
X172232019Y-105282200D01*
X172240403Y-105270700D01*
X172250276Y-105255826D01*
X172259775Y-105240494D01*
X172267035Y-105227619D01*
X172270190Y-105220117D01*
X172270209Y-105219838D01*
X172274000Y-105213529D01*
X172274427Y-105213326D01*
X172279013Y-105207910D01*
X172286025Y-105196059D01*
X172290297Y-105187750D01*
X172296863Y-105175311D01*
X172301169Y-105169024D01*
X172302124Y-105169229D01*
X172302267Y-105176002D01*
X172302556Y-105191563D01*
X172302961Y-105214114D01*
X172303448Y-105241861D01*
X172303930Y-105269770D01*
X172305484Y-105321059D01*
X172308614Y-105364125D01*
X172313909Y-105401285D01*
X172321955Y-105434855D01*
X172333341Y-105467149D01*
X172348655Y-105500482D01*
X172368484Y-105537172D01*
X172374473Y-105547583D01*
X172383516Y-105562851D01*
X172396792Y-105584887D01*
X172412945Y-105611473D01*
X172430616Y-105640392D01*
X172448447Y-105669427D01*
X172465079Y-105696361D01*
X172479156Y-105718975D01*
X172488782Y-105734217D01*
X172498574Y-105749882D01*
X172505588Y-105761817D01*
X172508333Y-105767482D01*
X172508334Y-105767513D01*
X172511332Y-105773428D01*
X172513875Y-105776671D01*
X172520955Y-105786037D01*
X172530360Y-105799955D01*
X172540309Y-105815578D01*
X172549021Y-105830061D01*
X172554717Y-105840559D01*
X172555959Y-105843937D01*
X172559841Y-105850012D01*
X172560012Y-105850090D01*
X172564670Y-105855360D01*
X172572600Y-105867128D01*
X172582113Y-105882543D01*
X172591522Y-105898754D01*
X172599137Y-105912911D01*
X172603271Y-105922162D01*
X172603584Y-105923670D01*
X172606830Y-105928534D01*
X172607553Y-105928624D01*
X172612608Y-105932852D01*
X172617270Y-105940530D01*
X172621700Y-105949499D01*
X172629831Y-105965801D01*
X172640602Y-105987313D01*
X172652953Y-106011918D01*
X172656283Y-106018541D01*
X172670714Y-106047357D01*
X172681369Y-106069018D01*
X172689301Y-106085791D01*
X172695561Y-106099940D01*
X172701201Y-106113728D01*
X172704834Y-106123052D01*
X172710776Y-106138191D01*
X172714260Y-106146864D01*
X172718532Y-106158565D01*
X172724292Y-106175799D01*
X172728124Y-106187875D01*
X172736107Y-106212123D01*
X172742605Y-106226974D01*
X172748629Y-106233317D01*
X172755196Y-106232039D01*
X172763317Y-106224026D01*
X172765851Y-106220896D01*
X172776996Y-106207041D01*
X172787018Y-106194935D01*
X172802304Y-106176747D01*
X172813524Y-106162890D01*
X172823557Y-106149711D01*
X172834096Y-106135209D01*
X172843907Y-106120672D01*
X172850513Y-106109198D01*
X172852292Y-106104340D01*
X172855744Y-106097549D01*
X172856700Y-106097034D01*
X172862879Y-106090832D01*
X172872580Y-106076612D01*
X172884942Y-106055993D01*
X172899108Y-106030592D01*
X172914218Y-106002026D01*
X172929415Y-105971913D01*
X172943841Y-105941871D01*
X172956636Y-105913517D01*
X172965750Y-105891541D01*
X172972337Y-105875335D01*
X172978097Y-105862143D01*
X172979835Y-105858540D01*
X172983998Y-105845106D01*
X172984584Y-105839009D01*
X172986998Y-105828849D01*
X172989875Y-105825395D01*
X172994009Y-105818083D01*
X172995167Y-105809520D01*
X172996935Y-105798601D01*
X172999874Y-105794007D01*
X173003860Y-105787217D01*
X173007111Y-105774716D01*
X173007250Y-105773851D01*
X173010334Y-105758797D01*
X173015297Y-105739190D01*
X173018624Y-105727500D01*
X173023421Y-105710705D01*
X173027851Y-105693208D01*
X173032465Y-105672549D01*
X173037814Y-105646268D01*
X173044103Y-105613729D01*
X173046118Y-105597184D01*
X173047738Y-105572034D01*
X173048964Y-105540127D01*
X173049796Y-105503317D01*
X173050236Y-105463454D01*
X173050284Y-105422389D01*
X173049942Y-105381973D01*
X173049210Y-105344059D01*
X173048090Y-105310496D01*
X173046582Y-105283137D01*
X173044689Y-105263833D01*
X173043907Y-105259187D01*
X173039408Y-105237018D01*
X173034897Y-105214736D01*
X173032653Y-105203625D01*
X173028154Y-105184216D01*
X173022107Y-105161624D01*
X173018886Y-105150708D01*
X173013304Y-105131055D01*
X173008835Y-105112617D01*
X173007250Y-105104357D01*
X173004104Y-105091658D01*
X173000113Y-105084367D01*
X172999874Y-105084201D01*
X172996205Y-105077199D01*
X172995167Y-105068687D01*
X172993170Y-105057606D01*
X172989875Y-105052812D01*
X172985441Y-105045353D01*
X172984584Y-105039199D01*
X172982167Y-105025351D01*
X172979938Y-105019667D01*
X172970974Y-105000529D01*
X172963574Y-104982201D01*
X172958995Y-104967971D01*
X172958125Y-104962674D01*
X172955211Y-104955748D01*
X172952834Y-104954916D01*
X172947838Y-104950784D01*
X172947542Y-104948757D01*
X172945029Y-104938598D01*
X172938034Y-104920966D01*
X172927376Y-104897552D01*
X172913874Y-104870043D01*
X172898348Y-104840128D01*
X172881615Y-104809495D01*
X172870989Y-104790875D01*
X172859739Y-104771493D01*
X172849325Y-104753511D01*
X172841972Y-104740766D01*
X172841878Y-104740604D01*
X172835802Y-104730895D01*
X172825596Y-104715470D01*
X172812613Y-104696284D01*
X172798206Y-104675291D01*
X172783728Y-104654446D01*
X172770532Y-104635702D01*
X172759969Y-104621015D01*
X172753394Y-104612337D01*
X172752149Y-104610958D01*
X172747415Y-104605477D01*
X172738820Y-104594467D01*
X172733310Y-104587145D01*
X172712344Y-104560459D01*
X172689083Y-104534196D01*
X172672055Y-104516423D01*
X172654724Y-104497815D01*
X172643877Y-104482706D01*
X172638021Y-104467635D01*
X172635663Y-104449143D01*
X172635294Y-104431187D01*
X172633985Y-104399889D01*
X172630457Y-104364483D01*
X172625224Y-104328327D01*
X172618800Y-104294777D01*
X172611697Y-104267193D01*
X172608961Y-104259062D01*
X172604846Y-104247204D01*
X172599579Y-104231155D01*
X172598354Y-104227312D01*
X172593279Y-104213164D01*
X172585761Y-104194422D01*
X172576898Y-104173569D01*
X172567790Y-104153087D01*
X172559537Y-104135458D01*
X172553237Y-104123167D01*
X172550328Y-104118833D01*
X172545622Y-104112578D01*
X172540123Y-104102958D01*
X172531342Y-104087550D01*
X172519322Y-104068415D01*
X172506213Y-104048774D01*
X172494167Y-104031852D01*
X172485395Y-104020937D01*
X172475701Y-104009808D01*
X172464115Y-103995534D01*
X172461492Y-103992166D01*
X172450995Y-103979837D01*
X172434820Y-103962341D01*
X172415010Y-103941751D01*
X172393607Y-103920137D01*
X172372655Y-103899571D01*
X172354197Y-103882124D01*
X172343731Y-103872770D01*
X172299403Y-103835157D01*
X172260621Y-103803319D01*
X172225358Y-103775642D01*
X172191585Y-103750510D01*
X172177605Y-103740502D01*
X172159641Y-103727669D01*
X172144341Y-103716536D01*
X172134293Y-103708995D01*
X172132625Y-103707662D01*
X172125402Y-103702435D01*
X172111185Y-103692750D01*
X172091876Y-103679883D01*
X172069377Y-103665113D01*
X172063834Y-103661504D01*
X172041035Y-103646586D01*
X172021146Y-103633389D01*
X172006010Y-103623148D01*
X171997470Y-103617099D01*
X171996588Y-103616392D01*
X171989619Y-103611468D01*
X171987761Y-103610833D01*
X171982676Y-103608146D01*
X171970295Y-103600745D01*
X171952238Y-103589621D01*
X171930122Y-103575767D01*
X171918637Y-103568500D01*
X171894911Y-103553648D01*
X171874191Y-103541074D01*
X171858177Y-103531778D01*
X171848570Y-103526761D01*
X171846767Y-103526166D01*
X171841734Y-103522136D01*
X171841584Y-103520875D01*
X171837597Y-103515736D01*
X171836346Y-103515583D01*
X171829735Y-103512891D01*
X171816734Y-103505728D01*
X171799782Y-103495462D01*
X171793959Y-103491770D01*
X171776261Y-103480806D01*
X171761739Y-103472508D01*
X171752832Y-103468246D01*
X171751571Y-103467958D01*
X171746486Y-103463929D01*
X171746334Y-103462666D01*
X171742255Y-103457592D01*
X171740646Y-103457375D01*
X171733821Y-103454660D01*
X171720679Y-103447443D01*
X171703693Y-103437108D01*
X171698148Y-103433562D01*
X171680568Y-103422567D01*
X171666176Y-103414260D01*
X171657403Y-103410021D01*
X171656210Y-103409750D01*
X171651232Y-103405718D01*
X171651084Y-103404458D01*
X171646956Y-103399455D01*
X171644969Y-103399166D01*
X171637181Y-103396173D01*
X171625284Y-103388712D01*
X171621509Y-103385937D01*
X171610048Y-103377672D01*
X171602434Y-103373056D01*
X171601331Y-103372708D01*
X171595835Y-103369882D01*
X171583094Y-103362045D01*
X171564600Y-103350159D01*
X171541846Y-103335185D01*
X171516324Y-103318086D01*
X171511023Y-103314500D01*
X171499684Y-103306904D01*
X171484121Y-103296585D01*
X171475980Y-103291219D01*
X171462479Y-103281753D01*
X171453223Y-103274158D01*
X171450882Y-103271375D01*
X171444806Y-103267063D01*
X171442945Y-103266868D01*
X171435268Y-103263638D01*
X171423934Y-103255630D01*
X171420896Y-103253087D01*
X171406832Y-103241737D01*
X171389329Y-103228715D01*
X171381209Y-103223015D01*
X171367484Y-103213373D01*
X171357678Y-103206018D01*
X171354750Y-103203444D01*
X171349253Y-103198619D01*
X171338216Y-103189997D01*
X171330973Y-103184574D01*
X171283604Y-103146681D01*
X171232518Y-103100376D01*
X171178734Y-103046710D01*
X171123270Y-102986736D01*
X171067146Y-102921505D01*
X171021249Y-102864708D01*
X171004944Y-102844084D01*
X170990225Y-102825696D01*
X170978765Y-102811621D01*
X170972459Y-102804179D01*
X170965368Y-102793882D01*
X170963167Y-102786981D01*
X170960643Y-102780596D01*
X170959024Y-102780041D01*
X170954737Y-102775871D01*
X170945884Y-102764445D01*
X170933655Y-102747385D01*
X170919240Y-102726315D01*
X170915368Y-102720510D01*
X170900569Y-102698511D01*
X170887685Y-102679912D01*
X170877909Y-102666396D01*
X170872435Y-102659645D01*
X170871886Y-102659215D01*
X170867965Y-102653159D01*
X170867917Y-102652346D01*
X170865264Y-102645466D01*
X170858368Y-102632748D01*
X170850453Y-102619714D01*
X170839654Y-102601365D01*
X170826416Y-102576850D01*
X170811722Y-102548213D01*
X170796552Y-102517497D01*
X170781890Y-102486745D01*
X170768715Y-102458002D01*
X170758010Y-102433310D01*
X170750757Y-102414712D01*
X170748516Y-102407513D01*
X170744318Y-102396152D01*
X170740331Y-102390741D01*
X170736663Y-102383741D01*
X170735625Y-102375229D01*
X170733628Y-102364148D01*
X170730334Y-102359354D01*
X170726200Y-102352041D01*
X170725042Y-102343479D01*
X170723293Y-102332573D01*
X170720382Y-102327994D01*
X170715655Y-102321016D01*
X170713082Y-102313130D01*
X170710261Y-102301632D01*
X170705684Y-102284238D01*
X170701633Y-102269395D01*
X170694769Y-102244053D01*
X170689128Y-102221439D01*
X170684304Y-102199357D01*
X170679891Y-102175614D01*
X170675480Y-102148014D01*
X170670666Y-102114363D01*
X170665041Y-102072466D01*
X170664842Y-102070958D01*
X170662857Y-102054047D01*
X170661279Y-102035849D01*
X170660088Y-102015208D01*
X170659268Y-101990972D01*
X170658799Y-101961986D01*
X170658665Y-101927098D01*
X170658845Y-101885152D01*
X170659323Y-101834996D01*
X170660081Y-101775476D01*
X170660129Y-101771979D01*
X170661183Y-101693737D01*
X170662024Y-101625286D01*
X170662649Y-101565836D01*
X170663050Y-101514597D01*
X170663225Y-101470778D01*
X170663167Y-101433589D01*
X170662870Y-101402240D01*
X170662331Y-101375940D01*
X170661544Y-101353899D01*
X170660503Y-101335327D01*
X170659204Y-101319434D01*
X170657642Y-101305430D01*
X170657058Y-101301020D01*
X170644931Y-101230076D01*
X170628382Y-101164082D01*
X170606704Y-101101698D01*
X170579192Y-101041582D01*
X170545139Y-100982392D01*
X170503839Y-100922786D01*
X170454585Y-100861424D01*
X170396670Y-100796962D01*
X170385378Y-100785038D01*
X170370111Y-100768201D01*
X170353199Y-100748227D01*
X170336221Y-100727146D01*
X170320755Y-100706986D01*
X170308378Y-100689778D01*
X170300670Y-100677550D01*
X170299117Y-100674128D01*
X170294368Y-100665486D01*
X170290769Y-100663375D01*
X170286096Y-100659242D01*
X170285834Y-100657287D01*
X170283727Y-100649535D01*
X170278257Y-100635569D01*
X170272050Y-100621569D01*
X170262555Y-100601014D01*
X170255649Y-100585042D01*
X170250596Y-100571026D01*
X170246662Y-100556342D01*
X170243112Y-100538364D01*
X170239211Y-100514469D01*
X170235721Y-100491796D01*
X170233891Y-100475647D01*
X170232141Y-100452560D01*
X170230518Y-100424258D01*
X170229071Y-100392465D01*
X170227847Y-100358905D01*
X170226895Y-100325303D01*
X170226261Y-100293383D01*
X170225994Y-100264868D01*
X170226141Y-100241483D01*
X170226751Y-100224951D01*
X170227871Y-100216997D01*
X170228092Y-100216644D01*
X170233232Y-100218202D01*
X170243259Y-100225146D01*
X170249012Y-100229898D01*
X170264248Y-100242810D01*
X170279193Y-100255021D01*
X170282278Y-100257458D01*
X170297288Y-100270050D01*
X170316600Y-100287502D01*
X170338446Y-100308076D01*
X170361060Y-100330037D01*
X170382677Y-100351646D01*
X170401529Y-100371167D01*
X170415851Y-100386863D01*
X170423313Y-100396145D01*
X170433901Y-100413197D01*
X170447979Y-100438613D01*
X170465732Y-100472749D01*
X170487346Y-100515961D01*
X170507657Y-100557541D01*
X170518891Y-100580275D01*
X170530022Y-100602039D01*
X170539185Y-100619208D01*
X170541712Y-100623687D01*
X170552172Y-100641905D01*
X170563689Y-100662203D01*
X170567324Y-100668666D01*
X170578158Y-100687938D01*
X170589331Y-100707727D01*
X170592686Y-100713645D01*
X170606961Y-100739301D01*
X170622768Y-100768566D01*
X170639358Y-100799956D01*
X170655977Y-100831988D01*
X170671875Y-100863178D01*
X170686301Y-100892041D01*
X170698502Y-100917094D01*
X170707729Y-100936854D01*
X170713228Y-100949836D01*
X170714459Y-100954134D01*
X170716694Y-100963398D01*
X170719133Y-100969040D01*
X170740624Y-101022652D01*
X170752049Y-101078588D01*
X170753248Y-101135602D01*
X170746615Y-101181710D01*
X170739800Y-101222990D01*
X170736158Y-101268141D01*
X170735711Y-101313762D01*
X170738480Y-101356452D01*
X170744488Y-101392809D01*
X170745253Y-101395912D01*
X170750667Y-101414242D01*
X170756100Y-101428035D01*
X170760440Y-101434500D01*
X170760697Y-101434614D01*
X170767877Y-101432096D01*
X170774522Y-101421302D01*
X170779787Y-101404530D01*
X170782828Y-101384084D01*
X170783250Y-101373153D01*
X170783858Y-101349548D01*
X170786007Y-101335193D01*
X170790190Y-101328807D01*
X170796897Y-101329109D01*
X170799654Y-101330408D01*
X170807810Y-101338005D01*
X170809709Y-101343540D01*
X170812626Y-101350462D01*
X170815000Y-101351291D01*
X170819449Y-101355673D01*
X170820292Y-101360816D01*
X170822520Y-101371727D01*
X170824618Y-101375368D01*
X170829502Y-101385836D01*
X170834366Y-101404754D01*
X170838816Y-101429997D01*
X170842455Y-101459440D01*
X170844275Y-101480937D01*
X170847724Y-101517030D01*
X170852741Y-101544628D01*
X170859782Y-101565757D01*
X170866084Y-101577665D01*
X170872209Y-101585801D01*
X170877442Y-101585449D01*
X170882424Y-101580957D01*
X170885711Y-101576233D01*
X170888123Y-101568567D01*
X170889811Y-101556396D01*
X170890926Y-101538159D01*
X170891619Y-101512293D01*
X170892001Y-101481584D01*
X170892622Y-101444394D01*
X170893817Y-101417560D01*
X170895719Y-101400863D01*
X170898463Y-101394084D01*
X170902185Y-101397005D01*
X170907017Y-101409406D01*
X170913094Y-101431069D01*
X170915976Y-101442572D01*
X170925016Y-101479358D01*
X170933226Y-101512419D01*
X170938268Y-101532551D01*
X170945201Y-101553865D01*
X170954473Y-101574712D01*
X170959906Y-101584144D01*
X170971950Y-101599736D01*
X170980759Y-101605290D01*
X170986300Y-101600856D01*
X170988541Y-101586484D01*
X170987450Y-101562222D01*
X170985483Y-101545178D01*
X170981961Y-101520895D01*
X170978010Y-101497040D01*
X170974428Y-101478407D01*
X170974111Y-101476968D01*
X170969421Y-101455945D01*
X170964699Y-101434530D01*
X170963566Y-101429343D01*
X170959028Y-101409430D01*
X170954228Y-101389694D01*
X170953534Y-101386982D01*
X170951217Y-101373701D01*
X170951851Y-101365405D01*
X170952556Y-101364538D01*
X170958599Y-101366505D01*
X170966534Y-101377964D01*
X170975891Y-101398092D01*
X170984156Y-101420083D01*
X170998126Y-101458723D01*
X171010019Y-101488049D01*
X171020359Y-101509006D01*
X171029666Y-101522539D01*
X171038462Y-101529593D01*
X171045494Y-101531208D01*
X171050124Y-101530046D01*
X171052356Y-101525085D01*
X171052511Y-101514109D01*
X171050915Y-101494902D01*
X171050871Y-101494449D01*
X171047151Y-101468616D01*
X171041316Y-101440196D01*
X171036452Y-101421689D01*
X171028855Y-101395869D01*
X171024210Y-101378549D01*
X171022209Y-101368158D01*
X171022543Y-101363129D01*
X171024727Y-101361886D01*
X171030018Y-101365930D01*
X171038691Y-101376303D01*
X171045188Y-101385386D01*
X171056910Y-101400355D01*
X171068449Y-101411249D01*
X171078032Y-101416870D01*
X171083887Y-101416021D01*
X171084875Y-101412217D01*
X171081353Y-101393848D01*
X171070938Y-101368126D01*
X171053859Y-101335526D01*
X171030345Y-101296524D01*
X171026240Y-101290094D01*
X171011449Y-101266907D01*
X170998948Y-101246982D01*
X170989748Y-101231955D01*
X170984859Y-101223464D01*
X170984334Y-101222227D01*
X170981400Y-101214535D01*
X170973670Y-101200858D01*
X170962754Y-101183634D01*
X170950261Y-101165302D01*
X170937802Y-101148302D01*
X170926985Y-101135072D01*
X170926386Y-101134411D01*
X170906498Y-101108689D01*
X170887926Y-101076161D01*
X170870083Y-101035627D01*
X170852382Y-100985889D01*
X170849915Y-100978229D01*
X170841796Y-100953163D01*
X170834430Y-100931199D01*
X170828601Y-100914631D01*
X170825098Y-100905751D01*
X170824993Y-100905540D01*
X170820872Y-100892104D01*
X170820292Y-100886009D01*
X170817878Y-100875849D01*
X170815000Y-100872395D01*
X170810456Y-100864885D01*
X170809709Y-100859512D01*
X170807644Y-100849703D01*
X170802292Y-100834113D01*
X170796480Y-100819986D01*
X170789387Y-100802299D01*
X170784585Y-100787171D01*
X170783250Y-100779568D01*
X170780778Y-100765715D01*
X170778415Y-100759876D01*
X170774766Y-100750895D01*
X170769109Y-100734675D01*
X170762206Y-100713663D01*
X170754818Y-100690307D01*
X170747705Y-100667057D01*
X170741628Y-100646359D01*
X170737350Y-100630664D01*
X170735631Y-100622419D01*
X170735625Y-100622228D01*
X170733334Y-100612102D01*
X170730900Y-100606417D01*
X170727303Y-100597467D01*
X170721634Y-100581200D01*
X170714857Y-100560435D01*
X170711463Y-100549604D01*
X170704708Y-100528269D01*
X170698819Y-100510640D01*
X170694664Y-100499272D01*
X170693480Y-100496687D01*
X170689890Y-100488595D01*
X170684941Y-100474891D01*
X170683406Y-100470229D01*
X170678657Y-100457645D01*
X170671117Y-100439960D01*
X170662013Y-100419796D01*
X170652572Y-100399775D01*
X170644021Y-100382518D01*
X170637588Y-100370647D01*
X170635103Y-100367041D01*
X170631022Y-100360903D01*
X170624817Y-100349669D01*
X170624494Y-100349045D01*
X170618363Y-100340413D01*
X170606140Y-100325747D01*
X170589159Y-100306556D01*
X170568752Y-100284347D01*
X170547315Y-100261733D01*
X170523810Y-100237184D01*
X170501336Y-100213487D01*
X170481533Y-100192388D01*
X170466038Y-100175629D01*
X170457355Y-100165958D01*
X170445860Y-100152802D01*
X170437274Y-100143090D01*
X170434000Y-100139500D01*
X170429558Y-100134256D01*
X170420598Y-100123211D01*
X170410367Y-100110395D01*
X170399009Y-100096262D01*
X170390235Y-100085685D01*
X170386275Y-100081291D01*
X170381559Y-100075793D01*
X170373020Y-100064750D01*
X170367605Y-100057479D01*
X170358068Y-100044703D01*
X170351164Y-100035806D01*
X170349334Y-100033666D01*
X170344843Y-100028189D01*
X170336421Y-100017187D01*
X170330943Y-100009854D01*
X170319579Y-99995017D01*
X170309160Y-99982216D01*
X170305838Y-99978429D01*
X170298667Y-99968169D01*
X170296417Y-99961231D01*
X170293209Y-99954855D01*
X170291125Y-99954291D01*
X170285987Y-99950304D01*
X170285834Y-99949054D01*
X170283142Y-99942442D01*
X170275979Y-99929442D01*
X170265713Y-99912489D01*
X170262021Y-99906666D01*
X170251107Y-99889320D01*
X170242825Y-99875551D01*
X170238525Y-99867625D01*
X170238209Y-99866670D01*
X170235568Y-99861082D01*
X170228668Y-99849269D01*
X170219688Y-99834872D01*
X170210143Y-99819266D01*
X170203456Y-99807028D01*
X170201167Y-99801171D01*
X170197592Y-99794858D01*
X170197198Y-99794659D01*
X170192550Y-99789635D01*
X170184049Y-99778071D01*
X170173470Y-99762393D01*
X170172659Y-99761145D01*
X170134224Y-99710831D01*
X170089598Y-99668578D01*
X170039518Y-99634917D01*
X169984717Y-99610378D01*
X169949813Y-99600240D01*
X169928137Y-99592862D01*
X169914643Y-99581917D01*
X169907060Y-99565495D01*
X169906659Y-99563962D01*
X169907030Y-99552270D01*
X169911994Y-99541516D01*
X169919323Y-99536312D01*
X169920034Y-99536274D01*
X169925559Y-99539598D01*
X169935661Y-99547964D01*
X169940852Y-99552697D01*
X169954990Y-99563890D01*
X169974192Y-99576535D01*
X169991303Y-99586272D01*
X170014020Y-99596251D01*
X170038885Y-99603188D01*
X170067209Y-99607112D01*
X170100307Y-99608053D01*
X170139494Y-99606041D01*
X170186082Y-99601106D01*
X170241385Y-99593278D01*
X170248792Y-99592127D01*
X170271642Y-99588676D01*
X170291270Y-99585950D01*
X170304819Y-99584334D01*
X170308550Y-99584061D01*
X170319038Y-99588052D01*
X170333993Y-99599362D01*
X170351959Y-99616539D01*
X170371481Y-99638133D01*
X170391102Y-99662690D01*
X170400800Y-99676062D01*
X170422496Y-99704699D01*
X170448677Y-99735576D01*
X170477036Y-99766248D01*
X170505266Y-99794272D01*
X170531059Y-99817204D01*
X170542480Y-99826113D01*
X170556811Y-99836785D01*
X170567434Y-99845051D01*
X170571584Y-99848665D01*
X170577014Y-99852871D01*
X170588697Y-99860856D01*
X170604136Y-99871017D01*
X170620838Y-99881751D01*
X170636310Y-99891457D01*
X170648056Y-99898531D01*
X170653583Y-99901371D01*
X170653630Y-99901374D01*
X170659152Y-99903530D01*
X170671734Y-99909254D01*
X170688945Y-99917432D01*
X170694027Y-99919895D01*
X170712825Y-99928631D01*
X170728465Y-99935147D01*
X170738134Y-99938291D01*
X170739218Y-99938416D01*
X170749876Y-99940699D01*
X170755541Y-99943058D01*
X170778656Y-99952021D01*
X170809687Y-99960147D01*
X170845974Y-99966982D01*
X170884857Y-99972073D01*
X170923676Y-99974966D01*
X170945454Y-99975458D01*
X171015572Y-99970912D01*
X171084492Y-99957693D01*
X171129855Y-99943695D01*
X171140629Y-99939238D01*
X171156736Y-99931953D01*
X171175621Y-99923073D01*
X171194728Y-99913832D01*
X171211503Y-99905462D01*
X171223390Y-99899198D01*
X171227750Y-99896441D01*
X171233283Y-99891607D01*
X171244043Y-99883096D01*
X171248917Y-99879375D01*
X171272269Y-99859750D01*
X171294603Y-99837450D01*
X171314437Y-99814337D01*
X171330294Y-99792277D01*
X171340692Y-99773130D01*
X171344167Y-99759455D01*
X171347566Y-99747728D01*
X171350537Y-99743663D01*
X171353879Y-99734861D01*
X171356026Y-99717994D01*
X171357025Y-99695507D01*
X171356921Y-99669844D01*
X171355760Y-99643452D01*
X171353588Y-99618776D01*
X171350450Y-99598260D01*
X171347616Y-99587432D01*
X171332253Y-99550700D01*
X171313754Y-99522134D01*
X171290260Y-99499967D01*
X171259912Y-99482432D01*
X171222083Y-99468152D01*
X171187844Y-99462398D01*
X171152401Y-99465367D01*
X171118640Y-99476356D01*
X171089445Y-99494660D01*
X171080907Y-99502595D01*
X171068597Y-99515958D01*
X171061866Y-99526496D01*
X171059034Y-99538463D01*
X171058421Y-99556112D01*
X171058417Y-99559550D01*
X171060740Y-99589116D01*
X171068253Y-99611015D01*
X171081769Y-99627217D01*
X171088441Y-99632153D01*
X171107609Y-99640655D01*
X171127633Y-99640267D01*
X171146521Y-99633415D01*
X171158165Y-99626896D01*
X171163021Y-99619481D01*
X171163456Y-99606853D01*
X171163196Y-99602988D01*
X171161521Y-99589148D01*
X171157622Y-99582904D01*
X171149102Y-99581268D01*
X171145730Y-99581229D01*
X171133757Y-99583106D01*
X171128727Y-99590183D01*
X171128164Y-99593135D01*
X171125384Y-99602436D01*
X171122607Y-99605041D01*
X171113721Y-99600126D01*
X171108036Y-99586176D01*
X171106042Y-99564472D01*
X171106926Y-99546665D01*
X171110875Y-99534457D01*
X171119832Y-99522923D01*
X171124216Y-99518429D01*
X171144565Y-99503526D01*
X171169446Y-99495841D01*
X171200554Y-99494954D01*
X171214137Y-99496285D01*
X171244190Y-99505143D01*
X171270323Y-99523759D01*
X171292634Y-99552206D01*
X171294480Y-99555289D01*
X171301344Y-99568314D01*
X171305473Y-99580798D01*
X171307519Y-99596105D01*
X171308132Y-99617601D01*
X171308134Y-99625792D01*
X171307573Y-99650656D01*
X171305568Y-99668892D01*
X171301354Y-99684433D01*
X171294167Y-99701215D01*
X171293003Y-99703633D01*
X171283541Y-99719581D01*
X171270065Y-99737865D01*
X171254405Y-99756490D01*
X171238391Y-99773459D01*
X171223854Y-99786777D01*
X171212622Y-99794447D01*
X171208740Y-99795541D01*
X171201348Y-99798381D01*
X171200410Y-99799759D01*
X171194425Y-99804729D01*
X171181186Y-99811909D01*
X171163444Y-99820057D01*
X171143948Y-99827925D01*
X171125448Y-99834270D01*
X171121917Y-99835301D01*
X171067501Y-99847438D01*
X171017864Y-99851707D01*
X170972784Y-99848578D01*
X170951052Y-99845045D01*
X170932382Y-99841471D01*
X170920039Y-99838495D01*
X170918188Y-99837867D01*
X170888442Y-99825898D01*
X170866132Y-99815964D01*
X170848735Y-99806515D01*
X170833727Y-99796004D01*
X170818586Y-99782881D01*
X170801375Y-99766183D01*
X170788062Y-99750635D01*
X170773324Y-99729758D01*
X170758501Y-99705934D01*
X170744934Y-99681544D01*
X170733965Y-99658970D01*
X170726932Y-99640593D01*
X170725042Y-99630567D01*
X170729301Y-99620294D01*
X170741113Y-99605669D01*
X170759036Y-99587910D01*
X170781626Y-99568235D01*
X170807438Y-99547862D01*
X170835028Y-99528010D01*
X170862952Y-99509897D01*
X170879486Y-99500250D01*
X170894099Y-99492384D01*
X170913617Y-99482193D01*
X170934331Y-99471579D01*
X170952532Y-99462445D01*
X170963167Y-99457308D01*
X170974136Y-99453159D01*
X170992509Y-99447126D01*
X171015466Y-99440052D01*
X171040186Y-99432778D01*
X171063846Y-99426146D01*
X171083626Y-99420998D01*
X171089556Y-99419602D01*
X171110110Y-99416550D01*
X171138426Y-99414472D01*
X171171725Y-99413369D01*
X171207232Y-99413241D01*
X171242168Y-99414088D01*
X171273758Y-99415910D01*
X171299223Y-99418707D01*
X171304480Y-99419591D01*
X171365986Y-99435147D01*
X171427273Y-99458431D01*
X171486037Y-99488217D01*
X171539975Y-99523278D01*
X171586783Y-99562389D01*
X171602408Y-99578258D01*
X171615590Y-99593962D01*
X171631753Y-99615334D01*
X171648668Y-99639199D01*
X171664110Y-99662381D01*
X171675849Y-99681701D01*
X171678720Y-99687062D01*
X171695652Y-99727827D01*
X171708886Y-99774191D01*
X171717314Y-99821490D01*
X171719875Y-99860322D01*
X171719082Y-99881903D01*
X171716964Y-99905929D01*
X171713909Y-99929723D01*
X171710311Y-99950607D01*
X171706558Y-99965903D01*
X171703506Y-99972547D01*
X171699293Y-99981860D01*
X171698709Y-99986939D01*
X171696222Y-99997263D01*
X171690012Y-100011638D01*
X171687534Y-100016307D01*
X171659233Y-100059278D01*
X171626923Y-100094685D01*
X171591643Y-100121619D01*
X171554435Y-100139175D01*
X171542605Y-100142588D01*
X171526721Y-100144813D01*
X171504011Y-100146001D01*
X171478177Y-100146165D01*
X171452924Y-100145323D01*
X171431956Y-100143490D01*
X171423660Y-100142080D01*
X171393274Y-100130926D01*
X171362728Y-100112206D01*
X171335351Y-100088346D01*
X171315184Y-100062933D01*
X171308964Y-100046217D01*
X171305663Y-100023125D01*
X171305326Y-99997468D01*
X171308001Y-99973055D01*
X171313735Y-99953699D01*
X171313839Y-99953477D01*
X171328167Y-99931510D01*
X171346286Y-99916006D01*
X171360086Y-99910227D01*
X171374976Y-99908888D01*
X171382130Y-99914261D01*
X171382117Y-99927066D01*
X171379964Y-99935320D01*
X171376524Y-99948938D01*
X171377737Y-99957114D01*
X171384491Y-99964296D01*
X171385997Y-99965531D01*
X171400901Y-99973968D01*
X171415289Y-99973347D01*
X171431416Y-99963423D01*
X171435176Y-99960186D01*
X171445204Y-99950060D01*
X171450308Y-99940143D01*
X171452105Y-99926204D01*
X171452268Y-99915432D01*
X171451274Y-99896179D01*
X171447455Y-99883221D01*
X171439558Y-99872387D01*
X171439228Y-99872033D01*
X171415442Y-99854297D01*
X171385151Y-99844843D01*
X171362688Y-99843166D01*
X171327467Y-99847888D01*
X171296893Y-99862081D01*
X171270907Y-99885785D01*
X171249448Y-99919042D01*
X171248245Y-99921462D01*
X171239026Y-99949560D01*
X171235068Y-99982769D01*
X171236356Y-100017062D01*
X171242874Y-100048412D01*
X171248766Y-100063108D01*
X171257743Y-100077918D01*
X171270316Y-100094822D01*
X171284526Y-100111623D01*
X171298414Y-100126128D01*
X171310019Y-100136141D01*
X171316970Y-100139500D01*
X171323528Y-100142964D01*
X171323882Y-100143636D01*
X171329591Y-100148197D01*
X171342508Y-100155330D01*
X171359977Y-100163776D01*
X171379341Y-100172280D01*
X171397942Y-100179582D01*
X171405021Y-100182033D01*
X171421216Y-100185292D01*
X171445869Y-100187585D01*
X171476887Y-100188749D01*
X171492334Y-100188860D01*
X171535207Y-100187395D01*
X171570863Y-100182613D01*
X171602361Y-100173713D01*
X171632764Y-100159897D01*
X171656375Y-100146026D01*
X171673963Y-100133332D01*
X171694134Y-100116300D01*
X171715353Y-100096535D01*
X171736081Y-100075644D01*
X171754783Y-100055234D01*
X171769922Y-100036909D01*
X171779961Y-100022278D01*
X171783375Y-100013277D01*
X171786970Y-100007530D01*
X171788667Y-100007208D01*
X171793027Y-100002796D01*
X171793959Y-99997065D01*
X171795752Y-99987797D01*
X171797928Y-99985159D01*
X171803187Y-99978843D01*
X171810518Y-99965057D01*
X171818787Y-99946417D01*
X171826863Y-99925539D01*
X171833610Y-99905040D01*
X171835371Y-99898729D01*
X171846651Y-99835851D01*
X171848159Y-99771472D01*
X171844481Y-99734537D01*
X171839989Y-99704478D01*
X171836165Y-99682032D01*
X171832140Y-99664344D01*
X171827044Y-99648555D01*
X171820007Y-99631810D01*
X171810158Y-99611250D01*
X171801822Y-99594458D01*
X171788711Y-99568282D01*
X171779108Y-99549657D01*
X171771881Y-99536620D01*
X171765903Y-99527207D01*
X171760044Y-99519456D01*
X171755745Y-99514357D01*
X171744818Y-99501289D01*
X171731958Y-99485354D01*
X171727813Y-99480095D01*
X171718482Y-99468652D01*
X171708479Y-99457719D01*
X171695822Y-99445329D01*
X171678529Y-99429517D01*
X171661667Y-99414534D01*
X171641310Y-99398259D01*
X171613981Y-99378809D01*
X171582166Y-99357758D01*
X171548351Y-99336682D01*
X171515021Y-99317155D01*
X171484663Y-99300750D01*
X171472545Y-99294764D01*
X171445333Y-99281114D01*
X171427944Y-99270664D01*
X171420156Y-99263273D01*
X171419689Y-99261083D01*
X171423394Y-99256140D01*
X171433588Y-99250949D01*
X171451380Y-99245121D01*
X171477877Y-99238266D01*
X171497625Y-99233676D01*
X171518089Y-99228965D01*
X171538671Y-99224101D01*
X171542605Y-99223152D01*
X171561329Y-99219045D01*
X171582998Y-99214890D01*
X171590230Y-99213644D01*
X171606985Y-99210816D01*
X171630431Y-99206778D01*
X171656839Y-99202174D01*
X171672250Y-99199462D01*
X171706873Y-99194832D01*
X171748502Y-99191624D01*
X171794489Y-99189835D01*
X171842182Y-99189462D01*
X171888933Y-99190502D01*
X171932089Y-99192953D01*
X171969001Y-99196810D01*
X171987105Y-99199810D01*
X172021073Y-99206604D01*
X172046871Y-99211850D01*
X172066706Y-99216079D01*
X172082787Y-99219819D01*
X172097320Y-99223600D01*
X172112512Y-99227953D01*
X172130572Y-99233407D01*
X172143209Y-99237277D01*
X172168046Y-99245913D01*
X172197231Y-99257667D01*
X172228495Y-99271452D01*
X172259569Y-99286183D01*
X172288186Y-99300773D01*
X172312076Y-99314136D01*
X172328971Y-99325186D01*
X172332197Y-99327767D01*
X172342932Y-99336114D01*
X172350370Y-99340328D01*
X172351089Y-99340451D01*
X172358601Y-99344403D01*
X172370892Y-99355054D01*
X172386413Y-99370621D01*
X172403614Y-99389320D01*
X172420948Y-99409369D01*
X172436864Y-99428984D01*
X172449814Y-99446381D01*
X172458247Y-99459778D01*
X172460709Y-99466647D01*
X172464241Y-99473246D01*
X172464983Y-99473631D01*
X172469341Y-99479096D01*
X172476494Y-99491592D01*
X172485129Y-99508396D01*
X172493935Y-99526784D01*
X172501600Y-99544033D01*
X172506811Y-99557421D01*
X172508334Y-99563623D01*
X172511231Y-99573956D01*
X172512796Y-99576202D01*
X172516976Y-99584477D01*
X172522635Y-99600363D01*
X172528940Y-99621143D01*
X172535057Y-99644098D01*
X172539478Y-99663250D01*
X172543649Y-99682997D01*
X172548495Y-99705916D01*
X172550664Y-99716166D01*
X172553255Y-99736359D01*
X172554532Y-99763949D01*
X172554564Y-99795843D01*
X172553424Y-99828948D01*
X172551182Y-99860167D01*
X172547911Y-99886408D01*
X172546576Y-99893648D01*
X172538991Y-99922002D01*
X172527494Y-99955032D01*
X172513681Y-99988774D01*
X172499151Y-100019267D01*
X172488146Y-100038561D01*
X172476768Y-100054542D01*
X172461865Y-100072986D01*
X172445118Y-100092101D01*
X172428208Y-100110100D01*
X172412818Y-100125192D01*
X172400628Y-100135588D01*
X172393322Y-100139499D01*
X172393284Y-100139500D01*
X172387098Y-100142236D01*
X172386625Y-100143838D01*
X172382085Y-100148185D01*
X172370108Y-100155142D01*
X172353161Y-100163586D01*
X172333712Y-100172393D01*
X172314228Y-100180442D01*
X172297175Y-100186609D01*
X172286084Y-100189597D01*
X172271002Y-100191789D01*
X172250204Y-100194166D01*
X172231008Y-100195966D01*
X172185228Y-100195335D01*
X172138860Y-100186636D01*
X172093799Y-100170814D01*
X172051940Y-100148816D01*
X172015180Y-100121587D01*
X171985413Y-100090073D01*
X171969483Y-100065466D01*
X171963835Y-100049080D01*
X171960143Y-100026789D01*
X171958400Y-100001371D01*
X171958597Y-99975601D01*
X171960726Y-99952256D01*
X171964778Y-99934111D01*
X171969907Y-99924671D01*
X171973641Y-99916260D01*
X171973875Y-99913608D01*
X171977874Y-99900762D01*
X171988199Y-99885091D01*
X172002341Y-99869597D01*
X172017795Y-99857287D01*
X172023640Y-99853995D01*
X172038929Y-99847575D01*
X172050227Y-99846281D01*
X172062478Y-99849566D01*
X172062752Y-99849669D01*
X172075124Y-99857305D01*
X172079526Y-99866369D01*
X172075399Y-99874411D01*
X172069125Y-99877562D01*
X172061619Y-99882886D01*
X172058745Y-99894341D01*
X172058576Y-99900408D01*
X172060312Y-99914985D01*
X172067349Y-99924275D01*
X172074879Y-99929156D01*
X172091715Y-99935737D01*
X172108836Y-99938416D01*
X172128441Y-99933577D01*
X172147053Y-99920723D01*
X172162448Y-99902352D01*
X172172401Y-99880962D01*
X172174959Y-99864166D01*
X172170208Y-99839373D01*
X172157234Y-99814105D01*
X172137952Y-99790919D01*
X172114279Y-99772373D01*
X172101005Y-99765470D01*
X172079513Y-99759751D01*
X172051905Y-99757320D01*
X172022093Y-99758090D01*
X171993991Y-99761973D01*
X171972699Y-99768353D01*
X171953984Y-99779233D01*
X171932108Y-99796140D01*
X171910004Y-99816448D01*
X171890602Y-99837529D01*
X171880356Y-99851104D01*
X171865741Y-99880878D01*
X171856437Y-99916715D01*
X171852454Y-99955825D01*
X171853802Y-99995419D01*
X171860490Y-100032706D01*
X171872528Y-100064897D01*
X171879582Y-100076816D01*
X171886311Y-100088104D01*
X171889207Y-100095873D01*
X171889209Y-100095987D01*
X171893027Y-100102376D01*
X171903306Y-100113808D01*
X171918282Y-100128667D01*
X171936193Y-100145334D01*
X171955276Y-100162192D01*
X171973767Y-100177623D01*
X171989904Y-100190009D01*
X171996830Y-100194742D01*
X172034944Y-100216552D01*
X172072362Y-100233218D01*
X172090292Y-100239238D01*
X172107488Y-100244244D01*
X172127420Y-100250065D01*
X172132625Y-100251589D01*
X172149272Y-100254711D01*
X172173856Y-100257030D01*
X172203748Y-100258343D01*
X172222584Y-100258562D01*
X172274448Y-100256867D01*
X172318075Y-100251565D01*
X172355288Y-100242326D01*
X172387877Y-100228840D01*
X172398584Y-100224852D01*
X172403032Y-100224166D01*
X172412153Y-100220951D01*
X172427536Y-100212175D01*
X172447392Y-100199143D01*
X172469929Y-100183159D01*
X172493356Y-100165528D01*
X172515881Y-100147554D01*
X172535713Y-100130542D01*
X172549217Y-100117708D01*
X172569414Y-100096298D01*
X172589337Y-100073811D01*
X172607679Y-100051881D01*
X172623128Y-100032142D01*
X172634376Y-100016228D01*
X172640114Y-100005774D01*
X172640578Y-100003680D01*
X172643591Y-99996510D01*
X172644789Y-99995743D01*
X172649189Y-99990409D01*
X172656428Y-99978323D01*
X172663524Y-99964875D01*
X172672045Y-99948008D01*
X172679152Y-99934212D01*
X172682559Y-99927833D01*
X172693408Y-99904421D01*
X172704054Y-99873772D01*
X172704509Y-99872270D01*
X172709646Y-99856052D01*
X172714313Y-99842626D01*
X172715127Y-99840520D01*
X172723450Y-99813305D01*
X172730102Y-99778744D01*
X172735006Y-99739137D01*
X172738081Y-99696779D01*
X172739251Y-99653968D01*
X172738436Y-99613002D01*
X172735558Y-99576177D01*
X172730540Y-99545791D01*
X172725737Y-99529651D01*
X172721465Y-99517150D01*
X172716311Y-99500101D01*
X172714574Y-99493916D01*
X172706680Y-99468644D01*
X172696306Y-99442564D01*
X172681936Y-99411921D01*
X172679294Y-99406604D01*
X172670413Y-99390032D01*
X172658712Y-99369798D01*
X172645822Y-99348543D01*
X172633377Y-99328910D01*
X172623009Y-99313540D01*
X172616876Y-99305613D01*
X172610135Y-99297483D01*
X172601242Y-99285768D01*
X172600938Y-99285352D01*
X172583472Y-99263351D01*
X172560880Y-99237824D01*
X172534625Y-99210155D01*
X172506172Y-99181728D01*
X172476982Y-99153927D01*
X172448519Y-99128137D01*
X172422246Y-99105740D01*
X172399627Y-99088123D01*
X172382123Y-99076667D01*
X172378275Y-99074724D01*
X172368769Y-99069197D01*
X172365459Y-99065275D01*
X172361252Y-99060726D01*
X172350774Y-99053836D01*
X172346938Y-99051692D01*
X172335208Y-99044444D01*
X172328813Y-99038683D01*
X172328417Y-99037629D01*
X172324297Y-99033717D01*
X172322619Y-99033541D01*
X172314619Y-99030691D01*
X172303123Y-99023782D01*
X172302404Y-99023275D01*
X172291689Y-99016714D01*
X172273718Y-99006811D01*
X172250805Y-98994744D01*
X172225263Y-98981689D01*
X172199408Y-98968826D01*
X172175552Y-98957331D01*
X172156009Y-98948383D01*
X172151146Y-98946292D01*
X172135663Y-98939564D01*
X172123150Y-98933750D01*
X172120791Y-98932555D01*
X172107405Y-98928314D01*
X172101260Y-98927708D01*
X172091306Y-98925596D01*
X172088037Y-98923048D01*
X172081059Y-98918321D01*
X172073172Y-98915748D01*
X172061678Y-98912918D01*
X172044291Y-98908317D01*
X172029438Y-98904236D01*
X171968587Y-98889960D01*
X171900462Y-98878713D01*
X171827550Y-98870607D01*
X171752342Y-98865753D01*
X171677327Y-98864262D01*
X171604996Y-98866245D01*
X171537836Y-98871814D01*
X171484396Y-98879882D01*
X171462690Y-98883942D01*
X171438469Y-98888321D01*
X171428834Y-98890016D01*
X171382324Y-98900493D01*
X171329075Y-98916766D01*
X171270805Y-98938270D01*
X171233042Y-98953928D01*
X171213521Y-98962045D01*
X171197124Y-98968308D01*
X171186751Y-98971626D01*
X171185417Y-98971869D01*
X171181548Y-98971931D01*
X171179455Y-98969949D01*
X171179235Y-98964132D01*
X171180985Y-98952689D01*
X171184799Y-98933831D01*
X171188351Y-98917125D01*
X171194282Y-98868130D01*
X171191811Y-98819164D01*
X171181648Y-98771551D01*
X171164502Y-98726613D01*
X171141085Y-98685674D01*
X171112105Y-98650056D01*
X171078274Y-98621082D01*
X171040301Y-98600075D01*
X171013438Y-98591248D01*
X170997263Y-98588963D01*
X170974524Y-98587738D01*
X170949180Y-98587571D01*
X170925189Y-98588464D01*
X170925189Y-98588464D01*
G37*
X170925189Y-98588464D02*
X170906508Y-98590415D01*
X170902313Y-98591259D01*
X170862583Y-98604756D01*
X170830676Y-98624225D01*
X170817168Y-98636487D01*
X170799323Y-98657401D01*
X170788839Y-98677388D01*
X170784070Y-98700553D01*
X170783250Y-98721030D01*
X170783942Y-98742070D01*
X170786876Y-98757251D01*
X170793346Y-98771252D01*
X170800062Y-98781941D01*
X170819859Y-98804234D01*
X170843002Y-98817744D01*
X170867859Y-98822038D01*
X170892801Y-98816687D01*
X170905499Y-98809790D01*
X170916432Y-98801237D01*
X170922094Y-98791974D01*
X170924551Y-98777847D01*
X170925068Y-98770430D01*
X170925352Y-98753523D01*
X170923096Y-98743867D01*
X170917413Y-98738257D01*
X170915916Y-98737408D01*
X170902535Y-98734216D01*
X170891559Y-98735078D01*
X170882033Y-98739119D01*
X170880081Y-98746877D01*
X170881177Y-98753223D01*
X170881711Y-98765847D01*
X170877094Y-98771099D01*
X170868922Y-98769765D01*
X170858789Y-98762631D01*
X170848287Y-98750480D01*
X170839011Y-98734100D01*
X170838104Y-98732003D01*
X170833582Y-98718635D01*
X170833713Y-98707300D01*
X170838533Y-98692315D01*
X170854357Y-98663141D01*
X170877748Y-98640074D01*
X170891836Y-98630784D01*
X170905084Y-98624198D01*
X170919252Y-98620377D01*
X170937866Y-98618635D01*
X170956288Y-98618284D01*
X170982147Y-98619089D01*
X170999394Y-98621606D01*
X171006294Y-98624760D01*
X171015648Y-98630561D01*
X171019728Y-98631374D01*
X171030165Y-98635395D01*
X171044163Y-98645935D01*
X171059406Y-98660709D01*
X171073579Y-98677436D01*
X171084367Y-98693831D01*
X171085717Y-98696458D01*
X171093883Y-98713288D01*
X171101332Y-98728749D01*
X171105088Y-98741889D01*
X171107384Y-98763133D01*
X171108310Y-98793486D01*
X171108318Y-98808124D01*
X171108026Y-98835500D01*
X171107145Y-98855285D01*
X171105111Y-98870471D01*
X171101359Y-98884051D01*
X171095324Y-98899017D01*
X171088250Y-98914479D01*
X171063753Y-98956765D01*
X171032300Y-98992730D01*
X170993325Y-99022760D01*
X170946264Y-99047241D01*
X170890553Y-99066559D01*
X170852042Y-99075980D01*
X170822634Y-99079773D01*
X170785805Y-99080737D01*
X170744281Y-99079054D01*
X170700788Y-99074910D01*
X170658049Y-99068487D01*
X170620313Y-99060362D01*
X170599845Y-99054139D01*
X170581151Y-99046737D01*
X170565722Y-99039055D01*
X170555047Y-99031994D01*
X170550615Y-99026453D01*
X170553918Y-99023333D01*
X170558403Y-99022958D01*
X170568351Y-99019781D01*
X170584167Y-99011266D01*
X170603665Y-98998940D01*
X170624656Y-98984327D01*
X170644953Y-98968954D01*
X170662368Y-98954345D01*
X170674714Y-98942027D01*
X170675080Y-98941593D01*
X170695173Y-98915836D01*
X170709775Y-98892162D01*
X170720111Y-98867537D01*
X170727403Y-98838929D01*
X170732873Y-98803306D01*
X170733731Y-98796151D01*
X170733775Y-98762481D01*
X170727304Y-98726561D01*
X170715392Y-98691731D01*
X170699115Y-98661334D01*
X170684645Y-98643413D01*
X170657288Y-98622754D01*
X170625549Y-98609678D01*
X170591674Y-98604291D01*
X170557911Y-98606696D01*
X170526505Y-98616997D01*
X170500146Y-98634884D01*
X170485257Y-98653011D01*
X170477842Y-98674267D01*
X170476334Y-98694426D01*
X170477530Y-98712322D01*
X170482582Y-98725321D01*
X170493690Y-98738981D01*
X170494157Y-98739477D01*
X170509338Y-98752720D01*
X170523474Y-98758050D01*
X170528552Y-98758375D01*
X170547092Y-98753731D01*
X170560435Y-98741353D01*
X170566218Y-98723569D01*
X170566292Y-98721167D01*
X170563195Y-98706928D01*
X170555311Y-98701185D01*
X170544753Y-98704762D01*
X170538980Y-98710490D01*
X170530881Y-98718424D01*
X170524297Y-98718170D01*
X170521283Y-98716016D01*
X170515309Y-98705091D01*
X170513691Y-98688475D01*
X170516458Y-98670137D01*
X170520862Y-98658706D01*
X170531291Y-98645327D01*
X170542844Y-98636479D01*
X170560958Y-98630964D01*
X170583943Y-98629402D01*
X170606868Y-98631756D01*
X170623095Y-98637051D01*
X170643631Y-98650591D01*
X170663039Y-98668328D01*
X170677516Y-98686644D01*
X170680130Y-98691307D01*
X170683893Y-98703698D01*
X170686492Y-98721535D01*
X170687845Y-98741782D01*
X170687872Y-98761400D01*
X170686490Y-98777352D01*
X170683619Y-98786600D01*
X170682709Y-98787479D01*
X170678613Y-98794773D01*
X170677417Y-98803666D01*
X170675566Y-98813460D01*
X170672125Y-98816583D01*
X170667044Y-98820656D01*
X170666834Y-98822228D01*
X170663631Y-98829995D01*
X170655349Y-98842875D01*
X170643978Y-98858106D01*
X170631508Y-98872926D01*
X170626309Y-98878479D01*
X170609192Y-98892819D01*
X170585034Y-98908914D01*
X170556808Y-98925102D01*
X170527490Y-98939722D01*
X170500055Y-98951114D01*
X170490437Y-98954344D01*
X170428492Y-98969470D01*
X170369992Y-98975341D01*
X170313500Y-98971784D01*
X170257577Y-98958624D01*
X170200784Y-98935690D01*
X170161480Y-98914741D01*
X170124648Y-98893960D01*
X170093875Y-98878442D01*
X170066499Y-98867448D01*
X170039861Y-98860241D01*
X170011300Y-98856083D01*
X169978157Y-98854236D01*
X169942238Y-98853940D01*
X169912171Y-98854404D01*
X169883525Y-98855457D01*
X169859110Y-98856953D01*
X169841732Y-98858750D01*
X169838688Y-98859254D01*
X169817749Y-98863057D01*
X169793434Y-98867261D01*
X169780480Y-98869412D01*
X169758563Y-98873282D01*
X169736891Y-98877593D01*
X169726240Y-98879974D01*
X169699466Y-98886426D01*
X169680732Y-98891019D01*
X169667780Y-98894335D01*
X169658351Y-98896956D01*
X169650190Y-98899466D01*
X169648188Y-98900110D01*
X169611946Y-98914827D01*
X169579387Y-98933783D01*
X169551876Y-98955716D01*
X169530778Y-98979364D01*
X169517460Y-99003464D01*
X169513251Y-99024913D01*
X169511035Y-99044040D01*
X169505068Y-99068707D01*
X169496366Y-99095004D01*
X169492400Y-99104979D01*
X169481972Y-99138079D01*
X169476656Y-99173111D01*
X169476299Y-99188817D01*
X169476794Y-99209551D01*
X169476378Y-99221682D01*
X169474495Y-99227185D01*
X169470589Y-99228034D01*
X169465625Y-99226687D01*
X169456754Y-99225437D01*
X169456454Y-99229683D01*
X169464621Y-99238859D01*
X169468503Y-99242314D01*
X169477432Y-99251708D01*
X169478871Y-99260493D01*
X169476594Y-99268006D01*
X169469002Y-99279562D01*
X169456154Y-99292150D01*
X169450105Y-99296743D01*
X169434408Y-99310558D01*
X169428947Y-99323959D01*
X169433688Y-99338104D01*
X169448428Y-99354003D01*
X169460046Y-99365121D01*
X169464129Y-99372375D01*
X169461852Y-99377908D01*
X169461657Y-99378111D01*
X169457110Y-99388627D01*
X169455288Y-99405415D01*
X169456229Y-99424510D01*
X169459973Y-99441949D01*
X169460993Y-99444719D01*
X169473958Y-99478822D01*
X169482223Y-99505240D01*
X169486236Y-99525532D01*
X169486792Y-99534694D01*
X169490365Y-99549911D01*
X169501344Y-99560776D01*
X169508256Y-99564686D01*
X169516722Y-99567339D01*
X169528670Y-99568915D01*
X169546029Y-99569590D01*
X169570727Y-99569543D01*
X169592625Y-99569191D01*
X169623270Y-99568745D01*
X169645341Y-99568888D01*
X169660843Y-99569814D01*
X169671779Y-99571721D01*
X169680151Y-99574804D01*
X169686553Y-99578374D01*
X169697732Y-99587225D01*
X169703526Y-99595595D01*
X169703750Y-99597026D01*
X169706137Y-99604124D01*
X169708195Y-99605041D01*
X169712799Y-99609902D01*
X169718084Y-99622908D01*
X169723497Y-99641692D01*
X169728485Y-99663888D01*
X169732494Y-99687129D01*
X169734972Y-99709049D01*
X169735500Y-99721868D01*
X169734126Y-99747797D01*
X169730411Y-99779477D01*
X169724968Y-99812496D01*
X169719224Y-99839197D01*
X169706339Y-99888957D01*
X169694668Y-99928685D01*
X169684071Y-99958844D01*
X169682707Y-99962229D01*
X169677987Y-99974487D01*
X169672364Y-99990045D01*
X169671914Y-99991333D01*
X169663279Y-100014191D01*
X169652093Y-100039979D01*
X169637112Y-100071537D01*
X169633622Y-100078645D01*
X169624037Y-100102957D01*
X169618298Y-100127776D01*
X169616652Y-100150452D01*
X169619348Y-100168340D01*
X169624439Y-100177091D01*
X169634814Y-100185984D01*
X169649147Y-100196926D01*
X169664745Y-100208032D01*
X169678913Y-100217419D01*
X169688956Y-100223203D01*
X169691768Y-100224166D01*
X169699614Y-100227990D01*
X169710792Y-100237534D01*
X169722481Y-100249910D01*
X169731860Y-100262227D01*
X169735387Y-100268846D01*
X169737782Y-100288707D01*
X169731541Y-100313658D01*
X169730315Y-100316770D01*
X169721207Y-100338209D01*
X169709870Y-100363457D01*
X169697235Y-100390597D01*
X169684234Y-100417716D01*
X169671798Y-100442900D01*
X169660858Y-100464233D01*
X169652347Y-100479802D01*
X169647196Y-100487692D01*
X169647089Y-100487805D01*
X169641263Y-100495574D01*
X169640250Y-100498589D01*
X169636298Y-100506046D01*
X169625578Y-100518274D01*
X169609794Y-100533704D01*
X169590649Y-100550765D01*
X169569849Y-100567887D01*
X169549097Y-100583499D01*
X169545000Y-100586372D01*
X169529519Y-100597526D01*
X169509178Y-100612821D01*
X169485749Y-100630853D01*
X169461006Y-100650217D01*
X169436723Y-100669511D01*
X169414673Y-100687331D01*
X169396630Y-100702272D01*
X169384367Y-100712932D01*
X169380959Y-100716215D01*
X169375469Y-100720739D01*
X169364441Y-100729154D01*
X169357146Y-100734570D01*
X169342926Y-100745521D01*
X169331358Y-100755268D01*
X169328042Y-100758437D01*
X169320834Y-100764681D01*
X169306970Y-100775674D01*
X169288375Y-100789970D01*
X169266971Y-100806119D01*
X169244683Y-100822674D01*
X169223434Y-100838186D01*
X169205146Y-100851207D01*
X169201042Y-100854056D01*
X169186580Y-100864578D01*
X169174266Y-100874441D01*
X169172328Y-100876160D01*
X169160665Y-100884649D01*
X169152484Y-100888566D01*
X169144451Y-100892883D01*
X169142834Y-100895577D01*
X169138412Y-100899865D01*
X169127465Y-100905497D01*
X169124313Y-100906791D01*
X169112338Y-100912407D01*
X169106063Y-100917138D01*
X169105792Y-100917900D01*
X169101221Y-100921499D01*
X169089148Y-100927475D01*
X169072033Y-100934630D01*
X169069176Y-100935733D01*
X169053060Y-100941576D01*
X169039196Y-100945438D01*
X169024802Y-100947643D01*
X169007093Y-100948517D01*
X168983286Y-100948385D01*
X168964666Y-100947952D01*
X168930523Y-100946334D01*
X168891409Y-100943348D01*
X168852779Y-100939461D01*
X168827274Y-100936215D01*
X168797120Y-100932110D01*
X168774490Y-100929744D01*
X168756480Y-100929036D01*
X168740188Y-100929905D01*
X168722712Y-100932269D01*
X168717472Y-100933144D01*
X168696596Y-100937139D01*
X168684253Y-100940848D01*
X168678448Y-100945098D01*
X168677167Y-100949873D01*
X168678492Y-100955283D01*
X168684014Y-100958268D01*
X168696056Y-100959509D01*
X168710591Y-100959708D01*
X168734236Y-100960697D01*
X168759762Y-100963337D01*
X168783967Y-100967134D01*
X168803645Y-100971596D01*
X168814750Y-100975724D01*
X168818696Y-100978566D01*
X168818171Y-100980943D01*
X168811836Y-100983248D01*
X168798348Y-100985875D01*
X168776366Y-100989220D01*
X168761834Y-100991275D01*
X168733253Y-100995714D01*
X168711017Y-101000508D01*
X168690913Y-101006774D01*
X168668730Y-101015630D01*
X168666584Y-101016551D01*
X168650121Y-101024942D01*
X168634127Y-101035191D01*
X168621280Y-101045332D01*
X168614255Y-101053398D01*
X168613667Y-101055409D01*
X168618257Y-101057665D01*
X168629719Y-101057989D01*
X168644598Y-101056748D01*
X168659434Y-101054306D01*
X168670771Y-101051030D01*
X168674257Y-101049009D01*
X168683325Y-101045170D01*
X168690396Y-101044374D01*
X168702183Y-101041828D01*
X168707214Y-101038669D01*
X168716239Y-101035154D01*
X168728116Y-101035016D01*
X168737864Y-101036781D01*
X168737971Y-101038871D01*
X168732730Y-101041201D01*
X168705940Y-101051871D01*
X168686890Y-101060106D01*
X168673357Y-101067036D01*
X168663115Y-101073791D01*
X168654678Y-101080831D01*
X168645147Y-101090500D01*
X168640285Y-101097501D01*
X168640125Y-101098281D01*
X168644546Y-101102413D01*
X168656902Y-101101775D01*
X168675838Y-101096662D01*
X168699995Y-101087369D01*
X168709222Y-101083280D01*
X168731138Y-101074062D01*
X168746774Y-101069093D01*
X168755327Y-101068407D01*
X168755989Y-101072041D01*
X168747956Y-101080030D01*
X168745880Y-101081660D01*
X168734763Y-101088859D01*
X168726681Y-101091882D01*
X168720199Y-101096286D01*
X168715124Y-101105676D01*
X168714209Y-101110953D01*
X168718484Y-101113698D01*
X168729495Y-101112608D01*
X168744518Y-101108592D01*
X168760829Y-101102564D01*
X168775704Y-101095434D01*
X168786420Y-101088113D01*
X168788292Y-101086167D01*
X168795298Y-101081712D01*
X168809313Y-101075211D01*
X168827305Y-101067963D01*
X168846244Y-101061268D01*
X168846876Y-101061063D01*
X168863310Y-101057539D01*
X168884226Y-101055333D01*
X168895688Y-101054958D01*
X168913097Y-101055442D01*
X168923193Y-101057747D01*
X168929232Y-101063147D01*
X168932817Y-101069510D01*
X168936713Y-101083215D01*
X168933421Y-101096126D01*
X168922098Y-101109557D01*
X168901899Y-101124821D01*
X168893986Y-101129952D01*
X168872648Y-101143827D01*
X168858672Y-101154278D01*
X168850242Y-101163152D01*
X168845541Y-101172294D01*
X168843122Y-101181651D01*
X168842225Y-101193878D01*
X168846479Y-101198373D01*
X168847162Y-101198460D01*
X168864877Y-101196995D01*
X168877337Y-101188919D01*
X168887709Y-101181543D01*
X168905321Y-101171954D01*
X168927427Y-101161450D01*
X168951283Y-101151329D01*
X168974143Y-101142886D01*
X168976146Y-101142224D01*
X169013899Y-101128391D01*
X169043693Y-101113619D01*
X169068130Y-101096270D01*
X169089811Y-101074706D01*
X169097092Y-101066030D01*
X169112780Y-101047684D01*
X169128395Y-101031207D01*
X169141180Y-101019458D01*
X169144008Y-101017314D01*
X169155691Y-101008787D01*
X169163164Y-101002654D01*
X169164000Y-101001764D01*
X169170776Y-100996394D01*
X169185070Y-100987206D01*
X169205015Y-100975271D01*
X169228741Y-100961657D01*
X169254381Y-100947435D01*
X169280064Y-100933674D01*
X169303924Y-100921443D01*
X169306875Y-100919981D01*
X169354447Y-100896160D01*
X169395717Y-100874604D01*
X169434143Y-100853480D01*
X169460334Y-100838470D01*
X169477138Y-100829064D01*
X169491352Y-100821752D01*
X169498698Y-100818571D01*
X169506518Y-100813882D01*
X169507959Y-100810924D01*
X169512054Y-100806438D01*
X169513650Y-100806250D01*
X169520545Y-100803632D01*
X169534537Y-100796481D01*
X169553735Y-100785849D01*
X169576247Y-100772788D01*
X169600181Y-100758350D01*
X169603919Y-100756043D01*
X169613162Y-100750374D01*
X169627644Y-100741548D01*
X169638314Y-100735066D01*
X169652817Y-100726051D01*
X169663287Y-100719140D01*
X169666709Y-100716515D01*
X169672184Y-100711883D01*
X169683182Y-100703350D01*
X169690521Y-100697830D01*
X169707944Y-100684726D01*
X169721314Y-100674119D01*
X169733351Y-100663609D01*
X169746778Y-100650794D01*
X169764316Y-100633275D01*
X169768573Y-100628979D01*
X169787309Y-100608797D01*
X169805527Y-100587042D01*
X169820174Y-100567426D01*
X169824043Y-100561510D01*
X169834542Y-100546121D01*
X169843904Y-100535179D01*
X169850023Y-100531083D01*
X169856582Y-100533431D01*
X169857215Y-100535052D01*
X169860373Y-100541283D01*
X169868182Y-100551706D01*
X169870444Y-100554395D01*
X169878976Y-100565141D01*
X169883465Y-100572402D01*
X169883667Y-100573241D01*
X169886884Y-100579320D01*
X169893153Y-100586970D01*
X169903642Y-100601656D01*
X169915879Y-100624009D01*
X169928784Y-100651494D01*
X169941280Y-100681579D01*
X169952286Y-100711732D01*
X169960725Y-100739419D01*
X169964014Y-100753333D01*
X169973028Y-100799638D01*
X169979672Y-100838635D01*
X169984210Y-100873265D01*
X169986907Y-100906470D01*
X169988028Y-100941191D01*
X169987838Y-100980370D01*
X169987126Y-101009979D01*
X169986044Y-101043664D01*
X169984846Y-101074856D01*
X169983623Y-101101578D01*
X169982466Y-101121856D01*
X169981466Y-101133716D01*
X169981383Y-101134333D01*
X169980571Y-101144446D01*
X169979642Y-101163553D01*
X169978650Y-101190061D01*
X169977647Y-101222383D01*
X169976690Y-101258929D01*
X169975830Y-101298109D01*
X169975824Y-101298375D01*
X169975012Y-101345421D01*
X169974686Y-101384221D01*
X169974925Y-101417100D01*
X169975810Y-101446388D01*
X169977421Y-101474413D01*
X169979836Y-101503502D01*
X169983137Y-101535983D01*
X169984350Y-101547083D01*
X169990916Y-101605180D01*
X169996824Y-101654321D01*
X170002318Y-101696097D01*
X170007644Y-101732098D01*
X170013044Y-101763912D01*
X170018765Y-101793130D01*
X170025051Y-101821340D01*
X170029115Y-101838125D01*
X170035206Y-101863338D01*
X170040587Y-101886871D01*
X170044538Y-101905511D01*
X170046027Y-101913660D01*
X170049144Y-101927292D01*
X170052915Y-101935719D01*
X170053715Y-101936462D01*
X170057408Y-101943445D01*
X170058331Y-101950885D01*
X170059972Y-101960617D01*
X170064365Y-101977640D01*
X170070774Y-101999254D01*
X170075972Y-102015395D01*
X170084233Y-102040466D01*
X170092040Y-102064565D01*
X170098261Y-102084181D01*
X170100698Y-102092125D01*
X170105622Y-102107470D01*
X170109809Y-102118658D01*
X170111058Y-102121229D01*
X170114664Y-102129304D01*
X170119705Y-102142980D01*
X170121298Y-102147687D01*
X170128050Y-102166724D01*
X170135331Y-102185375D01*
X170136170Y-102187375D01*
X170143028Y-102203679D01*
X170149056Y-102218260D01*
X170149407Y-102219125D01*
X170155351Y-102232893D01*
X170159451Y-102241542D01*
X170163426Y-102251937D01*
X170164125Y-102256158D01*
X170166361Y-102262816D01*
X170172572Y-102277404D01*
X170182018Y-102298378D01*
X170193958Y-102324194D01*
X170207651Y-102353309D01*
X170222356Y-102384178D01*
X170237332Y-102415257D01*
X170251838Y-102445002D01*
X170265133Y-102471870D01*
X170276477Y-102494316D01*
X170285127Y-102510797D01*
X170290344Y-102519769D01*
X170291112Y-102520750D01*
X170294960Y-102526585D01*
X170301861Y-102538579D01*
X170306585Y-102547208D01*
X170319333Y-102569639D01*
X170336191Y-102597506D01*
X170355705Y-102628573D01*
X170376419Y-102660607D01*
X170396879Y-102691373D01*
X170415630Y-102718639D01*
X170431216Y-102740168D01*
X170437536Y-102748291D01*
X170443180Y-102755433D01*
X170453780Y-102768992D01*
X170467812Y-102787014D01*
X170483577Y-102807321D01*
X170555732Y-102893586D01*
X170636677Y-102977902D01*
X170724618Y-103058433D01*
X170748862Y-103078902D01*
X170764236Y-103091736D01*
X170776272Y-103101925D01*
X170782788Y-103107619D01*
X170783250Y-103108070D01*
X170788360Y-103112212D01*
X170800095Y-103121190D01*
X170816559Y-103133566D01*
X170830875Y-103144215D01*
X170850497Y-103158811D01*
X170867654Y-103171688D01*
X170880097Y-103181151D01*
X170884766Y-103184811D01*
X170895652Y-103192914D01*
X170908578Y-103201659D01*
X170922571Y-103211492D01*
X170933738Y-103220530D01*
X170943150Y-103227562D01*
X170948772Y-103229833D01*
X170955177Y-103233028D01*
X170966494Y-103241231D01*
X170975185Y-103248354D01*
X170988046Y-103258711D01*
X170997853Y-103265433D01*
X171001243Y-103266875D01*
X171007136Y-103269527D01*
X171018973Y-103276300D01*
X171033910Y-103285419D01*
X171049104Y-103295106D01*
X171061711Y-103303585D01*
X171068887Y-103309081D01*
X171069000Y-103309193D01*
X171075129Y-103313521D01*
X171084875Y-103319378D01*
X171094011Y-103324765D01*
X171110175Y-103334485D01*
X171131376Y-103347333D01*
X171155623Y-103362104D01*
X171165801Y-103368326D01*
X171189553Y-103382777D01*
X171209952Y-103395032D01*
X171225378Y-103404130D01*
X171234207Y-103409106D01*
X171235632Y-103409750D01*
X171240902Y-103412229D01*
X171252818Y-103418768D01*
X171268931Y-103428017D01*
X171270991Y-103429222D01*
X171298603Y-103445148D01*
X171328048Y-103461703D01*
X171356493Y-103477327D01*
X171381106Y-103490464D01*
X171397084Y-103498599D01*
X171409632Y-103505090D01*
X171417484Y-103509821D01*
X171418250Y-103510468D01*
X171423786Y-103513903D01*
X171436692Y-103520989D01*
X171454891Y-103530607D01*
X171471167Y-103539013D01*
X171520322Y-103564179D01*
X171564845Y-103587001D01*
X171603951Y-103607075D01*
X171636854Y-103623998D01*
X171662769Y-103637365D01*
X171680910Y-103646772D01*
X171690492Y-103651816D01*
X171690968Y-103652075D01*
X171700048Y-103656813D01*
X171715987Y-103664904D01*
X171736153Y-103675017D01*
X171748980Y-103681400D01*
X171823231Y-103718750D01*
X171888520Y-103752707D01*
X171945734Y-103783745D01*
X171995760Y-103812342D01*
X172018855Y-103826177D01*
X172032458Y-103833801D01*
X172040021Y-103837597D01*
X172047412Y-103841911D01*
X172061579Y-103850876D01*
X172080874Y-103863392D01*
X172103647Y-103878359D01*
X172128250Y-103894677D01*
X172153035Y-103911246D01*
X172176352Y-103926966D01*
X172196552Y-103940737D01*
X172211988Y-103951460D01*
X172221009Y-103958033D01*
X172222584Y-103959400D01*
X172227830Y-103964217D01*
X172238881Y-103973472D01*
X172251688Y-103983833D01*
X172311914Y-104037393D01*
X172363218Y-104094685D01*
X172405288Y-104155180D01*
X172437811Y-104218346D01*
X172460476Y-104283651D01*
X172472971Y-104350566D01*
X172474115Y-104362720D01*
X172475533Y-104383291D01*
X172475389Y-104396010D01*
X172473178Y-104403555D01*
X172468396Y-104408606D01*
X172465028Y-104410937D01*
X172450982Y-104417507D01*
X172434365Y-104422056D01*
X172434229Y-104422079D01*
X172394691Y-104429475D01*
X172360964Y-104437738D01*
X172336355Y-104445271D01*
X172314487Y-104452356D01*
X172288337Y-104460616D01*
X172264917Y-104467850D01*
X172244468Y-104474199D01*
X172226909Y-104479877D01*
X172215608Y-104483790D01*
X172214646Y-104484164D01*
X172204724Y-104487949D01*
X172188121Y-104494103D01*
X172168116Y-104501411D01*
X172164375Y-104502766D01*
X172145039Y-104510094D01*
X172129481Y-104516598D01*
X172120496Y-104521093D01*
X172119661Y-104521711D01*
X172110071Y-104525984D01*
X172106987Y-104526291D01*
X172098849Y-104528561D01*
X172083251Y-104534762D01*
X172062145Y-104543983D01*
X172037482Y-104555313D01*
X172011213Y-104567840D01*
X171985289Y-104580653D01*
X171961661Y-104592841D01*
X171944771Y-104602067D01*
X171921183Y-104615619D01*
X171896406Y-104630128D01*
X171872964Y-104644090D01*
X171853386Y-104655997D01*
X171840196Y-104664344D01*
X171839227Y-104664991D01*
X171787370Y-104702492D01*
X171734658Y-104745257D01*
X171683528Y-104791070D01*
X171636416Y-104837712D01*
X171595759Y-104882968D01*
X171584579Y-104896708D01*
X171570634Y-104914018D01*
X171558971Y-104927902D01*
X171551232Y-104936434D01*
X171549219Y-104938159D01*
X171545295Y-104944213D01*
X171545250Y-104944995D01*
X171541953Y-104952170D01*
X171534419Y-104961694D01*
X171526795Y-104971595D01*
X171515492Y-104988331D01*
X171501985Y-105009494D01*
X171487751Y-105032677D01*
X171474266Y-105055472D01*
X171463004Y-105075471D01*
X171455442Y-105090265D01*
X171454956Y-105091342D01*
X171448925Y-105102667D01*
X171443953Y-105108251D01*
X171443417Y-105108375D01*
X171439764Y-105112622D01*
X171439417Y-105115524D01*
X171437063Y-105124010D01*
X171431037Y-105137934D01*
X171426188Y-105147554D01*
X171418676Y-105162966D01*
X171413883Y-105175270D01*
X171412959Y-105179651D01*
X171410504Y-105187410D01*
X171408990Y-105188631D01*
X171405351Y-105194354D01*
X171399475Y-105208051D01*
X171392118Y-105227545D01*
X171384034Y-105250659D01*
X171375976Y-105275215D01*
X171368700Y-105299036D01*
X171362958Y-105319944D01*
X171361645Y-105325333D01*
X171356816Y-105344772D01*
X171352227Y-105361259D01*
X171349210Y-105370312D01*
X171345349Y-105382934D01*
X171342065Y-105398847D01*
X171341977Y-105399416D01*
X171339973Y-105411953D01*
X171336675Y-105432065D01*
X171332554Y-105456892D01*
X171328442Y-105481437D01*
X171324507Y-105507522D01*
X171321552Y-105534135D01*
X171319442Y-105563460D01*
X171318041Y-105597680D01*
X171317217Y-105638977D01*
X171316941Y-105668237D01*
X171316907Y-105703428D01*
X171317253Y-105735114D01*
X171317932Y-105761753D01*
X171318895Y-105781800D01*
X171320095Y-105793711D01*
X171320888Y-105796290D01*
X171327103Y-105795466D01*
X171340593Y-105789213D01*
X171360010Y-105778235D01*
X171383209Y-105763752D01*
X171425878Y-105736892D01*
X171468415Y-105711850D01*
X171513041Y-105687433D01*
X171561976Y-105662450D01*
X171617440Y-105635710D01*
X171651084Y-105620031D01*
X171686498Y-105603758D01*
X171715275Y-105590687D01*
X171736644Y-105581160D01*
X171749839Y-105575522D01*
X171754017Y-105574041D01*
X171759473Y-105572007D01*
X171772202Y-105566577D01*
X171789855Y-105558764D01*
X171797541Y-105555302D01*
X171817860Y-105546131D01*
X171835504Y-105538218D01*
X171847456Y-105532914D01*
X171849521Y-105532016D01*
X171860356Y-105527316D01*
X171876412Y-105520299D01*
X171886563Y-105515846D01*
X171918212Y-105502021D01*
X171941364Y-105492101D01*
X171957151Y-105485604D01*
X171960646Y-105484240D01*
X171976695Y-105477354D01*
X171999193Y-105466752D01*
X172025338Y-105453857D01*
X172052325Y-105440089D01*
X172077352Y-105426868D01*
X172097614Y-105415616D01*
X172106167Y-105410495D01*
X172122640Y-105398718D01*
X172141817Y-105382816D01*
X172162061Y-105364427D01*
X172181737Y-105345188D01*
X172199209Y-105326736D01*
X172212840Y-105310708D01*
X172220994Y-105298743D01*
X172222584Y-105293984D01*
X172226494Y-105287639D01*
X172226991Y-105287409D01*
X172232019Y-105282200D01*
X172240403Y-105270700D01*
X172250276Y-105255826D01*
X172259775Y-105240494D01*
X172267035Y-105227619D01*
X172270190Y-105220117D01*
X172270209Y-105219838D01*
X172274000Y-105213529D01*
X172274427Y-105213326D01*
X172279013Y-105207910D01*
X172286025Y-105196059D01*
X172290297Y-105187750D01*
X172296863Y-105175311D01*
X172301169Y-105169024D01*
X172302124Y-105169229D01*
X172302267Y-105176002D01*
X172302556Y-105191563D01*
X172302961Y-105214114D01*
X172303448Y-105241861D01*
X172303930Y-105269770D01*
X172305484Y-105321059D01*
X172308614Y-105364125D01*
X172313909Y-105401285D01*
X172321955Y-105434855D01*
X172333341Y-105467149D01*
X172348655Y-105500482D01*
X172368484Y-105537172D01*
X172374473Y-105547583D01*
X172383516Y-105562851D01*
X172396792Y-105584887D01*
X172412945Y-105611473D01*
X172430616Y-105640392D01*
X172448447Y-105669427D01*
X172465079Y-105696361D01*
X172479156Y-105718975D01*
X172488782Y-105734217D01*
X172498574Y-105749882D01*
X172505588Y-105761817D01*
X172508333Y-105767482D01*
X172508334Y-105767513D01*
X172511332Y-105773428D01*
X172513875Y-105776671D01*
X172520955Y-105786037D01*
X172530360Y-105799955D01*
X172540309Y-105815578D01*
X172549021Y-105830061D01*
X172554717Y-105840559D01*
X172555959Y-105843937D01*
X172559841Y-105850012D01*
X172560012Y-105850090D01*
X172564670Y-105855360D01*
X172572600Y-105867128D01*
X172582113Y-105882543D01*
X172591522Y-105898754D01*
X172599137Y-105912911D01*
X172603271Y-105922162D01*
X172603584Y-105923670D01*
X172606830Y-105928534D01*
X172607553Y-105928624D01*
X172612608Y-105932852D01*
X172617270Y-105940530D01*
X172621700Y-105949499D01*
X172629831Y-105965801D01*
X172640602Y-105987313D01*
X172652953Y-106011918D01*
X172656283Y-106018541D01*
X172670714Y-106047357D01*
X172681369Y-106069018D01*
X172689301Y-106085791D01*
X172695561Y-106099940D01*
X172701201Y-106113728D01*
X172704834Y-106123052D01*
X172710776Y-106138191D01*
X172714260Y-106146864D01*
X172718532Y-106158565D01*
X172724292Y-106175799D01*
X172728124Y-106187875D01*
X172736107Y-106212123D01*
X172742605Y-106226974D01*
X172748629Y-106233317D01*
X172755196Y-106232039D01*
X172763317Y-106224026D01*
X172765851Y-106220896D01*
X172776996Y-106207041D01*
X172787018Y-106194935D01*
X172802304Y-106176747D01*
X172813524Y-106162890D01*
X172823557Y-106149711D01*
X172834096Y-106135209D01*
X172843907Y-106120672D01*
X172850513Y-106109198D01*
X172852292Y-106104340D01*
X172855744Y-106097549D01*
X172856700Y-106097034D01*
X172862879Y-106090832D01*
X172872580Y-106076612D01*
X172884942Y-106055993D01*
X172899108Y-106030592D01*
X172914218Y-106002026D01*
X172929415Y-105971913D01*
X172943841Y-105941871D01*
X172956636Y-105913517D01*
X172965750Y-105891541D01*
X172972337Y-105875335D01*
X172978097Y-105862143D01*
X172979835Y-105858540D01*
X172983998Y-105845106D01*
X172984584Y-105839009D01*
X172986998Y-105828849D01*
X172989875Y-105825395D01*
X172994009Y-105818083D01*
X172995167Y-105809520D01*
X172996935Y-105798601D01*
X172999874Y-105794007D01*
X173003860Y-105787217D01*
X173007111Y-105774716D01*
X173007250Y-105773851D01*
X173010334Y-105758797D01*
X173015297Y-105739190D01*
X173018624Y-105727500D01*
X173023421Y-105710705D01*
X173027851Y-105693208D01*
X173032465Y-105672549D01*
X173037814Y-105646268D01*
X173044103Y-105613729D01*
X173046118Y-105597184D01*
X173047738Y-105572034D01*
X173048964Y-105540127D01*
X173049796Y-105503317D01*
X173050236Y-105463454D01*
X173050284Y-105422389D01*
X173049942Y-105381973D01*
X173049210Y-105344059D01*
X173048090Y-105310496D01*
X173046582Y-105283137D01*
X173044689Y-105263833D01*
X173043907Y-105259187D01*
X173039408Y-105237018D01*
X173034897Y-105214736D01*
X173032653Y-105203625D01*
X173028154Y-105184216D01*
X173022107Y-105161624D01*
X173018886Y-105150708D01*
X173013304Y-105131055D01*
X173008835Y-105112617D01*
X173007250Y-105104357D01*
X173004104Y-105091658D01*
X173000113Y-105084367D01*
X172999874Y-105084201D01*
X172996205Y-105077199D01*
X172995167Y-105068687D01*
X172993170Y-105057606D01*
X172989875Y-105052812D01*
X172985441Y-105045353D01*
X172984584Y-105039199D01*
X172982167Y-105025351D01*
X172979938Y-105019667D01*
X172970974Y-105000529D01*
X172963574Y-104982201D01*
X172958995Y-104967971D01*
X172958125Y-104962674D01*
X172955211Y-104955748D01*
X172952834Y-104954916D01*
X172947838Y-104950784D01*
X172947542Y-104948757D01*
X172945029Y-104938598D01*
X172938034Y-104920966D01*
X172927376Y-104897552D01*
X172913874Y-104870043D01*
X172898348Y-104840128D01*
X172881615Y-104809495D01*
X172870989Y-104790875D01*
X172859739Y-104771493D01*
X172849325Y-104753511D01*
X172841972Y-104740766D01*
X172841878Y-104740604D01*
X172835802Y-104730895D01*
X172825596Y-104715470D01*
X172812613Y-104696284D01*
X172798206Y-104675291D01*
X172783728Y-104654446D01*
X172770532Y-104635702D01*
X172759969Y-104621015D01*
X172753394Y-104612337D01*
X172752149Y-104610958D01*
X172747415Y-104605477D01*
X172738820Y-104594467D01*
X172733310Y-104587145D01*
X172712344Y-104560459D01*
X172689083Y-104534196D01*
X172672055Y-104516423D01*
X172654724Y-104497815D01*
X172643877Y-104482706D01*
X172638021Y-104467635D01*
X172635663Y-104449143D01*
X172635294Y-104431187D01*
X172633985Y-104399889D01*
X172630457Y-104364483D01*
X172625224Y-104328327D01*
X172618800Y-104294777D01*
X172611697Y-104267193D01*
X172608961Y-104259062D01*
X172604846Y-104247204D01*
X172599579Y-104231155D01*
X172598354Y-104227312D01*
X172593279Y-104213164D01*
X172585761Y-104194422D01*
X172576898Y-104173569D01*
X172567790Y-104153087D01*
X172559537Y-104135458D01*
X172553237Y-104123167D01*
X172550328Y-104118833D01*
X172545622Y-104112578D01*
X172540123Y-104102958D01*
X172531342Y-104087550D01*
X172519322Y-104068415D01*
X172506213Y-104048774D01*
X172494167Y-104031852D01*
X172485395Y-104020937D01*
X172475701Y-104009808D01*
X172464115Y-103995534D01*
X172461492Y-103992166D01*
X172450995Y-103979837D01*
X172434820Y-103962341D01*
X172415010Y-103941751D01*
X172393607Y-103920137D01*
X172372655Y-103899571D01*
X172354197Y-103882124D01*
X172343731Y-103872770D01*
X172299403Y-103835157D01*
X172260621Y-103803319D01*
X172225358Y-103775642D01*
X172191585Y-103750510D01*
X172177605Y-103740502D01*
X172159641Y-103727669D01*
X172144341Y-103716536D01*
X172134293Y-103708995D01*
X172132625Y-103707662D01*
X172125402Y-103702435D01*
X172111185Y-103692750D01*
X172091876Y-103679883D01*
X172069377Y-103665113D01*
X172063834Y-103661504D01*
X172041035Y-103646586D01*
X172021146Y-103633389D01*
X172006010Y-103623148D01*
X171997470Y-103617099D01*
X171996588Y-103616392D01*
X171989619Y-103611468D01*
X171987761Y-103610833D01*
X171982676Y-103608146D01*
X171970295Y-103600745D01*
X171952238Y-103589621D01*
X171930122Y-103575767D01*
X171918637Y-103568500D01*
X171894911Y-103553648D01*
X171874191Y-103541074D01*
X171858177Y-103531778D01*
X171848570Y-103526761D01*
X171846767Y-103526166D01*
X171841734Y-103522136D01*
X171841584Y-103520875D01*
X171837597Y-103515736D01*
X171836346Y-103515583D01*
X171829735Y-103512891D01*
X171816734Y-103505728D01*
X171799782Y-103495462D01*
X171793959Y-103491770D01*
X171776261Y-103480806D01*
X171761739Y-103472508D01*
X171752832Y-103468246D01*
X171751571Y-103467958D01*
X171746486Y-103463929D01*
X171746334Y-103462666D01*
X171742255Y-103457592D01*
X171740646Y-103457375D01*
X171733821Y-103454660D01*
X171720679Y-103447443D01*
X171703693Y-103437108D01*
X171698148Y-103433562D01*
X171680568Y-103422567D01*
X171666176Y-103414260D01*
X171657403Y-103410021D01*
X171656210Y-103409750D01*
X171651232Y-103405718D01*
X171651084Y-103404458D01*
X171646956Y-103399455D01*
X171644969Y-103399166D01*
X171637181Y-103396173D01*
X171625284Y-103388712D01*
X171621509Y-103385937D01*
X171610048Y-103377672D01*
X171602434Y-103373056D01*
X171601331Y-103372708D01*
X171595835Y-103369882D01*
X171583094Y-103362045D01*
X171564600Y-103350159D01*
X171541846Y-103335185D01*
X171516324Y-103318086D01*
X171511023Y-103314500D01*
X171499684Y-103306904D01*
X171484121Y-103296585D01*
X171475980Y-103291219D01*
X171462479Y-103281753D01*
X171453223Y-103274158D01*
X171450882Y-103271375D01*
X171444806Y-103267063D01*
X171442945Y-103266868D01*
X171435268Y-103263638D01*
X171423934Y-103255630D01*
X171420896Y-103253087D01*
X171406832Y-103241737D01*
X171389329Y-103228715D01*
X171381209Y-103223015D01*
X171367484Y-103213373D01*
X171357678Y-103206018D01*
X171354750Y-103203444D01*
X171349253Y-103198619D01*
X171338216Y-103189997D01*
X171330973Y-103184574D01*
X171283604Y-103146681D01*
X171232518Y-103100376D01*
X171178734Y-103046710D01*
X171123270Y-102986736D01*
X171067146Y-102921505D01*
X171021249Y-102864708D01*
X171004944Y-102844084D01*
X170990225Y-102825696D01*
X170978765Y-102811621D01*
X170972459Y-102804179D01*
X170965368Y-102793882D01*
X170963167Y-102786981D01*
X170960643Y-102780596D01*
X170959024Y-102780041D01*
X170954737Y-102775871D01*
X170945884Y-102764445D01*
X170933655Y-102747385D01*
X170919240Y-102726315D01*
X170915368Y-102720510D01*
X170900569Y-102698511D01*
X170887685Y-102679912D01*
X170877909Y-102666396D01*
X170872435Y-102659645D01*
X170871886Y-102659215D01*
X170867965Y-102653159D01*
X170867917Y-102652346D01*
X170865264Y-102645466D01*
X170858368Y-102632748D01*
X170850453Y-102619714D01*
X170839654Y-102601365D01*
X170826416Y-102576850D01*
X170811722Y-102548213D01*
X170796552Y-102517497D01*
X170781890Y-102486745D01*
X170768715Y-102458002D01*
X170758010Y-102433310D01*
X170750757Y-102414712D01*
X170748516Y-102407513D01*
X170744318Y-102396152D01*
X170740331Y-102390741D01*
X170736663Y-102383741D01*
X170735625Y-102375229D01*
X170733628Y-102364148D01*
X170730334Y-102359354D01*
X170726200Y-102352041D01*
X170725042Y-102343479D01*
X170723293Y-102332573D01*
X170720382Y-102327994D01*
X170715655Y-102321016D01*
X170713082Y-102313130D01*
X170710261Y-102301632D01*
X170705684Y-102284238D01*
X170701633Y-102269395D01*
X170694769Y-102244053D01*
X170689128Y-102221439D01*
X170684304Y-102199357D01*
X170679891Y-102175614D01*
X170675480Y-102148014D01*
X170670666Y-102114363D01*
X170665041Y-102072466D01*
X170664842Y-102070958D01*
X170662857Y-102054047D01*
X170661279Y-102035849D01*
X170660088Y-102015208D01*
X170659268Y-101990972D01*
X170658799Y-101961986D01*
X170658665Y-101927098D01*
X170658845Y-101885152D01*
X170659323Y-101834996D01*
X170660081Y-101775476D01*
X170660129Y-101771979D01*
X170661183Y-101693737D01*
X170662024Y-101625286D01*
X170662649Y-101565836D01*
X170663050Y-101514597D01*
X170663225Y-101470778D01*
X170663167Y-101433589D01*
X170662870Y-101402240D01*
X170662331Y-101375940D01*
X170661544Y-101353899D01*
X170660503Y-101335327D01*
X170659204Y-101319434D01*
X170657642Y-101305430D01*
X170657058Y-101301020D01*
X170644931Y-101230076D01*
X170628382Y-101164082D01*
X170606704Y-101101698D01*
X170579192Y-101041582D01*
X170545139Y-100982392D01*
X170503839Y-100922786D01*
X170454585Y-100861424D01*
X170396670Y-100796962D01*
X170385378Y-100785038D01*
X170370111Y-100768201D01*
X170353199Y-100748227D01*
X170336221Y-100727146D01*
X170320755Y-100706986D01*
X170308378Y-100689778D01*
X170300670Y-100677550D01*
X170299117Y-100674128D01*
X170294368Y-100665486D01*
X170290769Y-100663375D01*
X170286096Y-100659242D01*
X170285834Y-100657287D01*
X170283727Y-100649535D01*
X170278257Y-100635569D01*
X170272050Y-100621569D01*
X170262555Y-100601014D01*
X170255649Y-100585042D01*
X170250596Y-100571026D01*
X170246662Y-100556342D01*
X170243112Y-100538364D01*
X170239211Y-100514469D01*
X170235721Y-100491796D01*
X170233891Y-100475647D01*
X170232141Y-100452560D01*
X170230518Y-100424258D01*
X170229071Y-100392465D01*
X170227847Y-100358905D01*
X170226895Y-100325303D01*
X170226261Y-100293383D01*
X170225994Y-100264868D01*
X170226141Y-100241483D01*
X170226751Y-100224951D01*
X170227871Y-100216997D01*
X170228092Y-100216644D01*
X170233232Y-100218202D01*
X170243259Y-100225146D01*
X170249012Y-100229898D01*
X170264248Y-100242810D01*
X170279193Y-100255021D01*
X170282278Y-100257458D01*
X170297288Y-100270050D01*
X170316600Y-100287502D01*
X170338446Y-100308076D01*
X170361060Y-100330037D01*
X170382677Y-100351646D01*
X170401529Y-100371167D01*
X170415851Y-100386863D01*
X170423313Y-100396145D01*
X170433901Y-100413197D01*
X170447979Y-100438613D01*
X170465732Y-100472749D01*
X170487346Y-100515961D01*
X170507657Y-100557541D01*
X170518891Y-100580275D01*
X170530022Y-100602039D01*
X170539185Y-100619208D01*
X170541712Y-100623687D01*
X170552172Y-100641905D01*
X170563689Y-100662203D01*
X170567324Y-100668666D01*
X170578158Y-100687938D01*
X170589331Y-100707727D01*
X170592686Y-100713645D01*
X170606961Y-100739301D01*
X170622768Y-100768566D01*
X170639358Y-100799956D01*
X170655977Y-100831988D01*
X170671875Y-100863178D01*
X170686301Y-100892041D01*
X170698502Y-100917094D01*
X170707729Y-100936854D01*
X170713228Y-100949836D01*
X170714459Y-100954134D01*
X170716694Y-100963398D01*
X170719133Y-100969040D01*
X170740624Y-101022652D01*
X170752049Y-101078588D01*
X170753248Y-101135602D01*
X170746615Y-101181710D01*
X170739800Y-101222990D01*
X170736158Y-101268141D01*
X170735711Y-101313762D01*
X170738480Y-101356452D01*
X170744488Y-101392809D01*
X170745253Y-101395912D01*
X170750667Y-101414242D01*
X170756100Y-101428035D01*
X170760440Y-101434500D01*
X170760697Y-101434614D01*
X170767877Y-101432096D01*
X170774522Y-101421302D01*
X170779787Y-101404530D01*
X170782828Y-101384084D01*
X170783250Y-101373153D01*
X170783858Y-101349548D01*
X170786007Y-101335193D01*
X170790190Y-101328807D01*
X170796897Y-101329109D01*
X170799654Y-101330408D01*
X170807810Y-101338005D01*
X170809709Y-101343540D01*
X170812626Y-101350462D01*
X170815000Y-101351291D01*
X170819449Y-101355673D01*
X170820292Y-101360816D01*
X170822520Y-101371727D01*
X170824618Y-101375368D01*
X170829502Y-101385836D01*
X170834366Y-101404754D01*
X170838816Y-101429997D01*
X170842455Y-101459440D01*
X170844275Y-101480937D01*
X170847724Y-101517030D01*
X170852741Y-101544628D01*
X170859782Y-101565757D01*
X170866084Y-101577665D01*
X170872209Y-101585801D01*
X170877442Y-101585449D01*
X170882424Y-101580957D01*
X170885711Y-101576233D01*
X170888123Y-101568567D01*
X170889811Y-101556396D01*
X170890926Y-101538159D01*
X170891619Y-101512293D01*
X170892001Y-101481584D01*
X170892622Y-101444394D01*
X170893817Y-101417560D01*
X170895719Y-101400863D01*
X170898463Y-101394084D01*
X170902185Y-101397005D01*
X170907017Y-101409406D01*
X170913094Y-101431069D01*
X170915976Y-101442572D01*
X170925016Y-101479358D01*
X170933226Y-101512419D01*
X170938268Y-101532551D01*
X170945201Y-101553865D01*
X170954473Y-101574712D01*
X170959906Y-101584144D01*
X170971950Y-101599736D01*
X170980759Y-101605290D01*
X170986300Y-101600856D01*
X170988541Y-101586484D01*
X170987450Y-101562222D01*
X170985483Y-101545178D01*
X170981961Y-101520895D01*
X170978010Y-101497040D01*
X170974428Y-101478407D01*
X170974111Y-101476968D01*
X170969421Y-101455945D01*
X170964699Y-101434530D01*
X170963566Y-101429343D01*
X170959028Y-101409430D01*
X170954228Y-101389694D01*
X170953534Y-101386982D01*
X170951217Y-101373701D01*
X170951851Y-101365405D01*
X170952556Y-101364538D01*
X170958599Y-101366505D01*
X170966534Y-101377964D01*
X170975891Y-101398092D01*
X170984156Y-101420083D01*
X170998126Y-101458723D01*
X171010019Y-101488049D01*
X171020359Y-101509006D01*
X171029666Y-101522539D01*
X171038462Y-101529593D01*
X171045494Y-101531208D01*
X171050124Y-101530046D01*
X171052356Y-101525085D01*
X171052511Y-101514109D01*
X171050915Y-101494902D01*
X171050871Y-101494449D01*
X171047151Y-101468616D01*
X171041316Y-101440196D01*
X171036452Y-101421689D01*
X171028855Y-101395869D01*
X171024210Y-101378549D01*
X171022209Y-101368158D01*
X171022543Y-101363129D01*
X171024727Y-101361886D01*
X171030018Y-101365930D01*
X171038691Y-101376303D01*
X171045188Y-101385386D01*
X171056910Y-101400355D01*
X171068449Y-101411249D01*
X171078032Y-101416870D01*
X171083887Y-101416021D01*
X171084875Y-101412217D01*
X171081353Y-101393848D01*
X171070938Y-101368126D01*
X171053859Y-101335526D01*
X171030345Y-101296524D01*
X171026240Y-101290094D01*
X171011449Y-101266907D01*
X170998948Y-101246982D01*
X170989748Y-101231955D01*
X170984859Y-101223464D01*
X170984334Y-101222227D01*
X170981400Y-101214535D01*
X170973670Y-101200858D01*
X170962754Y-101183634D01*
X170950261Y-101165302D01*
X170937802Y-101148302D01*
X170926985Y-101135072D01*
X170926386Y-101134411D01*
X170906498Y-101108689D01*
X170887926Y-101076161D01*
X170870083Y-101035627D01*
X170852382Y-100985889D01*
X170849915Y-100978229D01*
X170841796Y-100953163D01*
X170834430Y-100931199D01*
X170828601Y-100914631D01*
X170825098Y-100905751D01*
X170824993Y-100905540D01*
X170820872Y-100892104D01*
X170820292Y-100886009D01*
X170817878Y-100875849D01*
X170815000Y-100872395D01*
X170810456Y-100864885D01*
X170809709Y-100859512D01*
X170807644Y-100849703D01*
X170802292Y-100834113D01*
X170796480Y-100819986D01*
X170789387Y-100802299D01*
X170784585Y-100787171D01*
X170783250Y-100779568D01*
X170780778Y-100765715D01*
X170778415Y-100759876D01*
X170774766Y-100750895D01*
X170769109Y-100734675D01*
X170762206Y-100713663D01*
X170754818Y-100690307D01*
X170747705Y-100667057D01*
X170741628Y-100646359D01*
X170737350Y-100630664D01*
X170735631Y-100622419D01*
X170735625Y-100622228D01*
X170733334Y-100612102D01*
X170730900Y-100606417D01*
X170727303Y-100597467D01*
X170721634Y-100581200D01*
X170714857Y-100560435D01*
X170711463Y-100549604D01*
X170704708Y-100528269D01*
X170698819Y-100510640D01*
X170694664Y-100499272D01*
X170693480Y-100496687D01*
X170689890Y-100488595D01*
X170684941Y-100474891D01*
X170683406Y-100470229D01*
X170678657Y-100457645D01*
X170671117Y-100439960D01*
X170662013Y-100419796D01*
X170652572Y-100399775D01*
X170644021Y-100382518D01*
X170637588Y-100370647D01*
X170635103Y-100367041D01*
X170631022Y-100360903D01*
X170624817Y-100349669D01*
X170624494Y-100349045D01*
X170618363Y-100340413D01*
X170606140Y-100325747D01*
X170589159Y-100306556D01*
X170568752Y-100284347D01*
X170547315Y-100261733D01*
X170523810Y-100237184D01*
X170501336Y-100213487D01*
X170481533Y-100192388D01*
X170466038Y-100175629D01*
X170457355Y-100165958D01*
X170445860Y-100152802D01*
X170437274Y-100143090D01*
X170434000Y-100139500D01*
X170429558Y-100134256D01*
X170420598Y-100123211D01*
X170410367Y-100110395D01*
X170399009Y-100096262D01*
X170390235Y-100085685D01*
X170386275Y-100081291D01*
X170381559Y-100075793D01*
X170373020Y-100064750D01*
X170367605Y-100057479D01*
X170358068Y-100044703D01*
X170351164Y-100035806D01*
X170349334Y-100033666D01*
X170344843Y-100028189D01*
X170336421Y-100017187D01*
X170330943Y-100009854D01*
X170319579Y-99995017D01*
X170309160Y-99982216D01*
X170305838Y-99978429D01*
X170298667Y-99968169D01*
X170296417Y-99961231D01*
X170293209Y-99954855D01*
X170291125Y-99954291D01*
X170285987Y-99950304D01*
X170285834Y-99949054D01*
X170283142Y-99942442D01*
X170275979Y-99929442D01*
X170265713Y-99912489D01*
X170262021Y-99906666D01*
X170251107Y-99889320D01*
X170242825Y-99875551D01*
X170238525Y-99867625D01*
X170238209Y-99866670D01*
X170235568Y-99861082D01*
X170228668Y-99849269D01*
X170219688Y-99834872D01*
X170210143Y-99819266D01*
X170203456Y-99807028D01*
X170201167Y-99801171D01*
X170197592Y-99794858D01*
X170197198Y-99794659D01*
X170192550Y-99789635D01*
X170184049Y-99778071D01*
X170173470Y-99762393D01*
X170172659Y-99761145D01*
X170134224Y-99710831D01*
X170089598Y-99668578D01*
X170039518Y-99634917D01*
X169984717Y-99610378D01*
X169949813Y-99600240D01*
X169928137Y-99592862D01*
X169914643Y-99581917D01*
X169907060Y-99565495D01*
X169906659Y-99563962D01*
X169907030Y-99552270D01*
X169911994Y-99541516D01*
X169919323Y-99536312D01*
X169920034Y-99536274D01*
X169925559Y-99539598D01*
X169935661Y-99547964D01*
X169940852Y-99552697D01*
X169954990Y-99563890D01*
X169974192Y-99576535D01*
X169991303Y-99586272D01*
X170014020Y-99596251D01*
X170038885Y-99603188D01*
X170067209Y-99607112D01*
X170100307Y-99608053D01*
X170139494Y-99606041D01*
X170186082Y-99601106D01*
X170241385Y-99593278D01*
X170248792Y-99592127D01*
X170271642Y-99588676D01*
X170291270Y-99585950D01*
X170304819Y-99584334D01*
X170308550Y-99584061D01*
X170319038Y-99588052D01*
X170333993Y-99599362D01*
X170351959Y-99616539D01*
X170371481Y-99638133D01*
X170391102Y-99662690D01*
X170400800Y-99676062D01*
X170422496Y-99704699D01*
X170448677Y-99735576D01*
X170477036Y-99766248D01*
X170505266Y-99794272D01*
X170531059Y-99817204D01*
X170542480Y-99826113D01*
X170556811Y-99836785D01*
X170567434Y-99845051D01*
X170571584Y-99848665D01*
X170577014Y-99852871D01*
X170588697Y-99860856D01*
X170604136Y-99871017D01*
X170620838Y-99881751D01*
X170636310Y-99891457D01*
X170648056Y-99898531D01*
X170653583Y-99901371D01*
X170653630Y-99901374D01*
X170659152Y-99903530D01*
X170671734Y-99909254D01*
X170688945Y-99917432D01*
X170694027Y-99919895D01*
X170712825Y-99928631D01*
X170728465Y-99935147D01*
X170738134Y-99938291D01*
X170739218Y-99938416D01*
X170749876Y-99940699D01*
X170755541Y-99943058D01*
X170778656Y-99952021D01*
X170809687Y-99960147D01*
X170845974Y-99966982D01*
X170884857Y-99972073D01*
X170923676Y-99974966D01*
X170945454Y-99975458D01*
X171015572Y-99970912D01*
X171084492Y-99957693D01*
X171129855Y-99943695D01*
X171140629Y-99939238D01*
X171156736Y-99931953D01*
X171175621Y-99923073D01*
X171194728Y-99913832D01*
X171211503Y-99905462D01*
X171223390Y-99899198D01*
X171227750Y-99896441D01*
X171233283Y-99891607D01*
X171244043Y-99883096D01*
X171248917Y-99879375D01*
X171272269Y-99859750D01*
X171294603Y-99837450D01*
X171314437Y-99814337D01*
X171330294Y-99792277D01*
X171340692Y-99773130D01*
X171344167Y-99759455D01*
X171347566Y-99747728D01*
X171350537Y-99743663D01*
X171353879Y-99734861D01*
X171356026Y-99717994D01*
X171357025Y-99695507D01*
X171356921Y-99669844D01*
X171355760Y-99643452D01*
X171353588Y-99618776D01*
X171350450Y-99598260D01*
X171347616Y-99587432D01*
X171332253Y-99550700D01*
X171313754Y-99522134D01*
X171290260Y-99499967D01*
X171259912Y-99482432D01*
X171222083Y-99468152D01*
X171187844Y-99462398D01*
X171152401Y-99465367D01*
X171118640Y-99476356D01*
X171089445Y-99494660D01*
X171080907Y-99502595D01*
X171068597Y-99515958D01*
X171061866Y-99526496D01*
X171059034Y-99538463D01*
X171058421Y-99556112D01*
X171058417Y-99559550D01*
X171060740Y-99589116D01*
X171068253Y-99611015D01*
X171081769Y-99627217D01*
X171088441Y-99632153D01*
X171107609Y-99640655D01*
X171127633Y-99640267D01*
X171146521Y-99633415D01*
X171158165Y-99626896D01*
X171163021Y-99619481D01*
X171163456Y-99606853D01*
X171163196Y-99602988D01*
X171161521Y-99589148D01*
X171157622Y-99582904D01*
X171149102Y-99581268D01*
X171145730Y-99581229D01*
X171133757Y-99583106D01*
X171128727Y-99590183D01*
X171128164Y-99593135D01*
X171125384Y-99602436D01*
X171122607Y-99605041D01*
X171113721Y-99600126D01*
X171108036Y-99586176D01*
X171106042Y-99564472D01*
X171106926Y-99546665D01*
X171110875Y-99534457D01*
X171119832Y-99522923D01*
X171124216Y-99518429D01*
X171144565Y-99503526D01*
X171169446Y-99495841D01*
X171200554Y-99494954D01*
X171214137Y-99496285D01*
X171244190Y-99505143D01*
X171270323Y-99523759D01*
X171292634Y-99552206D01*
X171294480Y-99555289D01*
X171301344Y-99568314D01*
X171305473Y-99580798D01*
X171307519Y-99596105D01*
X171308132Y-99617601D01*
X171308134Y-99625792D01*
X171307573Y-99650656D01*
X171305568Y-99668892D01*
X171301354Y-99684433D01*
X171294167Y-99701215D01*
X171293003Y-99703633D01*
X171283541Y-99719581D01*
X171270065Y-99737865D01*
X171254405Y-99756490D01*
X171238391Y-99773459D01*
X171223854Y-99786777D01*
X171212622Y-99794447D01*
X171208740Y-99795541D01*
X171201348Y-99798381D01*
X171200410Y-99799759D01*
X171194425Y-99804729D01*
X171181186Y-99811909D01*
X171163444Y-99820057D01*
X171143948Y-99827925D01*
X171125448Y-99834270D01*
X171121917Y-99835301D01*
X171067501Y-99847438D01*
X171017864Y-99851707D01*
X170972784Y-99848578D01*
X170951052Y-99845045D01*
X170932382Y-99841471D01*
X170920039Y-99838495D01*
X170918188Y-99837867D01*
X170888442Y-99825898D01*
X170866132Y-99815964D01*
X170848735Y-99806515D01*
X170833727Y-99796004D01*
X170818586Y-99782881D01*
X170801375Y-99766183D01*
X170788062Y-99750635D01*
X170773324Y-99729758D01*
X170758501Y-99705934D01*
X170744934Y-99681544D01*
X170733965Y-99658970D01*
X170726932Y-99640593D01*
X170725042Y-99630567D01*
X170729301Y-99620294D01*
X170741113Y-99605669D01*
X170759036Y-99587910D01*
X170781626Y-99568235D01*
X170807438Y-99547862D01*
X170835028Y-99528010D01*
X170862952Y-99509897D01*
X170879486Y-99500250D01*
X170894099Y-99492384D01*
X170913617Y-99482193D01*
X170934331Y-99471579D01*
X170952532Y-99462445D01*
X170963167Y-99457308D01*
X170974136Y-99453159D01*
X170992509Y-99447126D01*
X171015466Y-99440052D01*
X171040186Y-99432778D01*
X171063846Y-99426146D01*
X171083626Y-99420998D01*
X171089556Y-99419602D01*
X171110110Y-99416550D01*
X171138426Y-99414472D01*
X171171725Y-99413369D01*
X171207232Y-99413241D01*
X171242168Y-99414088D01*
X171273758Y-99415910D01*
X171299223Y-99418707D01*
X171304480Y-99419591D01*
X171365986Y-99435147D01*
X171427273Y-99458431D01*
X171486037Y-99488217D01*
X171539975Y-99523278D01*
X171586783Y-99562389D01*
X171602408Y-99578258D01*
X171615590Y-99593962D01*
X171631753Y-99615334D01*
X171648668Y-99639199D01*
X171664110Y-99662381D01*
X171675849Y-99681701D01*
X171678720Y-99687062D01*
X171695652Y-99727827D01*
X171708886Y-99774191D01*
X171717314Y-99821490D01*
X171719875Y-99860322D01*
X171719082Y-99881903D01*
X171716964Y-99905929D01*
X171713909Y-99929723D01*
X171710311Y-99950607D01*
X171706558Y-99965903D01*
X171703506Y-99972547D01*
X171699293Y-99981860D01*
X171698709Y-99986939D01*
X171696222Y-99997263D01*
X171690012Y-100011638D01*
X171687534Y-100016307D01*
X171659233Y-100059278D01*
X171626923Y-100094685D01*
X171591643Y-100121619D01*
X171554435Y-100139175D01*
X171542605Y-100142588D01*
X171526721Y-100144813D01*
X171504011Y-100146001D01*
X171478177Y-100146165D01*
X171452924Y-100145323D01*
X171431956Y-100143490D01*
X171423660Y-100142080D01*
X171393274Y-100130926D01*
X171362728Y-100112206D01*
X171335351Y-100088346D01*
X171315184Y-100062933D01*
X171308964Y-100046217D01*
X171305663Y-100023125D01*
X171305326Y-99997468D01*
X171308001Y-99973055D01*
X171313735Y-99953699D01*
X171313839Y-99953477D01*
X171328167Y-99931510D01*
X171346286Y-99916006D01*
X171360086Y-99910227D01*
X171374976Y-99908888D01*
X171382130Y-99914261D01*
X171382117Y-99927066D01*
X171379964Y-99935320D01*
X171376524Y-99948938D01*
X171377737Y-99957114D01*
X171384491Y-99964296D01*
X171385997Y-99965531D01*
X171400901Y-99973968D01*
X171415289Y-99973347D01*
X171431416Y-99963423D01*
X171435176Y-99960186D01*
X171445204Y-99950060D01*
X171450308Y-99940143D01*
X171452105Y-99926204D01*
X171452268Y-99915432D01*
X171451274Y-99896179D01*
X171447455Y-99883221D01*
X171439558Y-99872387D01*
X171439228Y-99872033D01*
X171415442Y-99854297D01*
X171385151Y-99844843D01*
X171362688Y-99843166D01*
X171327467Y-99847888D01*
X171296893Y-99862081D01*
X171270907Y-99885785D01*
X171249448Y-99919042D01*
X171248245Y-99921462D01*
X171239026Y-99949560D01*
X171235068Y-99982769D01*
X171236356Y-100017062D01*
X171242874Y-100048412D01*
X171248766Y-100063108D01*
X171257743Y-100077918D01*
X171270316Y-100094822D01*
X171284526Y-100111623D01*
X171298414Y-100126128D01*
X171310019Y-100136141D01*
X171316970Y-100139500D01*
X171323528Y-100142964D01*
X171323882Y-100143636D01*
X171329591Y-100148197D01*
X171342508Y-100155330D01*
X171359977Y-100163776D01*
X171379341Y-100172280D01*
X171397942Y-100179582D01*
X171405021Y-100182033D01*
X171421216Y-100185292D01*
X171445869Y-100187585D01*
X171476887Y-100188749D01*
X171492334Y-100188860D01*
X171535207Y-100187395D01*
X171570863Y-100182613D01*
X171602361Y-100173713D01*
X171632764Y-100159897D01*
X171656375Y-100146026D01*
X171673963Y-100133332D01*
X171694134Y-100116300D01*
X171715353Y-100096535D01*
X171736081Y-100075644D01*
X171754783Y-100055234D01*
X171769922Y-100036909D01*
X171779961Y-100022278D01*
X171783375Y-100013277D01*
X171786970Y-100007530D01*
X171788667Y-100007208D01*
X171793027Y-100002796D01*
X171793959Y-99997065D01*
X171795752Y-99987797D01*
X171797928Y-99985159D01*
X171803187Y-99978843D01*
X171810518Y-99965057D01*
X171818787Y-99946417D01*
X171826863Y-99925539D01*
X171833610Y-99905040D01*
X171835371Y-99898729D01*
X171846651Y-99835851D01*
X171848159Y-99771472D01*
X171844481Y-99734537D01*
X171839989Y-99704478D01*
X171836165Y-99682032D01*
X171832140Y-99664344D01*
X171827044Y-99648555D01*
X171820007Y-99631810D01*
X171810158Y-99611250D01*
X171801822Y-99594458D01*
X171788711Y-99568282D01*
X171779108Y-99549657D01*
X171771881Y-99536620D01*
X171765903Y-99527207D01*
X171760044Y-99519456D01*
X171755745Y-99514357D01*
X171744818Y-99501289D01*
X171731958Y-99485354D01*
X171727813Y-99480095D01*
X171718482Y-99468652D01*
X171708479Y-99457719D01*
X171695822Y-99445329D01*
X171678529Y-99429517D01*
X171661667Y-99414534D01*
X171641310Y-99398259D01*
X171613981Y-99378809D01*
X171582166Y-99357758D01*
X171548351Y-99336682D01*
X171515021Y-99317155D01*
X171484663Y-99300750D01*
X171472545Y-99294764D01*
X171445333Y-99281114D01*
X171427944Y-99270664D01*
X171420156Y-99263273D01*
X171419689Y-99261083D01*
X171423394Y-99256140D01*
X171433588Y-99250949D01*
X171451380Y-99245121D01*
X171477877Y-99238266D01*
X171497625Y-99233676D01*
X171518089Y-99228965D01*
X171538671Y-99224101D01*
X171542605Y-99223152D01*
X171561329Y-99219045D01*
X171582998Y-99214890D01*
X171590230Y-99213644D01*
X171606985Y-99210816D01*
X171630431Y-99206778D01*
X171656839Y-99202174D01*
X171672250Y-99199462D01*
X171706873Y-99194832D01*
X171748502Y-99191624D01*
X171794489Y-99189835D01*
X171842182Y-99189462D01*
X171888933Y-99190502D01*
X171932089Y-99192953D01*
X171969001Y-99196810D01*
X171987105Y-99199810D01*
X172021073Y-99206604D01*
X172046871Y-99211850D01*
X172066706Y-99216079D01*
X172082787Y-99219819D01*
X172097320Y-99223600D01*
X172112512Y-99227953D01*
X172130572Y-99233407D01*
X172143209Y-99237277D01*
X172168046Y-99245913D01*
X172197231Y-99257667D01*
X172228495Y-99271452D01*
X172259569Y-99286183D01*
X172288186Y-99300773D01*
X172312076Y-99314136D01*
X172328971Y-99325186D01*
X172332197Y-99327767D01*
X172342932Y-99336114D01*
X172350370Y-99340328D01*
X172351089Y-99340451D01*
X172358601Y-99344403D01*
X172370892Y-99355054D01*
X172386413Y-99370621D01*
X172403614Y-99389320D01*
X172420948Y-99409369D01*
X172436864Y-99428984D01*
X172449814Y-99446381D01*
X172458247Y-99459778D01*
X172460709Y-99466647D01*
X172464241Y-99473246D01*
X172464983Y-99473631D01*
X172469341Y-99479096D01*
X172476494Y-99491592D01*
X172485129Y-99508396D01*
X172493935Y-99526784D01*
X172501600Y-99544033D01*
X172506811Y-99557421D01*
X172508334Y-99563623D01*
X172511231Y-99573956D01*
X172512796Y-99576202D01*
X172516976Y-99584477D01*
X172522635Y-99600363D01*
X172528940Y-99621143D01*
X172535057Y-99644098D01*
X172539478Y-99663250D01*
X172543649Y-99682997D01*
X172548495Y-99705916D01*
X172550664Y-99716166D01*
X172553255Y-99736359D01*
X172554532Y-99763949D01*
X172554564Y-99795843D01*
X172553424Y-99828948D01*
X172551182Y-99860167D01*
X172547911Y-99886408D01*
X172546576Y-99893648D01*
X172538991Y-99922002D01*
X172527494Y-99955032D01*
X172513681Y-99988774D01*
X172499151Y-100019267D01*
X172488146Y-100038561D01*
X172476768Y-100054542D01*
X172461865Y-100072986D01*
X172445118Y-100092101D01*
X172428208Y-100110100D01*
X172412818Y-100125192D01*
X172400628Y-100135588D01*
X172393322Y-100139499D01*
X172393284Y-100139500D01*
X172387098Y-100142236D01*
X172386625Y-100143838D01*
X172382085Y-100148185D01*
X172370108Y-100155142D01*
X172353161Y-100163586D01*
X172333712Y-100172393D01*
X172314228Y-100180442D01*
X172297175Y-100186609D01*
X172286084Y-100189597D01*
X172271002Y-100191789D01*
X172250204Y-100194166D01*
X172231008Y-100195966D01*
X172185228Y-100195335D01*
X172138860Y-100186636D01*
X172093799Y-100170814D01*
X172051940Y-100148816D01*
X172015180Y-100121587D01*
X171985413Y-100090073D01*
X171969483Y-100065466D01*
X171963835Y-100049080D01*
X171960143Y-100026789D01*
X171958400Y-100001371D01*
X171958597Y-99975601D01*
X171960726Y-99952256D01*
X171964778Y-99934111D01*
X171969907Y-99924671D01*
X171973641Y-99916260D01*
X171973875Y-99913608D01*
X171977874Y-99900762D01*
X171988199Y-99885091D01*
X172002341Y-99869597D01*
X172017795Y-99857287D01*
X172023640Y-99853995D01*
X172038929Y-99847575D01*
X172050227Y-99846281D01*
X172062478Y-99849566D01*
X172062752Y-99849669D01*
X172075124Y-99857305D01*
X172079526Y-99866369D01*
X172075399Y-99874411D01*
X172069125Y-99877562D01*
X172061619Y-99882886D01*
X172058745Y-99894341D01*
X172058576Y-99900408D01*
X172060312Y-99914985D01*
X172067349Y-99924275D01*
X172074879Y-99929156D01*
X172091715Y-99935737D01*
X172108836Y-99938416D01*
X172128441Y-99933577D01*
X172147053Y-99920723D01*
X172162448Y-99902352D01*
X172172401Y-99880962D01*
X172174959Y-99864166D01*
X172170208Y-99839373D01*
X172157234Y-99814105D01*
X172137952Y-99790919D01*
X172114279Y-99772373D01*
X172101005Y-99765470D01*
X172079513Y-99759751D01*
X172051905Y-99757320D01*
X172022093Y-99758090D01*
X171993991Y-99761973D01*
X171972699Y-99768353D01*
X171953984Y-99779233D01*
X171932108Y-99796140D01*
X171910004Y-99816448D01*
X171890602Y-99837529D01*
X171880356Y-99851104D01*
X171865741Y-99880878D01*
X171856437Y-99916715D01*
X171852454Y-99955825D01*
X171853802Y-99995419D01*
X171860490Y-100032706D01*
X171872528Y-100064897D01*
X171879582Y-100076816D01*
X171886311Y-100088104D01*
X171889207Y-100095873D01*
X171889209Y-100095987D01*
X171893027Y-100102376D01*
X171903306Y-100113808D01*
X171918282Y-100128667D01*
X171936193Y-100145334D01*
X171955276Y-100162192D01*
X171973767Y-100177623D01*
X171989904Y-100190009D01*
X171996830Y-100194742D01*
X172034944Y-100216552D01*
X172072362Y-100233218D01*
X172090292Y-100239238D01*
X172107488Y-100244244D01*
X172127420Y-100250065D01*
X172132625Y-100251589D01*
X172149272Y-100254711D01*
X172173856Y-100257030D01*
X172203748Y-100258343D01*
X172222584Y-100258562D01*
X172274448Y-100256867D01*
X172318075Y-100251565D01*
X172355288Y-100242326D01*
X172387877Y-100228840D01*
X172398584Y-100224852D01*
X172403032Y-100224166D01*
X172412153Y-100220951D01*
X172427536Y-100212175D01*
X172447392Y-100199143D01*
X172469929Y-100183159D01*
X172493356Y-100165528D01*
X172515881Y-100147554D01*
X172535713Y-100130542D01*
X172549217Y-100117708D01*
X172569414Y-100096298D01*
X172589337Y-100073811D01*
X172607679Y-100051881D01*
X172623128Y-100032142D01*
X172634376Y-100016228D01*
X172640114Y-100005774D01*
X172640578Y-100003680D01*
X172643591Y-99996510D01*
X172644789Y-99995743D01*
X172649189Y-99990409D01*
X172656428Y-99978323D01*
X172663524Y-99964875D01*
X172672045Y-99948008D01*
X172679152Y-99934212D01*
X172682559Y-99927833D01*
X172693408Y-99904421D01*
X172704054Y-99873772D01*
X172704509Y-99872270D01*
X172709646Y-99856052D01*
X172714313Y-99842626D01*
X172715127Y-99840520D01*
X172723450Y-99813305D01*
X172730102Y-99778744D01*
X172735006Y-99739137D01*
X172738081Y-99696779D01*
X172739251Y-99653968D01*
X172738436Y-99613002D01*
X172735558Y-99576177D01*
X172730540Y-99545791D01*
X172725737Y-99529651D01*
X172721465Y-99517150D01*
X172716311Y-99500101D01*
X172714574Y-99493916D01*
X172706680Y-99468644D01*
X172696306Y-99442564D01*
X172681936Y-99411921D01*
X172679294Y-99406604D01*
X172670413Y-99390032D01*
X172658712Y-99369798D01*
X172645822Y-99348543D01*
X172633377Y-99328910D01*
X172623009Y-99313540D01*
X172616876Y-99305613D01*
X172610135Y-99297483D01*
X172601242Y-99285768D01*
X172600938Y-99285352D01*
X172583472Y-99263351D01*
X172560880Y-99237824D01*
X172534625Y-99210155D01*
X172506172Y-99181728D01*
X172476982Y-99153927D01*
X172448519Y-99128137D01*
X172422246Y-99105740D01*
X172399627Y-99088123D01*
X172382123Y-99076667D01*
X172378275Y-99074724D01*
X172368769Y-99069197D01*
X172365459Y-99065275D01*
X172361252Y-99060726D01*
X172350774Y-99053836D01*
X172346938Y-99051692D01*
X172335208Y-99044444D01*
X172328813Y-99038683D01*
X172328417Y-99037629D01*
X172324297Y-99033717D01*
X172322619Y-99033541D01*
X172314619Y-99030691D01*
X172303123Y-99023782D01*
X172302404Y-99023275D01*
X172291689Y-99016714D01*
X172273718Y-99006811D01*
X172250805Y-98994744D01*
X172225263Y-98981689D01*
X172199408Y-98968826D01*
X172175552Y-98957331D01*
X172156009Y-98948383D01*
X172151146Y-98946292D01*
X172135663Y-98939564D01*
X172123150Y-98933750D01*
X172120791Y-98932555D01*
X172107405Y-98928314D01*
X172101260Y-98927708D01*
X172091306Y-98925596D01*
X172088037Y-98923048D01*
X172081059Y-98918321D01*
X172073172Y-98915748D01*
X172061678Y-98912918D01*
X172044291Y-98908317D01*
X172029438Y-98904236D01*
X171968587Y-98889960D01*
X171900462Y-98878713D01*
X171827550Y-98870607D01*
X171752342Y-98865753D01*
X171677327Y-98864262D01*
X171604996Y-98866245D01*
X171537836Y-98871814D01*
X171484396Y-98879882D01*
X171462690Y-98883942D01*
X171438469Y-98888321D01*
X171428834Y-98890016D01*
X171382324Y-98900493D01*
X171329075Y-98916766D01*
X171270805Y-98938270D01*
X171233042Y-98953928D01*
X171213521Y-98962045D01*
X171197124Y-98968308D01*
X171186751Y-98971626D01*
X171185417Y-98971869D01*
X171181548Y-98971931D01*
X171179455Y-98969949D01*
X171179235Y-98964132D01*
X171180985Y-98952689D01*
X171184799Y-98933831D01*
X171188351Y-98917125D01*
X171194282Y-98868130D01*
X171191811Y-98819164D01*
X171181648Y-98771551D01*
X171164502Y-98726613D01*
X171141085Y-98685674D01*
X171112105Y-98650056D01*
X171078274Y-98621082D01*
X171040301Y-98600075D01*
X171013438Y-98591248D01*
X170997263Y-98588963D01*
X170974524Y-98587738D01*
X170949180Y-98587571D01*
X170925189Y-98588464D01*
D12*
X139700000Y-101600000D03*
X139700000Y-104140000D03*
X139700000Y-106680000D03*
X139700000Y-109220000D03*
X139700000Y-111760000D03*
X139700000Y-114300000D03*
X154940000Y-99060000D03*
X157480000Y-99060000D03*
X160020000Y-99060000D03*
X162560000Y-99060000D03*
D13*
X169941240Y-109735620D03*
X169941240Y-105935780D03*
D12*
X143510000Y-100330000D03*
X146050000Y-100330000D03*
X148590000Y-100330000D03*
X143510000Y-115570000D03*
X146050000Y-115570000D03*
X148590000Y-115570000D03*
X154940000Y-116840000D03*
X157480000Y-116840000D03*
X160020000Y-116840000D03*
X162560000Y-116840000D03*
X165100000Y-116840000D03*
D14*
X146050000Y-111760000D03*
D15*
X143510000Y-111760000D03*
X146050000Y-109220000D03*
X143510000Y-109220000D03*
X146050000Y-106680000D03*
X143510000Y-106680000D03*
X146050000Y-104140000D03*
X143510000Y-104140000D03*
M02*
