%TF.GenerationSoftware,KiCad,Pcbnew,4.0.6*%
%TF.CreationDate,2017-10-08T18:55:20-04:00*%
%TF.ProjectId,USB-UART,5553422D554152542E6B696361645F70,rev?*%
%TF.FileFunction,Legend,Bot*%
%FSLAX46Y46*%
G04 Gerber Fmt 4.6, Leading zero omitted, Abs format (unit mm)*
G04 Created by KiCad (PCBNEW 4.0.6) date 10/08/17 18:55:20*
%MOMM*%
%LPD*%
G01*
G04 APERTURE LIST*
%ADD10C,0.127000*%
%ADD11C,0.120000*%
G04 APERTURE END LIST*
D10*
X148296286Y-108262857D02*
X148324857Y-108234286D01*
X148353429Y-108148572D01*
X148353429Y-108091429D01*
X148324857Y-108005714D01*
X148267714Y-107948572D01*
X148210571Y-107920000D01*
X148096286Y-107891429D01*
X148010571Y-107891429D01*
X147896286Y-107920000D01*
X147839143Y-107948572D01*
X147782000Y-108005714D01*
X147753429Y-108091429D01*
X147753429Y-108148572D01*
X147782000Y-108234286D01*
X147810571Y-108262857D01*
X148353429Y-108520000D02*
X147753429Y-108520000D01*
X148039143Y-108520000D02*
X148039143Y-108862857D01*
X148353429Y-108862857D02*
X147753429Y-108862857D01*
X148410571Y-109005714D02*
X148410571Y-109462857D01*
X148353429Y-109605714D02*
X147753429Y-109605714D01*
X147753429Y-109834286D01*
X147782000Y-109891428D01*
X147810571Y-109920000D01*
X147867714Y-109948571D01*
X147953429Y-109948571D01*
X148010571Y-109920000D01*
X148039143Y-109891428D01*
X148067714Y-109834286D01*
X148067714Y-109605714D01*
X148353429Y-110205714D02*
X147753429Y-110205714D01*
X147753429Y-110348571D01*
X147782000Y-110434286D01*
X147839143Y-110491428D01*
X147896286Y-110520000D01*
X148010571Y-110548571D01*
X148096286Y-110548571D01*
X148210571Y-110520000D01*
X148267714Y-110491428D01*
X148324857Y-110434286D01*
X148353429Y-110348571D01*
X148353429Y-110205714D01*
X147753429Y-111002857D02*
X147753429Y-111345714D01*
X148353429Y-111174285D02*
X147753429Y-111174285D01*
X147753429Y-111488571D02*
X148353429Y-111888571D01*
X147753429Y-111888571D02*
X148353429Y-111488571D01*
X148353429Y-112117143D02*
X147753429Y-112117143D01*
X147753429Y-112260000D01*
X147782000Y-112345715D01*
X147839143Y-112402857D01*
X147896286Y-112431429D01*
X148010571Y-112460000D01*
X148096286Y-112460000D01*
X148210571Y-112431429D01*
X148267714Y-112402857D01*
X148324857Y-112345715D01*
X148353429Y-112260000D01*
X148353429Y-112117143D01*
X148353429Y-106351428D02*
X148067714Y-106151428D01*
X148353429Y-106008571D02*
X147753429Y-106008571D01*
X147753429Y-106237143D01*
X147782000Y-106294285D01*
X147810571Y-106322857D01*
X147867714Y-106351428D01*
X147953429Y-106351428D01*
X148010571Y-106322857D01*
X148039143Y-106294285D01*
X148067714Y-106237143D01*
X148067714Y-106008571D01*
X148324857Y-106580000D02*
X148353429Y-106665714D01*
X148353429Y-106808571D01*
X148324857Y-106865714D01*
X148296286Y-106894285D01*
X148239143Y-106922857D01*
X148182000Y-106922857D01*
X148124857Y-106894285D01*
X148096286Y-106865714D01*
X148067714Y-106808571D01*
X148039143Y-106694285D01*
X148010571Y-106637143D01*
X147982000Y-106608571D01*
X147924857Y-106580000D01*
X147867714Y-106580000D01*
X147810571Y-106608571D01*
X147782000Y-106637143D01*
X147753429Y-106694285D01*
X147753429Y-106837143D01*
X147782000Y-106922857D01*
X147753429Y-107094286D02*
X147753429Y-107437143D01*
X148353429Y-107265714D02*
X147753429Y-107265714D01*
X147753429Y-103397142D02*
X147753429Y-103768571D01*
X147982000Y-103568571D01*
X147982000Y-103654285D01*
X148010571Y-103711428D01*
X148039143Y-103739999D01*
X148096286Y-103768571D01*
X148239143Y-103768571D01*
X148296286Y-103739999D01*
X148324857Y-103711428D01*
X148353429Y-103654285D01*
X148353429Y-103482857D01*
X148324857Y-103425714D01*
X148296286Y-103397142D01*
X147753429Y-103940000D02*
X148353429Y-104140000D01*
X147753429Y-104340000D01*
X147753429Y-104482857D02*
X147753429Y-104854286D01*
X147982000Y-104654286D01*
X147982000Y-104740000D01*
X148010571Y-104797143D01*
X148039143Y-104825714D01*
X148096286Y-104854286D01*
X148239143Y-104854286D01*
X148296286Y-104825714D01*
X148324857Y-104797143D01*
X148353429Y-104740000D01*
X148353429Y-104568572D01*
X148324857Y-104511429D01*
X148296286Y-104482857D01*
X141749429Y-103740000D02*
X141463714Y-103540000D01*
X141749429Y-103397143D02*
X141149429Y-103397143D01*
X141149429Y-103625715D01*
X141178000Y-103682857D01*
X141206571Y-103711429D01*
X141263714Y-103740000D01*
X141349429Y-103740000D01*
X141406571Y-103711429D01*
X141435143Y-103682857D01*
X141463714Y-103625715D01*
X141463714Y-103397143D01*
X141149429Y-103940000D02*
X141749429Y-104340000D01*
X141149429Y-104340000D02*
X141749429Y-103940000D01*
X141749429Y-104568572D02*
X141149429Y-104568572D01*
X141149429Y-104711429D01*
X141178000Y-104797144D01*
X141235143Y-104854286D01*
X141292286Y-104882858D01*
X141406571Y-104911429D01*
X141492286Y-104911429D01*
X141606571Y-104882858D01*
X141663714Y-104854286D01*
X141720857Y-104797144D01*
X141749429Y-104711429D01*
X141749429Y-104568572D01*
X141178000Y-105794286D02*
X141149429Y-105737143D01*
X141149429Y-105651429D01*
X141178000Y-105565714D01*
X141235143Y-105508572D01*
X141292286Y-105480000D01*
X141406571Y-105451429D01*
X141492286Y-105451429D01*
X141606571Y-105480000D01*
X141663714Y-105508572D01*
X141720857Y-105565714D01*
X141749429Y-105651429D01*
X141749429Y-105708572D01*
X141720857Y-105794286D01*
X141692286Y-105822857D01*
X141492286Y-105822857D01*
X141492286Y-105708572D01*
X141749429Y-106080000D02*
X141149429Y-106080000D01*
X141149429Y-106308572D01*
X141178000Y-106365714D01*
X141206571Y-106394286D01*
X141263714Y-106422857D01*
X141349429Y-106422857D01*
X141406571Y-106394286D01*
X141435143Y-106365714D01*
X141463714Y-106308572D01*
X141463714Y-106080000D01*
X141749429Y-106680000D02*
X141149429Y-106680000D01*
X141149429Y-107080000D02*
X141149429Y-107194286D01*
X141178000Y-107251428D01*
X141235143Y-107308571D01*
X141349429Y-107337143D01*
X141549429Y-107337143D01*
X141663714Y-107308571D01*
X141720857Y-107251428D01*
X141749429Y-107194286D01*
X141749429Y-107080000D01*
X141720857Y-107022857D01*
X141663714Y-106965714D01*
X141549429Y-106937143D01*
X141349429Y-106937143D01*
X141235143Y-106965714D01*
X141178000Y-107022857D01*
X141149429Y-107080000D01*
X141149429Y-107708571D02*
X141149429Y-107765714D01*
X141178000Y-107822857D01*
X141206571Y-107851428D01*
X141263714Y-107879999D01*
X141378000Y-107908571D01*
X141520857Y-107908571D01*
X141635143Y-107879999D01*
X141692286Y-107851428D01*
X141720857Y-107822857D01*
X141749429Y-107765714D01*
X141749429Y-107708571D01*
X141720857Y-107651428D01*
X141692286Y-107622857D01*
X141635143Y-107594285D01*
X141520857Y-107565714D01*
X141378000Y-107565714D01*
X141263714Y-107594285D01*
X141206571Y-107622857D01*
X141178000Y-107651428D01*
X141149429Y-107708571D01*
X141178000Y-111302858D02*
X141149429Y-111245715D01*
X141149429Y-111160001D01*
X141178000Y-111074286D01*
X141235143Y-111017144D01*
X141292286Y-110988572D01*
X141406571Y-110960001D01*
X141492286Y-110960001D01*
X141606571Y-110988572D01*
X141663714Y-111017144D01*
X141720857Y-111074286D01*
X141749429Y-111160001D01*
X141749429Y-111217144D01*
X141720857Y-111302858D01*
X141692286Y-111331429D01*
X141492286Y-111331429D01*
X141492286Y-111217144D01*
X141749429Y-111588572D02*
X141149429Y-111588572D01*
X141749429Y-111931429D01*
X141149429Y-111931429D01*
X141749429Y-112217143D02*
X141149429Y-112217143D01*
X141149429Y-112360000D01*
X141178000Y-112445715D01*
X141235143Y-112502857D01*
X141292286Y-112531429D01*
X141406571Y-112560000D01*
X141492286Y-112560000D01*
X141606571Y-112531429D01*
X141663714Y-112502857D01*
X141720857Y-112445715D01*
X141749429Y-112360000D01*
X141749429Y-112217143D01*
D11*
X147380000Y-110490000D02*
X147380000Y-102810000D01*
X147380000Y-102810000D02*
X142180000Y-102810000D01*
X142180000Y-102810000D02*
X142180000Y-113090000D01*
X142180000Y-113090000D02*
X144780000Y-113090000D01*
X144780000Y-113090000D02*
X144780000Y-110490000D01*
X144780000Y-110490000D02*
X147380000Y-110490000D01*
X147380000Y-111760000D02*
X147380000Y-113090000D01*
X147380000Y-113090000D02*
X146110000Y-113090000D01*
M02*
